<svg width="71" height="51" viewBox="0 0 71 51" fill="none" xmlns="http://www.w3.org/2000/svg">
<path d="M63.8668 9.97711C61.375 6.01817 58.4336 3.34402 56.0994 2.9782C53.4305 2.5601 49.0849 4.76582 45.0316 8.63033C49.0051 13.5787 52.3623 20.7149 52.3623 28.1241C52.3623 36.7925 48.4988 42.9992 42.8867 45.8413C44.7146 46.9663 46.7885 47.73 49.0338 48.0816C58.2696 49.5285 66.8886 43.4755 68.7677 31.4804C69.2377 28.4798 69.141 25.4336 68.6446 22.5036" fill="#4EDAA1"/>
<path d="M66.8129 17.8227C66.3063 17.8227 65.8094 17.6166 65.4511 17.2583C65.3625 17.1697 65.2817 17.0715 65.2104 16.9656C65.141 16.8616 65.0813 16.7498 65.0332 16.6323C64.985 16.5168 64.9484 16.3955 64.9233 16.2722C64.8982 16.1489 64.8867 16.0218 64.8867 15.8967C64.8867 15.7715 64.8982 15.6444 64.9233 15.5192C64.9484 15.3979 64.9849 15.2765 65.0332 15.1591C65.0813 15.0436 65.141 14.9318 65.2104 14.8278C65.2817 14.7218 65.3625 14.6237 65.4511 14.5351C65.5397 14.4464 65.6379 14.3656 65.7438 14.2943C65.8479 14.225 65.9596 14.1652 66.0751 14.1171C66.1926 14.069 66.3139 14.0324 66.4353 14.0073C66.6838 13.9572 66.9399 13.9572 67.1884 14.0073C67.3117 14.0324 67.433 14.0688 67.5485 14.1171C67.666 14.1652 67.7778 14.225 67.8818 14.2943C67.9877 14.3656 68.0859 14.4464 68.1745 14.5351C68.2631 14.6237 68.3439 14.7218 68.4133 14.8278C68.4826 14.9318 68.5424 15.0436 68.5905 15.1591C68.6386 15.2765 68.6752 15.3979 68.7003 15.5192C68.7254 15.6444 68.7389 15.7715 68.7389 15.8967C68.7389 16.0219 68.7254 16.1489 68.7003 16.2722C68.6752 16.3955 68.6388 16.5168 68.5905 16.6323C68.5424 16.7498 68.4826 16.8616 68.4133 16.9656C68.3439 17.0715 68.2631 17.1697 68.1745 17.2583C67.8163 17.6165 67.3194 17.8227 66.8129 17.8227Z" fill="#372A69"/>
<path d="M7.13207 9.97711C9.62387 6.01817 12.5652 3.34402 14.8995 2.9782C17.5684 2.5601 21.9139 4.76582 25.9673 8.63033C21.9938 13.5787 18.6366 20.7149 18.6366 28.1241C18.6366 36.7925 22.5 42.9992 28.1122 45.8413C26.2843 46.9663 24.2103 47.73 21.9651 48.0816C12.7294 49.5285 4.11027 43.4755 2.23127 31.4805C1.76131 28.48 1.85796 25.4338 2.35441 22.5038" fill="#91DDE2"/>
<path d="M4.18578 17.8227C4.06056 17.8227 3.93354 17.8092 3.81026 17.7841C3.68698 17.759 3.56564 17.7226 3.45012 17.6743C3.33267 17.6262 3.2209 17.5664 3.1169 17.4971C3.01095 17.4278 2.91277 17.3469 2.82416 17.2583C2.73555 17.1697 2.6547 17.0715 2.58537 16.9656C2.51603 16.8616 2.45626 16.7498 2.40814 16.6323C2.36003 16.5168 2.32342 16.3955 2.29832 16.2722C2.27322 16.1489 2.25977 16.0218 2.25977 15.8967C2.25977 15.7715 2.27322 15.6444 2.29832 15.5192C2.32342 15.3979 2.35989 15.2765 2.40814 15.1591C2.45626 15.0436 2.51603 14.9318 2.58537 14.8278C2.6547 14.7218 2.73555 14.6237 2.82416 14.5351C2.91277 14.4464 3.01095 14.3656 3.1169 14.2943C3.2209 14.225 3.33267 14.1652 3.45012 14.1171C3.56564 14.069 3.68698 14.0324 3.81026 14.0073C4.05876 13.9572 4.31488 13.9572 4.56338 14.0073C4.68666 14.0324 4.80606 14.0688 4.92351 14.1171C5.03903 14.1652 5.1508 14.225 5.2548 14.2943C5.36075 14.3656 5.45893 14.4464 5.54754 14.5351C5.63809 14.6237 5.71699 14.7218 5.78827 14.8278C5.85761 14.9318 5.91737 15.0436 5.96549 15.1591C6.01361 15.2765 6.05022 15.3979 6.07532 15.5192C6.10042 15.6444 6.11193 15.7715 6.11193 15.8967C6.11193 16.0219 6.10042 16.1489 6.07532 16.2722C6.05022 16.3955 6.01375 16.5168 5.96549 16.6323C5.91737 16.7498 5.85761 16.8616 5.78827 16.9656C5.71699 17.0715 5.63809 17.1697 5.54754 17.2583C5.45893 17.3469 5.36075 17.4278 5.2548 17.4971C5.1508 17.5664 5.03903 17.6262 4.92351 17.6743C4.80606 17.7224 4.68666 17.759 4.56338 17.7841C4.43802 17.8091 4.3128 17.8227 4.18578 17.8227Z" fill="#372A69"/>
<path d="M52.4279 28.1239C52.4279 40.2654 44.8495 47.5793 35.5011 47.5793C26.1526 47.5793 18.5742 40.2654 18.5742 28.1239C18.5742 14.6037 29.8119 1.92578 35.5011 1.92578C41.1902 1.92578 52.4279 14.5686 52.4279 28.1239Z" fill="#FDF5EA"/>
<path d="M70.5434 22.1817C70.3658 21.1329 69.3722 20.4266 68.3227 20.6044C67.2739 20.7821 66.5679 21.7762 66.7454 22.8251C67.2379 25.732 67.2779 28.5435 66.8647 31.182C65.2672 41.3787 58.0577 47.5453 49.3317 46.1787C48.486 46.0461 47.6679 45.8478 46.8808 45.5869C47.5911 45.0173 48.2628 44.3898 48.8894 43.7054C52.4635 39.801 54.3526 34.4131 54.3526 28.1242C54.3526 21.7304 51.9196 14.7045 47.6771 8.84116C51.1064 5.93765 54.2684 4.64107 55.8013 4.88125C57.2271 5.10465 59.7701 7.08433 62.2367 11.0032C62.8033 11.9035 63.9927 12.1737 64.8926 11.6074C65.7929 11.0408 66.0635 9.85167 65.4968 8.95141C62.6345 4.4038 59.3179 1.53302 56.3975 1.07554C53.4697 0.616536 49.3138 2.42204 45.253 5.84613C41.9192 2.17687 38.3549 0 35.4996 0C32.6476 0 29.0854 2.1784 25.7515 5.85057C21.6886 2.42357 17.5296 0.616397 14.6021 1.07554C11.6813 1.53302 8.36487 4.40352 5.50268 8.95141C4.93607 9.85167 5.20648 11.0408 6.10688 11.6074C7.00713 12.174 8.19625 11.9036 8.76286 11.0032C11.2291 7.08405 13.7721 5.10451 15.1982 4.88111C16.7315 4.64107 19.8968 5.93904 23.3283 8.84602C19.0818 14.7159 16.6468 21.741 16.6468 28.1242C16.6468 34.4134 18.5359 39.801 22.11 43.7054C22.7365 44.3898 23.4081 45.0173 24.1185 45.5869C23.3316 45.8478 22.5134 46.0463 21.6677 46.1787C12.9424 47.5456 5.73205 41.3789 4.13469 31.182C3.7213 28.5435 3.76138 25.732 4.25394 22.8251C4.43158 21.7763 3.72546 20.7822 2.67669 20.6044C1.62736 20.4276 0.633775 21.1329 0.455998 22.1817C-0.106039 25.4995 -0.14875 28.7281 0.329113 31.7785C1.30259 37.9917 4.00267 43.0224 8.13786 46.3265C11.3324 48.8789 15.2128 50.2179 19.2953 50.2179C20.2753 50.2179 21.2676 50.1407 22.2641 49.9847C24.3752 49.654 26.3564 48.9932 28.1715 48.0235C30.4301 48.996 32.9087 49.5057 35.5002 49.5057C38.0917 49.5057 40.5703 48.9957 42.8288 48.0235C44.6439 48.9932 46.6251 49.6541 48.7363 49.9847C49.7332 50.1408 50.7247 50.2181 51.7051 50.2179C55.7872 50.2179 59.6682 48.8789 62.8625 46.3265C66.9977 43.0224 69.6979 37.9919 70.6712 31.7785C71.1483 28.7281 71.1057 25.4995 70.5434 22.1817ZM29.2045 44.2546C29.1342 44.2062 29.06 44.1621 28.9826 44.1229C23.6318 41.4131 20.5629 35.5817 20.5629 28.1239C20.5629 22.0584 23.1448 15.2217 27.4696 9.836C27.5528 9.73255 27.6225 9.62258 27.681 9.50859C30.748 5.78886 33.834 3.85175 35.4996 3.85175C37.1647 3.85175 40.2448 5.77929 43.3055 9.48155C43.3665 9.60525 43.4401 9.72437 43.5297 9.836C47.8545 15.2216 50.4362 22.0583 50.4362 28.1239C50.4362 35.5815 47.3673 41.4131 42.0165 44.1229C41.9391 44.1621 41.8651 44.2062 41.7946 44.2546C39.9176 45.1603 37.8001 45.6533 35.4995 45.6533C33.1989 45.6533 31.0815 45.1604 29.2045 44.2546Z" fill="#372A69"/>
</svg>
