<svg width="116" height="54" viewBox="0 0 116 54" fill="none" xmlns="http://www.w3.org/2000/svg">
<path d="M35.4026 8.46424C24.8401 15.6363 -0.0664152 10.6811 1.36803 31.0236C2.67204 47.9758 28.1001 51.4965 41.0098 50.7141C93.3006 47.9758 78.5652 -20.7455 35.4026 8.46424Z" fill="#FD9808"/>
<path d="M33.7074 9.24608C23.5362 16.4181 -0.0663062 11.9845 0.976844 32.1966C1.88971 48.8879 26.0138 52.0175 38.2715 51.1048C88.2149 47.5839 75.175 -20.4853 33.7074 9.24608Z" fill="#FFDD09"/>
<path d="M5.80108 32.197C4.6275 11.9849 28.3604 16.4185 38.4012 9.24647C44.7909 4.68243 50.5285 2.33527 55.4837 1.81369C49.7461 1.16168 42.4436 3.1177 34.0979 9.24647C23.9268 16.4185 0.324319 11.9849 1.36747 32.197C2.14991 48.1058 24.1875 51.757 36.8365 51.2354C24.0571 50.8443 6.45309 46.4107 5.80108 32.197Z" fill="white"/>
<path d="M37.6189 52.148C21.9707 52.148 1.23713 46.8016 0.0635446 31.1536C-0.979605 16.4183 11.0172 13.8103 21.5796 11.7238C26.6652 10.6807 31.4901 9.63736 34.75 7.42063C47.0077 -0.925023 58.8741 -2.35947 67.0895 3.76945C74.5222 9.24621 77.5216 19.9392 74.5222 29.8496C70.6102 42.8897 58.0918 51.1049 41.0092 52.0176C39.9662 52.148 38.7926 52.148 37.6189 52.148ZM55.2231 2.59572C49.4854 2.59572 42.9654 4.94288 36.0542 9.50693C32.5334 12.115 27.4477 13.1581 22.1013 14.2014C11.6692 16.4183 1.88913 18.5047 2.67157 31.0231C3.71472 45.8888 26.6654 50.3225 40.8789 49.54C56.9182 48.7576 68.5239 41.0639 72.0446 29.1975C74.6527 20.1999 72.0446 10.6807 65.5246 5.85575C62.6558 3.63902 59.1351 2.59572 55.2231 2.59572Z" fill="#372A69"/>
<path d="M65.263 52.1481H13.1028C12.3204 52.1481 11.7988 51.6265 11.7988 50.8441C11.7988 50.0616 12.3204 49.54 13.1028 49.54H65.2632C66.0456 49.54 66.5672 50.0616 66.5672 50.8441C66.5671 51.6265 66.0455 52.1481 65.263 52.1481Z" fill="#372A69"/>
<path d="M6.58391 52.1481H3.97589C3.19345 52.1481 2.67188 51.6265 2.67188 50.8441C2.67188 50.0616 3.19345 49.54 3.97589 49.54H6.58391C7.36635 49.54 7.88793 50.0616 7.88793 50.8441C7.88793 51.6265 7.36635 52.1481 6.58391 52.1481Z" fill="#372A69"/>
<path d="M75.6958 52.1481H70.4798C69.6974 52.1481 69.1758 51.6265 69.1758 50.8441C69.1758 50.0616 69.6974 49.54 70.4798 49.54H75.6958C76.4783 49.54 76.9999 50.0616 76.9999 50.8441C76.9999 51.6265 76.4783 52.1481 75.6958 52.1481Z" fill="#372A69"/>
<path d="M15.7122 48.2358C14.9298 48.2358 14.4082 47.7142 14.4082 46.9318V39.1077C14.4082 38.3253 14.9298 37.8037 15.7122 37.8037C16.4947 37.8037 17.0162 38.3253 17.0162 39.1077V46.9318C17.0161 47.7142 16.4945 48.2358 15.7122 48.2358Z" fill="#372A69"/>
<path d="M15.7122 35.1962C14.9298 35.1962 14.4082 34.6746 14.4082 33.8922V32.5882C14.4082 31.8058 14.9298 31.2842 15.7122 31.2842C16.4947 31.2842 17.0162 31.8058 17.0162 32.5882V33.8922C17.0161 34.6745 16.4945 35.1962 15.7122 35.1962Z" fill="#372A69"/>
<path d="M7.888 43.02C7.10556 43.02 6.58398 42.4984 6.58398 41.716V33.8919C6.58398 33.1095 7.10556 32.5879 7.888 32.5879C8.67043 32.5879 9.19201 33.1095 9.19201 33.8919V41.716C9.19201 42.4984 8.67028 43.02 7.888 43.02Z" fill="#372A69"/>
<path d="M11.8001 20.8521C11.0177 20.8521 10.4961 20.3305 10.4961 19.5481V15.636C10.4961 14.8536 11.0177 14.332 11.8001 14.332C12.5825 14.332 13.1041 14.8536 13.1041 15.636V19.5481C13.1041 20.3305 12.5824 20.8521 11.8001 20.8521Z" fill="#372A69"/>
<path d="M22.2317 43.0198C21.4493 43.0198 20.9277 42.4982 20.9277 41.7157V39.1077C20.9277 38.3253 21.4493 37.8037 22.2317 37.8037C23.0142 37.8037 23.5358 38.3253 23.5358 39.1077V41.7157C23.5358 42.4982 23.0142 43.0198 22.2317 43.0198Z" fill="#372A69"/>
<path d="M28.7513 40.4123C27.9688 40.4123 27.4473 39.8907 27.4473 39.1083V32.5882C27.4473 31.8058 27.9688 31.2842 28.7513 31.2842C29.5337 31.2842 30.0553 31.8058 30.0553 32.5882V39.1083C30.0553 39.8907 29.5337 40.4123 28.7513 40.4123Z" fill="#372A69"/>
<path d="M28.7513 19.548C27.9688 19.548 27.4473 19.0264 27.4473 18.244V11.7239C27.4473 10.9415 27.9688 10.4199 28.7513 10.4199C29.5337 10.4199 30.0553 10.9415 30.0553 11.7239V18.244C30.0553 19.0264 29.5337 19.548 28.7513 19.548Z" fill="#372A69"/>
<path d="M44.3997 26.0676C43.6173 26.0676 43.0957 25.546 43.0957 24.7636V22.1556C43.0957 21.3731 43.6173 20.8516 44.3997 20.8516C45.1822 20.8516 45.7037 21.3731 45.7037 22.1556V24.7636C45.7037 25.546 45.1822 26.0676 44.3997 26.0676Z" fill="#372A69"/>
<path d="M44.3997 41.7159C43.6173 41.7159 43.0957 41.1943 43.0957 40.4119V29.9798C43.0957 29.1974 43.6173 28.6758 44.3997 28.6758C45.1822 28.6758 45.7037 29.1974 45.7037 29.9798V40.4119C45.7037 41.1943 45.1822 41.7159 44.3997 41.7159Z" fill="#372A69"/>
<path d="M62.6556 10.4198C61.8731 10.4198 61.3516 9.8982 61.3516 9.11576V3.89971C61.3516 3.11728 61.8731 2.5957 62.6556 2.5957C63.438 2.5957 63.9596 3.11728 63.9596 3.89971V9.11576C63.9596 9.8982 63.438 10.4198 62.6556 10.4198Z" fill="#372A69"/>
<path d="M62.6556 44.3241C61.8731 44.3241 61.3516 43.8025 61.3516 43.0201V37.804C61.3516 37.0216 61.8731 36.5 62.6556 36.5C63.438 36.5 63.9596 37.0216 63.9596 37.804V43.0201C63.9596 43.8025 63.438 44.3241 62.6556 44.3241Z" fill="#372A69"/>
<path d="M70.4798 22.1562C69.6974 22.1562 69.1758 21.6346 69.1758 20.8522V19.5482C69.1758 18.7657 69.6974 18.2441 70.4798 18.2441C71.2622 18.2441 71.7838 18.7657 71.7838 19.5482V20.8522C71.7838 21.6346 71.2622 22.1562 70.4798 22.1562Z" fill="#372A69"/>
<path d="M70.4798 15.6356C69.6974 15.6356 69.1758 15.114 69.1758 14.3316V9.11554C69.1758 8.3331 69.6974 7.81152 70.4798 7.81152C71.2622 7.81152 71.7838 8.3331 71.7838 9.11554V14.3316C71.7838 15.114 71.2622 15.6356 70.4798 15.6356Z" fill="#372A69"/>
<path d="M50.9192 10.4201C50.1368 10.4201 49.6152 9.8985 49.6152 9.11607V2.596C49.6152 1.81357 50.1368 1.29199 50.9192 1.29199C51.7017 1.29199 52.2233 1.81357 52.2233 2.596V9.11607C52.2233 9.8985 51.7015 10.4201 50.9192 10.4201Z" fill="#372A69"/>
<path d="M53.5286 49.5402C52.7462 49.5402 52.2246 49.0186 52.2246 48.2362V41.7161C52.2246 40.9337 52.7462 40.4121 53.5286 40.4121C54.3111 40.4121 54.8326 40.9337 54.8326 41.7161V48.2362C54.8325 49.0186 54.3109 49.5402 53.5286 49.5402Z" fill="#372A69"/>
<path d="M39.1829 52.1483C38.4005 52.1483 37.8789 51.6267 37.8789 50.8443V45.6282C37.8789 44.8458 38.4005 44.3242 39.1829 44.3242C39.9654 44.3242 40.4869 44.8458 40.4869 45.6282V50.8443C40.4869 51.6267 39.9654 52.1483 39.1829 52.1483Z" fill="#372A69"/>
<path d="M81.5443 17.5999C73.0976 23.4596 53.0041 19.6706 54.3229 36.0379C55.5094 49.6765 76.0114 52.3063 86.3994 51.5723C128.479 48.9463 116.061 -6.26621 81.5443 17.5999Z" fill="#FD9808"/>
<path d="M80.1866 18.2432C72.055 24.0998 53.0156 20.7202 54.0184 36.9856C54.8879 50.4173 74.3367 52.7428 84.1987 51.9091C124.383 48.6718 113.335 -6.02933 80.1866 18.2432Z" fill="#FFDD09"/>
<path d="M57.903 36.9472C56.7953 20.6828 75.9397 24.0613 83.9663 18.2058C89.0741 14.4796 93.6749 12.5435 97.6604 12.0836C93.0355 11.6049 87.1716 13.2386 80.5014 18.2405C72.3699 24.097 53.3305 20.7175 54.3333 36.9829C55.0914 49.7857 72.8646 52.5479 83.0447 52.026C72.7522 51.814 58.5425 48.3861 57.903 36.9472Z" fill="white"/>
<path d="M83.6819 52.7544C71.0827 52.8805 54.3458 48.7428 53.2748 36.1532C52.3162 24.2975 61.9545 22.1009 70.442 20.3359C74.5283 19.455 78.4047 18.5761 81.0116 16.7651C90.8137 9.94676 100.356 8.6962 107.02 13.5647C113.049 17.9145 115.55 26.4998 113.215 34.5034C110.17 45.0342 100.157 51.7496 86.4105 52.6221C85.5718 52.7355 84.6269 52.745 83.6819 52.7544ZM97.4567 12.7153C92.837 12.7615 87.6062 14.7039 82.0784 18.4344C79.2647 20.5626 75.1783 21.4435 70.8821 22.3266C62.5005 24.1955 54.6428 25.9543 55.3736 36.0272C56.3333 47.988 74.8479 51.3728 86.2857 50.6283C99.1935 49.8691 108.476 43.581 111.215 33.9983C113.242 26.7328 111.066 19.0894 105.777 15.2571C103.45 13.4954 100.606 12.6838 97.4567 12.7153Z" fill="#372A69"/>
<path d="M105.941 52.5314L63.944 52.9517C63.314 52.958 62.8899 52.5422 62.8836 51.9122C62.8772 51.2823 63.293 50.8581 63.923 50.8518L105.92 50.4315C106.55 50.4252 106.974 50.841 106.981 51.4709C106.987 52.1009 106.571 52.5251 105.941 52.5314Z" fill="#372A69"/>
<path d="M58.6942 53.0049L56.5944 53.0259C55.9644 53.0322 55.5402 52.6164 55.5339 51.9865C55.5276 51.3565 55.9434 50.9323 56.5734 50.926L58.6732 50.905C59.3032 50.8987 59.7274 51.3144 59.7337 51.9444C59.74 52.5744 59.3242 52.9986 58.6942 53.0049Z" fill="#372A69"/>
<path d="M114.339 52.4477L110.139 52.4897C109.509 52.4961 109.085 52.0803 109.079 51.4503C109.073 50.8203 109.488 50.3962 110.118 50.3899L114.318 50.3479C114.948 50.3416 115.372 50.7573 115.378 51.3873C115.385 52.0173 114.969 52.4414 114.339 52.4477Z" fill="#372A69"/>
<path d="M66.0109 49.7815C65.381 49.7878 64.9568 49.3721 64.9505 48.7421L64.8875 42.4425C64.8812 41.8125 65.2969 41.3884 65.9269 41.3821C66.5569 41.3758 66.981 41.7915 66.9873 42.4215L67.0504 48.7211C67.0565 49.3511 66.6408 49.7752 66.0109 49.7815Z" fill="#372A69"/>
<path d="M65.9057 39.2819C65.2757 39.2882 64.8515 38.8724 64.8452 38.2424L64.8347 37.1925C64.8284 36.5625 65.2442 36.1384 65.8742 36.1321C66.5041 36.1258 66.9283 36.5415 66.9346 37.1715L66.9451 38.2214C66.9513 38.8513 66.5355 39.2756 65.9057 39.2819Z" fill="#372A69"/>
<path d="M59.6691 45.6448C59.0392 45.6511 58.615 45.2354 58.6087 44.6054L58.5457 38.3058C58.5394 37.6758 58.9551 37.2517 59.5851 37.2454C60.2151 37.239 60.6392 37.6548 60.6455 38.2848L60.7086 44.5844C60.7149 45.2143 60.299 45.6385 59.6691 45.6448Z" fill="#372A69"/>
<path d="M62.6415 27.7645C62.0115 27.7708 61.5874 27.3551 61.5811 26.7251L61.5496 23.5753C61.5433 22.9453 61.959 22.5212 62.589 22.5149C63.219 22.5086 63.6431 22.9243 63.6494 23.5543L63.681 26.7041C63.6873 27.3341 63.2714 27.7582 62.6415 27.7645Z" fill="#372A69"/>
<path d="M71.2189 45.5291C70.5889 45.5354 70.1648 45.1196 70.1585 44.4896L70.1375 42.3898C70.1312 41.7598 70.5469 41.3356 71.1769 41.3293C71.8069 41.323 72.231 41.7388 72.2373 42.3688L72.2583 44.4686C72.2646 45.0986 71.8489 45.5228 71.2189 45.5291Z" fill="#372A69"/>
<path d="M76.4477 43.3761C75.8177 43.3824 75.3936 42.9667 75.3873 42.3367L75.3347 37.087C75.3284 36.4571 75.7442 36.0329 76.3741 36.0266C77.0041 36.0203 77.4283 36.436 77.4346 37.066L77.4871 42.3157C77.4934 42.9457 77.0777 43.3698 76.4477 43.3761Z" fill="#372A69"/>
<path d="M76.2797 26.5773C75.6497 26.5836 75.2256 26.1679 75.2193 25.5379L75.1668 20.2882C75.1605 19.6582 75.5762 19.2341 76.2062 19.2278C76.8362 19.2215 77.2603 19.6372 77.2666 20.2672L77.3192 25.5169C77.3255 26.1468 76.9097 26.571 76.2797 26.5773Z" fill="#372A69"/>
<path d="M88.9318 31.7009C88.3018 31.7072 87.8777 31.2915 87.8714 30.6615L87.8504 28.5616C87.844 27.9317 88.2598 27.5075 88.8898 27.5012C89.5198 27.4949 89.9439 27.9107 89.9502 28.5406L89.9712 30.6405C89.9775 31.2705 89.5618 31.6946 88.9318 31.7009Z" fill="#372A69"/>
<path d="M89.0573 44.3003C88.4274 44.3066 88.0032 43.8909 87.9969 43.2609L87.9129 34.8615C87.9065 34.2315 88.3223 33.8073 88.9523 33.801C89.5823 33.7947 90.0064 34.2105 90.0127 34.8404L90.0968 43.2399C90.1031 43.8699 89.6873 44.294 89.0573 44.3003Z" fill="#372A69"/>
<path d="M103.504 18.9551C102.874 18.9614 102.449 18.5457 102.443 17.9157L102.401 13.7159C102.395 13.086 102.811 12.6618 103.441 12.6555C104.071 12.6492 104.495 13.0649 104.501 13.6949L104.543 17.8947C104.549 18.5246 104.134 18.9488 103.504 18.9551Z" fill="#372A69"/>
<path d="M103.777 46.2529C103.147 46.2593 102.723 45.8435 102.717 45.2135L102.675 41.0138C102.668 40.3838 103.084 39.9597 103.714 39.9534C104.344 39.9471 104.768 40.3628 104.774 40.9928L104.816 45.1925C104.823 45.8225 104.407 46.2466 103.777 46.2529Z" fill="#372A69"/>
<path d="M109.898 28.3414C109.268 28.3477 108.844 27.932 108.837 27.302L108.827 26.2521C108.821 25.6221 109.236 25.1979 109.866 25.1916C110.496 25.1853 110.92 25.6011 110.927 26.2311L110.937 27.281C110.944 27.911 110.528 28.3351 109.898 28.3414Z" fill="#372A69"/>
<path d="M109.845 23.0918C109.215 23.0981 108.791 22.6824 108.785 22.0524L108.743 17.8527C108.737 17.2227 109.152 16.7985 109.782 16.7922C110.412 16.7859 110.836 17.2017 110.843 17.8317L110.885 22.0314C110.891 22.6614 110.475 23.0855 109.845 23.0918Z" fill="#372A69"/>
<path d="M94.0551 19.05C93.4251 19.0563 93.001 18.6405 92.9947 18.0105L92.9421 12.7609C92.9358 12.1309 93.3516 11.7067 93.9816 11.7004C94.6116 11.6941 95.0357 12.1099 95.042 12.7399L95.0945 17.9895C95.1008 18.6195 94.685 19.0436 94.0551 19.05Z" fill="#372A69"/>
<path d="M96.4692 50.5265C95.8392 50.5328 95.415 50.1171 95.4087 49.4871L95.3562 44.2374C95.3499 43.6074 95.7657 43.1833 96.3956 43.177C97.0256 43.1707 97.4498 43.5864 97.4561 44.2164L97.5086 49.4661C97.5148 50.0961 97.099 50.5202 96.4692 50.5265Z" fill="#372A69"/>
<path d="M84.9411 52.7422C84.3111 52.7485 83.887 52.3328 83.8807 51.7028L83.8386 47.5031C83.8323 46.8731 84.2481 46.4489 84.8781 46.4426C85.508 46.4363 85.9322 46.8521 85.9385 47.482L85.9805 51.6818C85.9868 52.3118 85.5711 52.7359 84.9411 52.7422Z" fill="#372A69"/>
</svg>
