<svg width="128" height="128" viewBox="0 0 128 128" fill="none" xmlns="http://www.w3.org/2000/svg">
<g clip-path="url(#clip0_1443_591)">
<path d="M94.1321 24.9463H64.7656V126.099H94.1321V24.9463Z" fill="#FFE477"/>
<path d="M70.7337 24.9463H33.8672V126.099H70.7337V24.9463Z" fill="#FFF5CC"/>
<path d="M83.7085 1.90137H43.2832V13.4289H83.7085V1.90137Z" fill="#4E8FE3"/>
<path d="M94.0439 24.9456L83.7082 12.2031H43.2842L33.8672 24.9456H94.0439Z" fill="#52A2E7"/>
<path d="M83.7082 12.2031H71.0137V24.9456H94.0439L83.7082 12.2031Z" fill="#3C66B1"/>
<path d="M94.0434 57.3262H71.0137V83.1797H94.0434V57.3262Z" fill="#DDB200"/>
<path d="M51.77 82.9381C51.77 82.9381 60.5682 79.4482 62.3572 72.7299C64.1462 66.0114 58.248 58.6084 58.248 58.6084C58.248 58.6084 54.5402 60.0789 51.4492 62.9489L51.77 82.9381Z" fill="#FFE477"/>
<path d="M83.7097 1.90137H71.0137V12.2036H83.7097V1.90137Z" fill="#3C66B1"/>
<path d="M56.0422 68.8166C57.8312 75.5351 51.9329 82.9382 51.9329 82.9382C51.9329 82.9382 43.1347 79.4482 41.3457 72.7299C39.5567 66.0114 45.4549 58.6084 45.4549 58.6084C45.4549 58.6084 54.2532 62.0981 56.0422 68.8166Z" fill="#DDB200"/>
<path opacity="0.32" d="M94.0449 117.798H33.8672V126.1H94.0449V117.798Z" fill="#DDB200"/>
<path d="M95.2418 23.4048L85.6093 11.5295V1.901C85.6093 0.851 84.7581 0 83.7083 0H43.2843C42.2345 0 41.3833 0.851 41.3833 1.901V11.5772L32.3383 23.8162C32.3313 23.8258 32.3258 23.8358 32.319 23.8455C32.2973 23.8763 32.2768 23.9073 32.2568 23.9393C32.2428 23.9613 32.229 23.9833 32.2165 24.0058C32.199 24.0368 32.1828 24.068 32.1668 24.1C32.1543 24.1248 32.142 24.1497 32.1305 24.175C32.117 24.205 32.1055 24.2355 32.0935 24.2663C32.0825 24.2945 32.072 24.3225 32.0625 24.3512C32.053 24.3802 32.045 24.4093 32.037 24.4387C32.0285 24.4702 32.0198 24.5013 32.0128 24.533C32.0068 24.5605 32.0018 24.5885 31.997 24.6165C31.991 24.651 31.9853 24.6855 31.9813 24.72C31.9783 24.7463 31.976 24.7732 31.974 24.7997C31.9713 24.8365 31.9693 24.873 31.9685 24.9095C31.9683 24.9218 31.9668 24.9332 31.9668 24.9457V126.099C31.9668 127.149 32.818 128 33.8678 128H70.7338H94.1323C95.182 128 96.0333 127.149 96.0333 126.099V24.946C96.0328 24.311 95.7203 23.75 95.2418 23.4048ZM44.2433 14.1042H69.1128V23.045H37.6358L44.2433 14.1042ZM82.8025 14.1042L90.0545 23.0448H72.9148V14.1042H82.8025ZM72.6343 55.4255V26.847H92.2308V55.4255H72.6343ZM92.143 59.2275V81.279H72.9135V59.2275H92.143ZM70.5238 10.3022V3.802H74.9078V10.3022H70.5238ZM66.7218 10.3022H62.3375V3.802H66.7218V10.3022ZM58.5355 10.3022H54.1515V3.802H58.5355V10.3022ZM35.7683 26.847H68.8323V117.104C58.2195 117.049 45.9583 116.923 35.7683 116.789V26.847ZM72.6343 85.081H92.2308V116.988C89.2211 117.126 81.7815 117.155 72.6343 117.121V85.081ZM81.8073 10.3022H78.7098V3.802H81.8073V10.3022ZM45.1853 3.802H50.3498V10.3022H45.1855L45.1853 3.802ZM35.7683 120.591C40.2925 120.649 52.1033 120.792 63.821 120.873C65.5625 120.886 67.2325 120.896 68.8323 120.904V124.198H35.7683V120.591ZM72.6343 124.198V120.921C74.8588 120.929 76.92 120.934 78.8108 120.934C80.9283 120.934 82.834 120.928 84.5186 120.918C87.5068 120.9 89.8323 120.865 91.43 120.813C91.7165 120.804 91.9798 120.796 92.2308 120.786V124.198H72.6343V124.198Z" fill="#372A69"/>
<path d="M60.5361 57.4236C60.0144 56.7691 59.1261 56.5324 58.3483 56.8411C58.2046 56.8981 55.2113 58.1014 52.2501 60.4484C49.3198 58.1224 46.3741 56.9279 46.1553 56.8411C45.3773 56.5326 44.4891 56.7689 43.9676 57.4236C43.7023 57.7564 37.4961 65.6624 39.5081 73.2189C41.5201 80.7754 50.8356 84.5484 51.2313 84.7051C51.4591 84.7954 51.6966 84.8389 51.9316 84.8389C52.0386 84.8389 52.1446 84.8269 52.2493 84.8091C52.3553 84.8274 52.4626 84.8394 52.5713 84.8394C52.8046 84.8394 53.0418 84.7961 53.2716 84.7051C53.6673 84.5481 62.9829 80.7754 64.9949 73.2189C67.0074 65.6624 60.8014 57.7566 60.5361 57.4236ZM43.1823 72.2409C42.0501 67.9881 44.6748 63.1839 46.0993 60.9944C48.7848 62.3676 53.1461 65.3304 54.2049 69.3061C55.0244 72.3834 53.8763 75.7489 52.6393 78.2044L51.0491 72.2314C50.7791 71.2169 49.7376 70.6124 48.7231 70.8836C47.7083 71.1536 47.1048 72.1951 47.3751 73.2096L48.9663 79.1856C46.5758 77.5864 43.9686 75.1931 43.1823 72.2409ZM61.3216 72.2409C60.6469 74.7749 58.7178 76.8139 56.7764 78.3014C57.9716 75.4326 58.8146 71.8429 57.8786 68.3276C57.3441 66.3201 56.2921 64.5826 55.0308 63.1059C56.2806 62.1686 57.5171 61.4624 58.4106 61.0041C59.8376 63.1994 62.4519 67.9949 61.3216 72.2409Z" fill="#372A69"/>
</g>
<defs>
<clipPath id="clip0_1443_591">
<rect width="128" height="128" fill="white"/>
</clipPath>
</defs>
</svg>
