<svg width="104" height="86" viewBox="0 0 104 86" fill="none" xmlns="http://www.w3.org/2000/svg">
<g clip-path="url(#clip0_1443_525)">
<path d="M73.5474 74.1094V83.0902C73.5474 83.9712 72.6835 84.6839 71.6201 84.6839H32.3804C31.317 84.6839 30.4531 83.9713 30.4531 83.0902V74.1094H73.5474Z" fill="#BD391E"/>
<path d="M34.2735 83.0902V74.1094H30.4531V83.0902C30.4531 83.9712 31.317 84.6839 32.3804 84.6839H36.2008C35.1374 84.6839 34.2735 83.9713 34.2735 83.0902Z" fill="#8C2B17"/>
<path d="M96.2306 33.1774C96.1684 33.3107 96.0124 33.3976 95.8394 33.3976H51.936V33.4256H8.03494C7.86147 33.4256 7.70568 33.3386 7.64332 33.2046C7.16414 32.1744 5.5885 27.7951 12.0826 25.4283C12.2405 25.3707 12.3434 25.2417 12.3373 25.0992C12.2853 23.8739 12.366 18.167 18.1742 16.1273C19.8991 15.5181 22.128 15.2358 25.0093 15.4896C25.2577 15.5116 25.4722 15.348 25.47 15.1415C25.4499 13.31 25.9884 5.80782 36.3551 7.82412C36.5438 7.86074 36.7394 7.78952 36.828 7.64691C37.691 6.25395 42.4602 -0.492869 51.6852 3.60675C51.8367 3.67411 52.0226 3.65899 52.1552 3.56846C61.2587 -2.64707 66.1434 5.78044 67.0388 7.55016C67.1268 7.72384 67.3658 7.8043 67.5783 7.73661C78.4189 4.27208 79.894 12.4807 80.0874 14.3249C80.1079 14.5205 80.3189 14.6611 80.5552 14.6403C93.1146 13.529 91.8896 23.3043 91.5743 25.0431C91.5461 25.1988 91.6503 25.3487 91.8242 25.4127C93.1437 25.8973 94.1274 26.465 94.854 27.0707C97.6833 29.4295 96.6106 32.3604 96.2306 33.1774Z" fill="#F7EDE3"/>
<path d="M15.5626 26.3281C15.5626 26.3281 14.9441 20.2635 20.7043 18.255C22.1555 17.746 24.0104 17.4971 26.3825 17.6671C26.7871 17.696 27.1414 17.4413 27.1499 17.1055C27.2009 15.1536 28.0554 9.42903 36.4644 10.9181C36.7941 10.9765 37.1258 10.8285 37.2448 10.5679C38.0939 8.71012 41.9021 1.98346 51.9363 3.72026C51.9367 3.69406 51.9391 3.67004 51.9395 3.64417C51.8536 3.65324 51.7648 3.64182 51.6852 3.60655C42.4605 -0.493412 37.6911 6.25357 36.828 7.64671C36.7395 7.78948 36.5441 7.8607 36.3551 7.82391C25.9886 5.80778 25.45 13.31 25.4701 15.1413C25.4723 15.3478 25.2576 15.5114 25.0094 15.4894C22.1282 15.2354 19.8991 15.5179 18.1742 16.1271C12.366 18.1668 12.2854 23.8737 12.3374 25.099C12.3435 25.2415 12.2407 25.3705 12.0827 25.4281C5.58835 27.7949 7.1642 32.1744 7.64337 33.2044C7.70553 33.3382 7.86133 33.4254 8.035 33.4254H11.5019C11.5023 33.4256 8.73009 28.663 15.5626 26.3281Z" fill="#DBD2CA"/>
<path d="M51.9365 33.4014H50.5215V33.4259H51.9365V33.4014Z" fill="#DBD2CA"/>
<path d="M5.41783 31.5293H98.5563C99.7086 31.5293 100.663 32.2657 100.731 33.2117C101.283 40.8862 100.571 77.9172 52.2092 77.9172C3.88261 77.9172 2.78025 40.9324 3.24195 33.2286C3.29883 32.2756 4.25779 31.5293 5.41783 31.5293Z" fill="#7FB2F0"/>
<path d="M7.1838 33.2288C7.24088 32.2758 8.19984 31.5293 9.35989 31.5293H5.41803C4.25799 31.5293 3.29903 32.2758 3.24195 33.2288C2.78025 40.9325 3.88281 77.9173 52.2092 77.9173C52.8756 77.9173 53.5315 77.9091 54.1799 77.8952C7.79602 76.9014 6.7284 40.8262 7.1838 33.2288Z" fill="#5F95D4"/>
<path d="M94.8342 58.4056C90.8164 65.0943 84.1795 71.3775 73.2999 74.9247C67.9916 76.6569 61.6773 77.7381 54.1596 77.896C54.1576 77.8944 54.1576 77.8944 54.1553 77.896C53.5165 77.9101 52.8669 77.917 52.209 77.917C43.6747 77.917 36.6132 76.7639 30.7721 74.821C20.024 71.2476 13.4104 65.0029 9.36719 58.3616C9.90628 58.2615 10.4964 58.207 11.148 58.207C11.982 58.207 12.7143 58.2982 13.3681 58.4563C18.0587 59.5936 18.791 64.2324 24.7615 64.2324C31.5702 64.2324 31.5702 58.2072 38.3769 58.2072C45.1857 58.2072 45.1857 64.2324 51.9924 64.2324C58.8012 64.2324 58.8012 58.2072 65.6059 58.2072C72.4169 58.2072 72.4169 64.2324 79.2236 64.2324C86.0304 64.2324 86.0304 58.2072 92.8371 58.2072C93.5779 58.2072 94.2401 58.2793 94.8342 58.4056Z" fill="#F75534"/>
<path d="M54.1787 77.8943C54.1744 77.8943 54.1681 77.8943 54.1596 77.896C54.1576 77.8943 54.1576 77.8943 54.1553 77.896C53.5165 77.9101 52.8669 77.917 52.209 77.917C43.6747 77.917 36.6132 76.7639 30.7721 74.821C20.024 71.2476 13.4104 65.0029 9.36719 58.3616C9.90628 58.2615 10.4964 58.207 11.148 58.207C11.982 58.207 12.7143 58.2982 13.3681 58.4563C19.4532 68.3853 31.3072 77.4047 54.1787 77.8943Z" fill="#BD391E"/>
<path d="M5.57546 30.2148H5.41987C3.4071 30.2148 1.75285 31.5108 1.65392 33.1655C1.49325 35.8479 1.25986 46.8482 7.07656 57.4404L7.03228 57.4486L7.94919 58.9549C8.21833 59.3972 8.49681 59.8312 8.78139 60.2597C8.79602 60.2819 8.81024 60.3039 8.82486 60.3261C8.94795 60.5105 9.07349 60.6931 9.19942 60.875C9.22867 60.9173 9.25731 60.9598 9.28717 61.0021C9.41433 61.1842 9.54352 61.3643 9.67352 61.5437C9.70256 61.5836 9.73121 61.624 9.76046 61.6639C9.89696 61.8505 10.0353 62.0355 10.1748 62.2192C10.1978 62.2495 10.2205 62.2795 10.2437 62.3096C10.3934 62.5053 10.5447 62.6993 10.6977 62.8916C10.7105 62.9076 10.7231 62.9235 10.7359 62.9397C13.2703 66.1143 16.2893 68.8401 19.7756 71.1041C19.7819 71.1082 19.7884 71.1124 19.7946 71.1164C20.6931 71.6991 21.6216 72.2517 22.5819 72.7731C22.6603 72.8156 22.7396 72.8572 22.8184 72.8992C23.0375 73.0165 23.2583 73.1325 23.4808 73.2466C23.5963 73.306 23.7127 73.3648 23.8295 73.4235C24.0184 73.5182 24.2088 73.6116 24.4001 73.7041C24.5319 73.768 24.6636 73.8321 24.7964 73.8949C24.9813 73.9821 25.1683 74.0673 25.3552 74.1524C25.6008 74.2645 25.8482 74.3743 26.0972 74.4825C26.2748 74.5596 26.4517 74.6374 26.631 74.7126C26.8138 74.7894 26.9989 74.8636 27.1833 74.9385C27.3206 74.9941 27.458 75.0502 27.5963 75.1048C27.7872 75.1801 27.9798 75.2542 28.1728 75.3276C28.3066 75.3784 28.4411 75.4287 28.5758 75.4786C28.6733 75.5147 28.7693 75.5523 28.8674 75.5877C28.8658 75.6257 28.8624 75.6635 28.8624 75.7016V83.0902C28.8624 84.6947 30.4411 86 32.3811 86H71.6195C73.5597 86 75.1382 84.6947 75.1382 83.0902V75.7213C75.2048 75.6976 75.2714 75.6737 75.3379 75.6499C75.3765 75.6359 75.415 75.6223 75.4536 75.6084C75.7591 75.4977 76.062 75.3847 76.3624 75.2688C76.3797 75.262 76.3968 75.2558 76.414 75.2491C82.0034 73.0904 86.7515 70.0681 90.617 66.2154C90.6428 66.1895 90.669 66.1638 90.6945 66.138C90.8329 65.9992 90.97 65.8596 91.1061 65.7189C91.1674 65.6554 91.2286 65.5914 91.2895 65.5276C91.3996 65.4118 91.5099 65.2961 91.6186 65.1789C91.7252 65.0643 91.8302 64.9482 91.9352 64.8322C92.0015 64.7589 92.0685 64.6864 92.1343 64.6126C93.7843 62.7614 95.2458 60.746 96.5137 58.5713L97.1357 57.5364L97.0985 57.5285C98.2183 55.4644 99.1726 53.2651 99.9554 50.9332C100.191 50.2328 99.6946 49.5072 98.8476 49.3127C98.0012 49.1185 97.1233 49.5283 96.8878 50.2288C96.1509 52.4231 95.1802 54.6942 93.908 56.9413C93.5578 56.9109 93.2009 56.8929 92.8365 56.8929C88.7427 56.8929 86.6838 58.7151 84.8677 60.3227C83.2299 61.7726 81.936 62.918 79.2228 62.918C77.091 62.918 75.8189 62.216 74.4571 61.0838C73.8372 60.5684 72.8293 60.5663 72.2061 61.0787C71.5827 61.5914 71.58 62.4248 72.2 62.9403C73.7523 64.231 75.8008 65.5506 79.2233 65.5506C83.3187 65.5506 85.3777 63.7281 87.1943 62.12C88.7165 60.7725 89.942 59.6888 92.2848 59.5428C86.9824 67.2721 77.6535 74.2279 61.3007 76.1052C61.2767 76.1081 61.2525 76.1106 61.2286 76.1133C60.8682 76.1545 60.5042 76.1926 60.137 76.2285C60.05 76.2369 59.9623 76.2448 59.8751 76.2531C59.5564 76.2833 59.2359 76.3119 58.9117 76.3382C58.7773 76.3491 58.6414 76.3585 58.5061 76.369C58.2176 76.391 57.9286 76.4123 57.6361 76.4311C57.4695 76.4419 57.3011 76.4506 57.1338 76.4602C56.8632 76.4758 56.593 76.4919 56.3188 76.5048C56.1393 76.5134 55.9579 76.5196 55.7771 76.527C55.5073 76.5381 55.2386 76.55 54.9654 76.5586C54.8082 76.5635 54.6487 76.566 54.4907 76.57C53.742 76.5893 52.9835 76.6014 52.2094 76.6014C51.8868 76.6014 51.5675 76.5976 51.2482 76.594C51.105 76.5925 50.9602 76.5929 50.8174 76.5905C50.5822 76.5868 50.3502 76.5798 50.1166 76.5744C49.8781 76.5688 49.6384 76.5643 49.4016 76.5569C49.2042 76.5505 49.0094 76.5416 48.8133 76.5341C48.542 76.5235 48.2698 76.5136 48.0004 76.5003C47.8268 76.4919 47.6553 76.4812 47.4825 76.4717C47.1934 76.4558 46.9044 76.4397 46.6178 76.4209C46.4589 76.4103 46.3017 76.3982 46.1439 76.3868C45.8473 76.3654 45.5514 76.3433 45.2576 76.3187C45.1061 76.3061 44.9558 76.2919 44.8051 76.2784C44.5103 76.2519 44.2162 76.2243 43.9245 76.1946C43.7724 76.179 43.6211 76.1625 43.4697 76.1461C43.1862 76.1152 42.9038 76.0832 42.6233 76.0493C42.4626 76.0298 42.3026 76.0097 42.1427 75.9892C41.8797 75.9554 41.618 75.9203 41.3576 75.884C41.1809 75.8593 41.0044 75.8338 40.8287 75.8079C40.5953 75.7733 40.3631 75.7372 40.1316 75.7003C39.9315 75.6684 39.7314 75.6361 39.5327 75.6023C39.338 75.5694 39.1444 75.535 38.951 75.5004C38.7186 75.4587 38.4862 75.4169 38.2561 75.3727C38.1123 75.3454 37.9695 75.3166 37.8265 75.2881C37.5511 75.2333 37.2762 75.1782 37.004 75.1199C36.925 75.1031 36.847 75.0853 36.7682 75.0682C32.2219 74.0767 28.1271 72.6066 24.5011 70.6614C24.4682 70.6436 24.4357 70.6259 24.4028 70.6083C24.1405 70.4667 23.8807 70.3222 23.6234 70.1754C23.5874 70.1549 23.5512 70.1349 23.5153 70.1143C23.2386 69.9554 22.965 69.7936 22.6941 69.629C22.639 69.5956 22.5852 69.5615 22.5305 69.5277C22.3276 69.4031 22.1267 69.2768 21.9271 69.1488C21.8314 69.0873 21.7359 69.0257 21.6409 68.9634C21.4753 68.855 21.3114 68.7453 21.1485 68.6348C21.055 68.5715 20.9606 68.509 20.8682 68.4448C20.6429 68.2893 20.4201 68.1314 20.1995 67.9715C20.0902 67.8922 19.9825 67.8114 19.8743 67.7311C19.7447 67.6349 19.6153 67.5382 19.4871 67.4404C19.3719 67.3525 19.257 67.264 19.1432 67.1748C19.0148 67.0744 18.8877 66.9724 18.7609 66.8705C18.6421 66.7749 18.5231 66.6793 18.4055 66.5822C18.216 66.4255 18.0279 66.267 17.8422 66.1067C17.7197 66.0012 17.5991 65.8942 17.4782 65.7871C17.4065 65.7234 17.3344 65.6598 17.2633 65.5958C17.1457 65.4898 17.0295 65.3824 16.9133 65.2751C16.8386 65.2059 16.764 65.1367 16.6905 65.0672C16.5769 64.9602 16.464 64.8522 16.3519 64.7435C16.2806 64.6743 16.2097 64.6047 16.139 64.5355C16.025 64.423 15.9115 64.3101 15.799 64.1962C15.737 64.1336 15.6759 64.0706 15.6147 64.0076C15.4951 63.8843 15.3755 63.7609 15.2574 63.6359C15.2119 63.5879 15.1675 63.5393 15.1224 63.4911C14.9903 63.3497 14.8587 63.2076 14.7291 63.064C14.7102 63.043 14.6917 63.0218 14.6728 63.0008C13.7003 61.9172 12.7945 60.7712 11.9564 59.5621C14.1374 59.7684 15.3285 60.8222 16.7955 62.121C18.6118 63.7286 20.6705 65.5507 24.7643 65.5507C28.8597 65.5507 30.9188 63.7283 32.7356 62.1201C34.3732 60.6706 35.6669 59.5255 38.3782 59.5255C41.0925 59.5255 42.3869 60.6709 44.0255 62.121C45.8418 63.7284 47.9007 65.5504 51.9941 65.5504C56.0895 65.5504 58.1486 63.7279 59.9651 62.1198C61.6027 60.6702 62.8962 59.5252 65.6077 59.5252C66.4869 59.5252 67.1996 58.9359 67.1996 58.2088C67.1996 57.4818 66.4869 56.8924 65.6077 56.8924C61.514 56.8924 59.4553 58.7146 57.6389 60.3222C56.0011 61.7721 54.7072 62.9175 51.9941 62.9175C49.2828 62.9175 47.9895 61.7726 46.3517 60.3232C44.5345 58.7151 42.475 56.8923 38.3782 56.8923C34.2844 56.8923 32.2255 58.7144 30.4094 60.322C28.7712 61.7719 27.4775 62.9173 24.7645 62.9173C22.053 62.9173 20.7597 61.7724 19.1219 60.3227C17.3053 58.7147 15.2461 56.8921 11.1508 56.8921C10.8573 56.8921 10.5701 56.9047 10.2872 56.9238C4.44609 46.7377 4.67866 35.8958 4.83426 33.2958C4.84929 33.0444 5.10706 32.8473 5.42068 32.8473H21.6508C22.5299 32.8473 23.2427 32.2581 23.2427 31.531C23.2427 30.804 22.5299 30.2146 21.6508 30.2146H8.78261C9.06942 28.7318 10.3221 27.5593 12.5185 26.716C12.8012 26.6721 13.0702 26.5658 13.292 26.3993C13.5569 26.2478 13.7574 26.0459 13.8648 25.8098C14.734 24.8577 15.2117 24.4653 16.0953 24.4653C17.0216 24.4653 17.501 24.8942 18.4522 25.9467C19.4197 27.0176 20.7447 28.4843 23.3573 28.4843C25.9703 28.4843 27.2953 27.0175 28.2627 25.9463C29.2132 24.894 29.6923 24.4653 30.6176 24.4653C31.543 24.4653 32.022 24.8938 32.9724 25.946C33.0547 26.0372 33.1373 26.1287 33.2202 26.2193C33.7518 26.7986 34.7506 26.9113 35.4505 26.4722C36.1509 26.033 36.2878 25.2071 35.7566 24.6281C35.6782 24.5428 35.6007 24.4566 35.5229 24.3706C34.5554 23.2996 33.2304 21.8329 30.6174 21.8329C28.0044 21.8329 26.6794 23.2998 25.7119 24.3709C24.7615 25.4233 24.2823 25.8519 23.3571 25.8519C22.432 25.8519 21.9531 25.4234 21.0024 24.3713C20.0347 23.3 18.7093 21.8329 16.0953 21.8329C15.4207 21.8329 14.8335 21.9319 14.3147 22.0955C14.6799 20.8569 15.3791 19.4852 16.7069 18.4562C18.6064 16.9843 21.4922 16.4421 25.2849 16.8441C25.7582 16.8933 26.236 16.7656 26.5831 16.493C26.6061 16.4749 26.6264 16.4551 26.6479 16.4361C26.7155 16.3835 26.7795 16.3262 26.837 16.2624C26.9183 16.1719 26.9991 16.0808 27.0797 15.9894C28.005 14.9443 28.4695 14.5185 29.3531 14.5185C30.2375 14.5185 30.7023 14.9443 31.6279 15.9896C32.58 17.065 33.8836 18.5375 36.4698 18.5375C39.056 18.5375 40.3599 17.0646 41.3117 15.9891C42.237 14.944 42.7015 14.5184 43.5851 14.5184C44.4687 14.5184 44.9332 14.944 45.8585 15.9889C45.9391 16.0802 46.02 16.1715 46.1014 16.2622C46.6261 16.8456 47.623 16.9667 48.3285 16.533C49.0339 16.0991 49.1806 15.2746 48.6559 14.6912C48.5793 14.6061 48.5032 14.5199 48.427 14.4339C47.4752 13.3585 46.1713 11.8858 43.5849 11.8858C40.9985 11.8858 39.6948 13.3587 38.7428 14.4342C37.8176 15.4793 37.353 15.905 36.4696 15.905C35.5862 15.905 35.1217 15.4793 34.1964 14.4344C33.2444 13.3589 31.9401 11.8858 29.3529 11.8858C28.6832 11.8858 28.1009 11.9861 27.5869 12.151C27.9245 11.2781 28.4758 10.4058 29.3744 9.78131C30.8877 8.72982 33.2158 8.52373 36.2935 9.16906C37.0418 9.32595 37.8202 9.01268 38.1377 8.43101C38.1566 8.39624 40.0779 4.94363 43.8522 3.91348C46.0334 3.31803 48.4926 3.64053 51.1603 4.87241C51.7406 5.14049 52.4615 5.08221 52.9677 4.72594C55.432 2.992 57.6897 2.33289 59.6771 2.76575C63.5724 3.61433 65.673 8.27009 65.6931 8.31494C65.8405 8.65205 66.1479 8.92484 66.5442 9.0703C66.9407 9.21576 67.3912 9.2213 67.7926 9.08541C71.0066 7.99781 73.5311 7.92609 75.295 8.87142C78.3256 10.496 78.5225 14.6826 78.5239 14.7218C78.5363 15.0935 78.7382 15.4437 79.08 15.6856C79.4217 15.9276 79.8712 16.0378 80.3175 15.9913C83.8931 15.6124 86.5179 16.1342 88.1181 17.5422C89.5768 18.8253 90.0433 20.6713 90.1425 22.2127C89.5071 21.912 88.7492 21.7152 87.8211 21.7152C85.2664 21.7152 83.988 23.1953 83.0548 24.2759C82.1598 25.3122 81.7123 25.7342 80.8789 25.7342C80.0455 25.7342 79.598 25.3122 78.703 24.2762C77.7695 23.1955 76.4908 21.7152 73.9351 21.7152C71.3802 21.7152 70.1019 23.1953 69.1685 24.276C69.0942 24.362 69.0201 24.4479 68.9453 24.5334C68.4292 25.1218 68.5876 25.9448 69.2991 26.3716C70.0111 26.7986 71.0062 26.6674 71.5222 26.0788C71.6016 25.9883 71.6806 25.8973 71.7592 25.8059C72.6542 24.7697 73.1015 24.3476 73.9351 24.3476C74.7695 24.3476 75.2172 24.7697 76.1126 25.8062C77.0459 26.8868 78.3244 28.3666 80.8789 28.3666C83.4336 28.3666 84.7121 26.8864 85.6455 25.8057C86.5404 24.7695 86.9877 24.3476 87.8211 24.3476C88.6519 24.3476 89.0978 24.7685 89.9899 25.8019C90.0701 25.8949 90.1506 25.9881 90.2316 26.0804C90.2383 26.0881 90.2463 26.095 90.2534 26.1027C90.2655 26.1158 90.2781 26.1286 90.2909 26.1412C90.3098 26.1603 90.3285 26.1795 90.3484 26.1974C90.3539 26.2025 90.3604 26.207 90.3659 26.212C90.423 26.2621 90.4837 26.308 90.5481 26.3489C90.5485 26.3493 90.5491 26.3496 90.5495 26.3499C90.5796 26.3691 90.6107 26.3866 90.6421 26.4039C90.6509 26.4086 90.6592 26.4134 90.6677 26.4183C90.6982 26.4343 90.7295 26.4491 90.7612 26.4632C90.7717 26.4679 90.7823 26.4727 90.7933 26.4776C90.8248 26.4909 90.8562 26.5031 90.8885 26.5144C90.8952 26.5169 90.9017 26.5198 90.9086 26.5221C93.4004 27.3806 94.8034 28.6199 95.0979 30.2151H30.4537C29.5745 30.2151 28.8618 30.8043 28.8618 31.5315C28.8618 32.2584 29.5745 32.8478 30.4537 32.8478H98.5547C98.8655 32.8478 99.1228 33.043 99.1407 33.2923C99.2447 34.7397 99.3954 38.6404 98.5494 43.5884C98.4263 44.3082 99.0322 44.9744 99.9026 45.0758C99.9782 45.0847 100.053 45.0889 100.127 45.0889C100.908 45.0889 101.589 44.6141 101.702 43.9566C102.588 38.7729 102.428 34.6624 102.319 33.1357C102.201 31.4979 100.548 30.2151 98.5549 30.2151H98.3018C98.1017 28.4163 97.0061 26.1296 93.2549 24.5235C93.4827 22.6078 93.5412 18.4801 90.4496 15.7498C88.3899 13.9305 85.3946 13.096 81.5291 13.2589C81.1771 11.4506 80.1318 8.33594 77.0425 6.67119C74.6643 5.38993 71.6432 5.23405 68.0453 6.20508C66.9673 4.39068 64.5137 1.10386 60.5022 0.223534C57.7043 -0.390057 54.7635 0.260991 51.7487 2.15904C48.61 0.902465 45.6133 0.654039 42.8258 1.42233C39.1342 2.43972 36.8653 4.9873 35.8519 6.39421C32.296 5.84294 29.4321 6.30334 27.3267 7.76669C24.756 9.55304 24.082 12.3653 23.9234 14.1025C19.9775 13.9436 16.8231 14.7591 14.5302 16.536C11.2678 19.0643 10.7734 22.7406 10.7399 24.5014C6.90756 26.1019 5.7861 28.4071 5.57546 30.2148ZM71.619 83.3671H32.3809C32.1961 83.3671 32.0455 83.2426 32.0455 83.0897V76.6233C32.2192 76.674 32.3927 76.7245 32.5676 76.7736C32.6358 76.7927 32.7051 76.8111 32.7738 76.8299C33.1183 76.9253 33.4646 77.0185 33.8142 77.1084C33.8777 77.1246 33.9419 77.1403 34.0059 77.1564C34.3658 77.2476 34.7284 77.3361 35.0939 77.4215C35.1459 77.4335 35.1983 77.4451 35.2503 77.4571C35.6309 77.5447 36.0142 77.6292 36.4006 77.7105C36.4406 77.7189 36.481 77.7272 36.5214 77.7354C36.9222 77.8187 37.326 77.8987 37.7331 77.9749C37.7623 77.9803 37.7918 77.9858 37.8212 77.9912C38.2399 78.0691 38.6615 78.1434 39.0867 78.2139C39.1086 78.2176 39.1304 78.2212 39.1523 78.2248C39.5831 78.2959 40.0174 78.3633 40.4551 78.4269C40.4755 78.4299 40.4958 78.433 40.5161 78.4358C40.9522 78.4988 41.3918 78.5579 41.8348 78.6135C41.8598 78.6167 41.8847 78.6199 41.9099 78.6229C42.3442 78.677 42.7815 78.7272 43.2225 78.7741C43.2589 78.778 43.2946 78.782 43.331 78.7859C43.7553 78.8302 44.1827 78.8712 44.6129 78.9088C44.6678 78.9137 44.7218 78.9189 44.7768 78.9236C45.1819 78.9584 45.5897 78.9896 46.0001 79.0183C46.0817 79.024 46.1628 79.0306 46.2446 79.0363C46.6198 79.0615 46.9982 79.0833 47.3781 79.1037C47.4955 79.11 47.6119 79.1176 47.7297 79.1233C48.065 79.1398 48.4032 79.153 48.7418 79.1658C48.9037 79.172 49.0644 79.1797 49.2271 79.185C49.506 79.1939 49.7877 79.1996 50.0689 79.2058C50.2905 79.2108 50.5105 79.2177 50.7335 79.2212C50.8866 79.2238 51.0424 79.2234 51.1964 79.2249C51.5338 79.2286 51.8706 79.2332 52.211 79.2332C52.3656 79.2332 52.5175 79.2301 52.6713 79.2295C52.9807 79.228 53.2902 79.2264 53.5972 79.2221C53.7962 79.2191 53.9934 79.2139 54.1915 79.2096C54.4673 79.2039 54.7434 79.1977 55.0172 79.1895C55.2065 79.1838 55.3944 79.1766 55.5827 79.1695C55.8695 79.1589 56.1553 79.1473 56.4397 79.1342C56.6099 79.1262 56.7797 79.1178 56.9491 79.1085C57.2597 79.0922 57.5687 79.0739 57.8764 79.0543C58.0176 79.0452 58.1591 79.0363 58.2997 79.0267C58.6568 79.0022 59.0115 78.9748 59.3643 78.9456C59.4551 78.938 59.5467 78.9313 59.6373 78.9236C61.0129 78.8054 62.3584 78.6532 63.6734 78.4671C63.752 78.456 63.8296 78.4439 63.9078 78.4326C64.2537 78.3824 64.598 78.3303 64.9399 78.2754C65.0591 78.2563 65.1777 78.2364 65.2966 78.2166C65.5929 78.1672 65.8879 78.1165 66.181 78.0638C66.323 78.0381 66.4649 78.0125 66.6061 77.986C66.8702 77.9366 67.1324 77.8854 67.394 77.833C67.5529 77.8012 67.7117 77.77 67.8696 77.7372C68.104 77.6885 68.3363 77.6373 68.5685 77.5861C68.7448 77.5473 68.9223 77.5095 69.0974 77.4693C69.2752 77.4287 69.4503 77.385 69.6266 77.343C70.1165 77.2258 70.6016 77.1037 71.0812 76.9757C71.1594 76.9548 71.2384 76.9352 71.3162 76.9138C71.5309 76.8556 71.7431 76.7948 71.9558 76.7341V83.0891C71.9544 83.2426 71.8039 83.3671 71.619 83.3671Z" fill="#372A69"/>
<path d="M54.5513 16.2231C54.6271 16.1326 54.7022 16.0416 54.7774 15.9502C55.6171 14.9308 56.0323 14.5157 56.7723 14.5157C57.5133 14.5157 57.9291 14.9309 58.769 15.9505C59.6676 17.0413 60.8982 18.5351 63.3952 18.5351C65.8922 18.5351 67.1229 17.041 68.0216 15.95C68.8613 14.9308 69.2765 14.5157 70.0165 14.5157C70.7567 14.5157 71.172 14.9308 72.0118 15.95C72.0869 16.0412 72.1621 16.1326 72.2378 16.2231C72.7381 16.8209 73.7296 16.9703 74.4527 16.5566C75.1756 16.1428 75.3562 15.3228 74.8559 14.7248C74.7846 14.6397 74.7137 14.5535 74.6431 14.4675C73.7444 13.3767 72.5139 11.8828 70.0165 11.8828C67.5194 11.8828 66.2887 13.3769 65.3901 14.4679C64.5504 15.4871 64.1352 15.9021 63.3952 15.9021C62.6552 15.9021 62.2398 15.4871 61.4003 14.468C60.5015 13.3771 59.2703 11.883 56.7725 11.883C54.2755 11.883 53.0447 13.3771 52.1461 14.468C52.0754 14.5539 52.0045 14.6399 51.9332 14.7254C51.4331 15.3232 51.6137 16.1432 52.3366 16.5569C53.0596 16.9703 54.051 16.8209 54.5513 16.2231Z" fill="black"/>
</g>
<defs>
<clipPath id="clip0_1443_525">
<rect width="104" height="86" fill="white"/>
</clipPath>
</defs>
</svg>
