<svg width="99" height="99" viewBox="0 0 99 99" fill="none" xmlns="http://www.w3.org/2000/svg">
<path d="M97.3689 55.0024C97.3689 34.1728 75.9285 17.2871 49.4804 17.2871C23.0324 17.2871 1.5918 34.1728 1.5918 55.0024C1.5918 75.832 23.0322 81.7134 49.4802 81.7134C75.9283 81.7134 97.3689 75.832 97.3689 55.0024Z" fill="#C9801F"/>
<path d="M60.4367 76.8799C33.9887 76.8799 12.5483 70.9983 12.5483 50.1689C12.5483 37.8026 20.1055 26.8262 31.7807 19.9482C14.0942 25.4924 1.5918 39.097 1.5918 55.0023C1.5918 75.8319 23.0322 81.7135 49.4802 81.7135C64.9679 81.7135 78.7357 79.6946 87.4892 73.8403C79.7918 76.0311 70.4757 76.8799 60.4367 76.8799Z" fill="#B76F18"/>
<path d="M91.3277 33.9469C90.7724 33.2517 89.7586 33.1376 89.0631 33.6932C88.3676 34.2483 88.2541 35.2623 88.8092 35.9578C93.3678 41.6667 95.7773 48.2521 95.7773 55.0021C95.7773 71.8918 80.6398 80.102 49.5001 80.102C18.3604 80.102 3.22252 71.8916 3.22252 55.0021C3.22252 42.4744 11.4447 31.4185 23.8986 24.9415C25.9503 25.0893 35.5707 26.1212 46.4949 32.7631C45.0892 33.7782 43.6728 34.8866 42.2582 36.0997C32.1778 44.7436 24.3911 56.6603 19.1139 71.5182C18.816 72.3568 19.2545 73.278 20.0931 73.576C20.2714 73.6394 20.4533 73.6694 20.6324 73.6694C21.2952 73.6694 21.9163 73.2573 22.1506 72.5968C25.9062 62.022 33.9134 45.3846 49.3686 34.6257C51.1342 35.8425 52.9183 37.2098 54.697 38.7505C55.0019 39.0146 55.3774 39.1438 55.7512 39.1438C56.2023 39.1438 56.6509 38.9554 56.9697 38.5873C57.5523 37.9146 57.4792 36.8971 56.8067 36.3145C55.2939 35.0041 53.7803 33.8125 52.2785 32.7266C56.56 30.1124 61.3621 27.9483 66.7464 26.4513C67.6037 26.2129 68.1057 25.3246 67.8673 24.4672C67.629 23.6099 66.7406 23.1083 65.8834 23.3463C61.5833 24.5419 55.7007 26.7477 49.4162 30.775C41.5459 25.7092 34.2425 23.467 29.4178 22.4782C35.4953 20.1847 42.3085 18.8981 49.5001 18.8981C63.4341 18.8981 76.4975 23.7383 85.3407 32.1774C85.9842 32.7917 87.0042 32.7681 87.6189 32.1241C88.2332 31.4802 88.2094 30.4604 87.5655 29.8459C78.1288 20.8406 64.2545 15.6758 49.5001 15.6758C36.3486 15.6758 23.9686 19.7216 14.6408 27.0677C5.19942 34.503 0 44.4236 0 55.0021C0 65.3507 5.03062 72.9628 14.9521 77.6268C23.1072 81.4608 34.408 83.3246 49.4999 83.3246C64.5918 83.3246 75.8926 81.4608 84.0477 77.627C93.9692 72.9628 98.9998 65.3505 98.9998 55.0019C98.9998 47.5137 96.3467 40.233 91.3277 33.9469Z" fill="#372A69"/>
<path d="M58.7018 40.2227C58.0643 40.8436 58.0512 41.8635 58.6716 42.501C66.4445 50.4811 72.579 60.8361 76.9052 73.2787C77.1367 73.9441 77.7601 74.3614 78.4271 74.3614C78.6025 74.3614 78.781 74.3326 78.9564 74.2716C79.7969 73.9795 80.2412 73.061 79.9491 72.2205C75.4666 59.3287 69.0846 48.5733 60.9804 40.2526C60.3593 39.6153 59.3395 39.6016 58.7018 40.2227Z" fill="#372A69"/>
</svg>
