<svg width="98" height="99" viewBox="0 0 98 99" fill="none" xmlns="http://www.w3.org/2000/svg">
<g clip-path="url(#clip0_1443_482)">
<path d="M59.6329 34.3901C64.9025 24.2915 63.4082 13.0345 56.2954 9.24684C49.1826 5.45921 39.1448 10.5753 33.8753 20.6739C28.6058 30.7725 30.1 42.0295 37.2128 45.8171C44.3256 49.6047 54.3634 44.4887 59.6329 34.3901Z" fill="#FF8D36"/>
<path opacity="0.2" d="M56.298 9.24702C55.4477 8.79417 54.5554 8.4701 53.6347 8.26514C57.3185 13.4404 57.3675 22.1122 53.2159 30.068C48.5763 38.9596 40.2405 43.9867 33.459 42.4768C34.4512 43.8709 35.7048 45.0139 37.2142 45.8177C44.3268 49.6054 54.3646 44.4893 59.6344 34.3907C64.9042 24.2921 63.4104 13.0347 56.298 9.24702Z" fill="#372A69"/>
<path d="M84.1427 36.0732C89.4122 25.9746 87.918 14.7176 80.8052 10.9299C73.6924 7.14231 63.6546 12.2584 58.385 22.357C53.1155 32.4556 54.6098 43.7126 61.7226 47.5002C68.8354 51.2878 78.8732 46.1718 84.1427 36.0732Z" fill="#69B551"/>
<path opacity="0.2" d="M80.9666 11.0239C83.9546 16.2719 83.7423 24.324 79.8658 31.7528C74.596 41.8514 64.5581 46.9675 57.4454 43.1798C57.3912 43.151 57.3405 43.1177 57.2871 43.0881C58.3609 44.9742 59.8443 46.5013 61.7245 47.5025C68.8371 51.2902 78.8751 46.1741 84.1448 36.0756C89.3745 26.0539 87.9401 14.895 80.9666 11.0239Z" fill="#372A69"/>
<path d="M18.5016 28.0658C21.5103 20.2994 15.1614 9.76439 9.70134 13.0246C4.24128 16.2849 10.3156 26.9834 18.5016 28.0658Z" fill="#8FE673"/>
<path d="M18.5006 28.0656C15.1917 20.4246 3.32817 17.5107 1.74945 23.7162C0.170732 29.9216 11.9545 33.1478 18.5006 28.0656Z" fill="#76CC5B"/>
<path d="M18.5005 28.0656C13.4696 21.4527 16.6634 9.54851 22.806 11.1435C28.9486 12.7386 26.0643 24.723 18.5005 28.0656Z" fill="#76CC5B"/>
<path d="M19.8451 28.947C19.8872 28.8812 19.9253 28.8132 19.9573 28.7422C19.9623 28.7314 19.9663 28.7202 19.9711 28.7092C20.0044 28.631 20.0333 28.5512 20.0543 28.4688L22.7097 18.0328C22.9302 17.1656 22.4134 16.2821 21.555 16.0594C20.6965 15.8361 19.822 16.3587 19.6015 17.2257L17.9104 23.8719L14.4542 17.9648C14.0034 17.194 13.0192 16.9384 12.2564 17.394C11.4935 17.8493 11.2407 18.8436 11.6914 19.6141L15.1478 25.5216L8.56881 23.8133C7.71036 23.59 6.83582 24.1126 6.61532 24.9796C6.39482 25.8469 6.91162 26.7303 7.77007 26.9531L18.0963 29.6344H18.0966L18.1008 29.6355C18.1426 29.6464 18.1845 29.6524 18.2262 29.6597C18.2503 29.664 18.2739 29.6705 18.2984 29.6736C18.2995 29.6738 18.3007 29.674 18.302 29.6742C18.369 29.6827 18.4354 29.687 18.5016 29.687C18.5051 29.687 18.5083 29.6862 18.5118 29.6862C18.5884 29.6858 18.6649 29.6785 18.7417 29.6667C18.7673 29.6628 18.7924 29.6564 18.8177 29.6514C18.8716 29.6404 18.925 29.627 18.9781 29.6102C19.0054 29.6015 19.0324 29.5922 19.0594 29.5822C19.1086 29.5636 19.157 29.5418 19.2049 29.518C19.2311 29.505 19.2575 29.4927 19.283 29.4781C19.2941 29.472 19.3056 29.4675 19.3169 29.4609C19.3701 29.4292 19.4202 29.3942 19.4683 29.3575C19.4707 29.3556 19.4736 29.3542 19.4761 29.3523C19.4818 29.3478 19.4866 29.342 19.4922 29.3376C19.55 29.2917 19.6036 29.2426 19.6537 29.1904C19.661 29.1829 19.6687 29.1759 19.6757 29.168C19.7286 29.1108 19.7758 29.0495 19.8193 28.986C19.8281 28.9735 19.8367 28.9605 19.8451 28.947Z" fill="#599944"/>
<path d="M23.5588 49.875C30.8411 49.875 36.7446 43.9113 36.7446 36.5547C36.7446 29.1981 30.8411 23.2344 23.5588 23.2344C16.2765 23.2344 10.373 29.1981 10.373 36.5547C10.373 43.9113 16.2765 49.875 23.5588 49.875Z" fill="#FF704D"/>
<path opacity="0.2" d="M23.5589 23.2349C22.4516 23.2349 21.3773 23.3745 20.3496 23.6343C26.0803 25.0824 30.3255 30.3168 30.3255 36.5546C30.3255 42.7924 26.0803 48.0268 20.3496 49.4749C21.3773 49.7344 22.4516 49.8744 23.5589 49.8744C30.841 49.8744 36.7441 43.911 36.7441 36.5546C36.7441 29.1985 30.841 23.2349 23.5589 23.2349Z" fill="#372A69"/>
<path d="M34.8061 59.9404C43.2606 59.9404 50.1142 53.1212 50.1142 44.7094C50.1142 36.2976 43.2606 29.4785 34.8061 29.4785C26.3517 29.4785 19.498 36.2976 19.498 44.7094C19.498 53.1212 26.3517 59.9404 34.8061 59.9404Z" fill="#FFC552"/>
<path opacity="0.2" d="M36.3818 29.5576C40.7687 32.2362 43.6956 37.0516 43.6956 42.5483C43.6956 50.9609 36.8418 57.7805 28.387 57.7805C27.8547 57.7805 27.3291 57.7533 26.8105 57.7005C29.1377 59.1213 31.875 59.9417 34.8054 59.9417C43.26 59.9417 50.1141 53.1221 50.1141 44.7094C50.1143 36.8268 44.0957 30.3428 36.3818 29.5576Z" fill="#372A69"/>
<path d="M52.8303 57.4789C61.5613 57.4789 68.6391 50.4363 68.6391 41.7487C68.6391 33.0612 61.5613 26.0186 52.8303 26.0186C44.0993 26.0186 37.0215 33.0612 37.0215 41.7487C37.0215 50.4363 44.0993 57.4789 52.8303 57.4789Z" fill="#9773BF"/>
<path opacity="0.2" d="M58.2032 26.9526C60.7007 29.7343 62.2208 33.4031 62.2208 37.4265C62.2208 46.114 55.1428 53.1565 46.4118 53.1565C44.5251 53.1565 42.7165 52.8262 41.0391 52.2232C43.9341 55.4474 48.1431 57.4791 52.8303 57.4791C61.5614 57.4791 68.6393 50.4365 68.6393 41.7491C68.6393 34.9392 64.289 29.1411 58.2032 26.9526Z" fill="#372A69"/>
<path d="M93.354 43.6132C93.354 40.3748 90.7553 37.7497 87.5498 37.7497C86.4865 37.7497 85.491 38.04 84.6341 38.544C83.8626 36.2206 81.6914 34.5458 79.1316 34.5458C78.0683 34.5458 77.0728 34.8358 76.2157 35.3401C75.4441 33.0167 73.273 31.3418 70.7131 31.3418C68.1533 31.3418 65.982 33.0167 65.2106 35.3401C64.3535 34.8358 63.358 34.5458 62.2947 34.5458C59.735 34.5458 57.5635 36.2206 56.7922 38.544C55.935 38.0398 54.9395 37.7497 53.8765 37.7497C50.6708 37.7497 48.0723 40.375 48.0723 43.6132V52.4247H93.3542V43.6132H93.354Z" fill="#8FE673"/>
<g opacity="0.2">
<path d="M87.5486 37.75C86.7933 37.75 86.0736 37.8987 85.4121 38.1644C87.557 39.0256 89.0739 41.1402 89.0739 43.6136V52.4252H93.353V43.6136C93.353 40.3749 90.7543 37.75 87.5486 37.75Z" fill="#372A69"/>
</g>
<path d="M50.1138 50.2637L8.65234 56.2201V91.0024H91.6855V56.2201L50.1138 50.2637Z" fill="#F2AE5D"/>
<path opacity="0.2" d="M8.65234 56.2201V62.6665H91.6855V56.2201L50.1138 50.2637L8.65234 56.2201Z" fill="#372A69"/>
<path d="M96.3956 44.3442H3.83398V56.1819H96.3956V44.3442Z" fill="#F2AE5D"/>
<path d="M68.1854 10.0131C66.2312 11.0091 64.3797 12.3447 62.6877 13.9552C61.4221 11.2371 59.5055 9.14497 57.046 7.83515C52.5736 5.45335 46.9956 6.04019 41.7425 9.44564C40.9966 9.92904 40.7799 10.9318 41.2588 11.6855C41.7377 12.4392 42.7299 12.6577 43.476 12.1741C47.7281 9.4178 52.1284 8.88142 55.5497 10.7032C57.7199 11.859 59.3451 13.8755 60.285 16.5642C60.3309 16.6956 59.4636 17.6296 59.3639 17.7661C58.3399 19.1701 57.4129 20.6978 56.6413 22.2766C56.5535 22.4566 55.6441 24.6445 55.5986 24.6375C50.3506 23.8194 44.9217 25.4107 41 29.0451C40.9753 29.0355 40.9504 29.0271 40.9255 29.0177C39.2406 28.3624 37.454 27.9861 35.6508 27.9002C35.632 27.8995 35.6133 27.8973 35.5943 27.8966C35.5918 27.8929 35.589 27.8894 35.5865 27.8857C35.4423 27.6817 35.2928 27.4832 35.1399 27.2879C35.1338 27.2799 35.1275 27.272 35.1213 27.2641C34.6407 26.6535 34.1188 26.0865 33.5599 25.5664C34.0194 24.1649 34.6019 22.7849 35.2974 21.4521C36.3795 19.3787 37.6933 17.4884 39.2031 15.8337C39.8037 15.1755 39.7624 14.1497 39.1106 13.5431C38.4589 12.9362 37.4437 12.9781 36.8432 13.6365C35.1451 15.4976 33.6697 17.6186 32.4583 19.9402C31.8422 21.1209 31.306 22.3359 30.8532 23.5709C29.4963 22.7934 28.0179 22.2354 26.466 21.9247C27.8295 18.8561 28.1369 15.6159 27.2059 13.208C26.4928 11.3634 25.0723 10.0806 23.2065 9.59627C22.7044 9.46575 22.1989 9.39981 21.7045 9.39981C19.578 9.39981 17.6789 10.6083 16.3446 12.7287C14.9533 11.4829 13.3988 10.8173 11.8196 10.8173C10.799 10.8173 9.81132 11.0979 8.88453 11.6515C6.50209 13.074 5.56516 15.7298 6.23221 18.7721C3.11727 18.9663 0.882024 20.6408 0.196598 23.335C-0.268519 25.163 0.0953442 26.9238 1.24895 28.4266C2.86021 30.5257 5.9252 31.9078 9.42678 32.1716C9.00033 33.5649 8.76968 35.0445 8.76968 36.5774C8.76968 38.732 9.22045 40.8224 10.0873 42.7464H3.83447C2.94825 42.7464 2.22991 43.4722 2.22991 44.3673V56.205C2.22991 57.1002 2.94845 57.8259 3.83447 57.8259H6.99362V90.9868C6.99362 91.8821 7.71216 92.6078 8.59818 92.6078H91.6312C92.5176 92.6078 93.2357 91.8819 93.2357 90.9868V57.8257H96.3951C97.2815 57.8257 97.9996 57.0998 97.9996 56.2048V44.3671C97.9996 43.4719 97.2815 42.7462 96.3951 42.7462H94.9048C94.4676 39.0374 91.3372 36.1515 87.55 36.1515C86.9614 36.1515 86.3782 36.2261 85.8105 36.3645C86.9256 34.133 87.7573 31.8061 88.2772 29.4373C88.4689 28.5635 87.9232 27.6976 87.0581 27.5037C86.1933 27.3105 85.3358 27.8614 85.144 28.7354C84.734 30.603 84.1074 32.4452 83.2767 34.227C83.2589 34.2148 83.2401 34.2045 83.2223 34.1925C82.0274 33.3855 80.5669 32.9485 79.1314 32.9477C78.4063 32.9477 77.6878 33.0556 76.9989 33.2648C75.6677 31.1071 73.3117 29.7437 70.713 29.7437C69.2307 29.7437 67.7483 30.213 66.5246 31.0564C64.4844 28.4598 61.789 26.5311 58.7432 25.4413C58.7122 25.4303 59.7844 23.1803 59.8885 22.9837C63.3373 16.4636 72.0446 8.12035 80.0605 12.3886C83.4323 14.1843 85.4782 18.088 85.6738 23.0989C85.7087 23.9936 86.4536 24.6897 87.3406 24.6547C88.2262 24.6193 88.9155 23.8656 88.8807 22.9709C88.6385 16.7728 85.9692 11.8706 81.5571 9.52066C77.6457 7.43702 72.8969 7.61221 68.1854 10.0131ZM34.7416 31.1224C34.7632 31.1224 34.7847 31.1208 34.8059 31.1208C36.047 31.1208 37.2712 31.2831 38.4687 31.6129C38.5106 31.6243 38.5527 31.6354 38.5946 31.6474C38.6214 31.6549 38.6474 31.6644 38.6742 31.6723C37.5868 33.1805 36.7586 34.8426 36.2087 36.5985C36.2018 36.6202 36.1957 36.642 36.189 36.6639C35.6163 38.5174 35.3583 40.4665 35.4314 42.4068C35.4335 42.4614 35.4358 42.5155 35.4385 42.57C35.4414 42.6288 35.4427 42.6876 35.4462 42.7466H21.2555C21.2645 42.6847 21.2725 42.6224 21.2825 42.5609C21.7409 39.7087 23.1433 37.0413 25.1958 35.0333C27.7558 32.5289 31.1441 31.1402 34.7416 31.1224ZM30.6815 27.3499C30.6947 27.3612 30.7062 27.3745 30.7198 27.3853C31.0329 27.6348 31.3302 27.9008 31.6148 28.1793C26.7142 29.1101 22.3714 32.2657 19.9505 36.6731C18.9732 38.4521 18.3189 40.4601 18.0487 42.4967C18.0391 42.5696 18.027 42.6418 18.0182 42.7149C18.0169 42.7255 18.015 42.7357 18.014 42.7464H13.7217C12.5794 40.8953 11.9794 38.7788 11.9794 36.5774C11.9794 32.5474 14.1176 28.7149 17.5108 26.6063C17.5282 26.5955 17.5449 26.5839 17.5621 26.5732C21.5112 24.1632 27.0687 24.2757 30.6815 27.3499ZM3.78527 26.4398C3.24704 25.7387 3.08989 24.9869 3.30465 24.1421C3.75618 22.3678 5.48113 21.9952 6.84892 21.9952C7.29968 21.9952 7.77743 22.0376 8.26877 22.1211C8.85926 22.2215 9.45741 21.9804 9.81763 21.4962C10.1777 21.0118 10.2406 20.3654 9.98071 19.8196C9.54086 18.8961 8.2793 15.7789 10.518 14.4424C10.9498 14.1849 11.3755 14.0594 11.8201 14.0594C13.0021 14.0594 14.322 14.9693 15.4415 16.5557C15.7895 17.0489 16.381 17.3051 16.9739 17.2197C17.5673 17.1346 18.0644 16.7223 18.2625 16.151C19.0247 13.9538 20.3115 12.6421 21.7049 12.6421C21.93 12.6421 22.1666 12.6738 22.408 12.7364C23.2836 12.9638 23.8753 13.5039 24.2171 14.3879C24.9205 16.2074 24.424 19.0979 23.017 21.6468C22.9718 21.6485 22.9272 21.6522 22.8821 21.6544C22.5111 21.6712 22.1406 21.7027 21.7721 21.7477L22.7113 18.0557C22.9318 17.1885 22.415 16.3051 21.5568 16.0823C20.6981 15.8592 19.8238 16.3816 19.6033 17.2487L18.2303 22.6447C18.2192 22.649 18.2083 22.6536 18.1972 22.6579C17.9254 22.765 17.6551 22.8787 17.3902 23.0023L14.4558 17.9869C14.005 17.2164 13.021 16.9606 12.2581 17.4163C11.4951 17.8717 11.2423 18.8659 11.693 19.6366L14.6363 24.6671C14.3997 24.8481 14.1689 25.0356 13.9438 25.2307L8.57062 23.8356C7.71178 23.6125 6.83763 24.135 6.61713 25.002C6.39663 25.8692 6.91343 26.7527 7.77169 26.9754L11.4953 27.9422C11.2939 28.2288 11.1029 28.5229 10.9219 28.8237C10.918 28.8299 10.9142 28.8363 10.9104 28.8425C10.8834 28.8877 10.8547 28.9318 10.8283 28.9771C7.81763 29.0233 4.97448 27.989 3.78527 26.4398ZM94.7907 45.988V54.5836H21.9781C21.0918 54.5836 20.3735 55.3095 20.3735 56.2046C20.3735 57.0998 21.092 57.8255 21.9781 57.8255H90.0266V71.9581C87.4505 71.9369 84.8376 71.9423 82.3824 71.9746C81.4962 71.9862 80.7874 72.7215 80.7991 73.6168C80.8106 74.5047 81.5265 75.2166 82.4031 75.2166C82.4102 75.2166 82.4173 75.2166 82.4247 75.2166C84.8659 75.1842 87.4648 75.1793 90.0268 75.2004V89.3659H10.2029V75.2141C32.1961 75.1776 53.6531 75.1785 75.7399 75.2166C75.7406 75.2166 75.7418 75.2166 75.7427 75.2166C76.6278 75.2166 77.3459 74.4925 77.3473 73.5984C77.3488 72.7032 76.6316 71.9763 75.7454 71.9746C53.6571 71.9363 32.1978 71.9355 10.2031 71.9721V57.8257H15.988C16.8742 57.8257 17.5926 57.0998 17.5926 56.2048C17.5926 55.3097 16.874 54.5838 15.988 54.5838H8.59818H5.43902V45.9882L94.7907 45.988ZM65.776 36.8799C66.7826 36.497 66.8626 35.2736 67.4923 34.5116C69.5636 32.0055 73.67 32.7926 74.6946 35.8783C74.7139 35.9359 74.7361 35.9923 74.7612 36.0471C74.9373 36.4293 75.2556 36.7298 75.6508 36.88C76.561 37.2264 77.4395 36.4477 78.3076 36.2721C79.8606 35.9579 81.496 36.5856 82.4588 37.8507C82.4741 37.8708 82.4917 37.8886 82.5078 37.9079C83.1098 38.6257 83.0895 39.7116 84.0689 40.0838C84.52 40.2551 85.0244 40.2128 85.4415 39.9676C86.0798 39.5919 86.8093 39.3935 87.55 39.3935C89.5638 39.3935 91.2508 40.8327 91.6566 42.7462H49.7712C49.8342 42.4494 49.9285 42.1671 50.0526 41.8911C51.0611 39.6464 53.8738 38.7259 55.9846 39.9674C56.3961 40.2093 56.9122 40.253 57.3572 40.0838C57.8089 39.9121 58.1601 39.5443 58.3135 39.0822C58.8879 37.352 60.488 36.1896 62.2947 36.1896C63.4623 36.1894 64.6366 37.3134 65.776 36.8799ZM64.083 33.1691C64.0507 33.161 64.0176 33.1552 63.985 33.1474C63.4317 33.0165 62.8632 32.9473 62.2947 32.9473C59.696 32.9473 57.34 34.3105 56.0089 36.4682C55.3203 36.2592 54.6015 36.1513 53.8767 36.1513C50.3226 36.1513 47.1212 38.9095 46.5613 42.4515C46.546 42.5491 46.5315 42.6478 46.5196 42.7458H38.6645C38.3507 42.7446 38.9079 39.4633 38.9552 39.1878C40.3174 31.2231 48.5908 26.1938 56.2505 28.0756C59.3176 28.8295 62.1362 30.6701 64.083 33.1691Z" fill="#372A69"/>
</g>
<defs>
<clipPath id="clip0_1443_482">
<rect width="98" height="99" fill="white"/>
</clipPath>
</defs>
</svg>
