<svg width="142" height="73" viewBox="0 0 142 73" fill="none" xmlns="http://www.w3.org/2000/svg">
<path d="M92.6747 27.82C92.5059 24.3891 91.012 21.0597 88.1999 17.8903C84.1248 13.2972 77.1858 9.01841 67.5756 5.17278C59.1198 1.78858 50.059 0 41.3735 0C31.8344 0 23.0006 2.15484 15.8229 6.23172C15.2779 6.51172 11.2508 8.66709 7.39181 13.0748C3.89802 17.0654 -0.0724078 23.6831 0.0141111 33.0717C0.00283742 33.1569 -0.00266833 46.904 0.00126435 46.9532C0.649107 55.5506 4.94673 62.1258 12.1026 65.4675C15.4797 67.0445 19.3852 67.8095 23.3621 67.8095C29.458 67.8093 35.7217 66.0115 40.5054 62.5833C53.084 53.5691 62.4052 50.8555 71.6742 53.5088C77.7576 55.2509 82.7515 54.9258 86.5172 52.5424C89.7858 50.4735 91.9126 46.9567 92.6679 42.3719C92.6855 42.2655 92.6865 27.9063 92.6747 27.82ZM88.7525 41.8853C88.3362 44.2699 87.2421 47.4186 84.409 49.2119C81.6347 50.968 77.7151 51.1384 72.7591 49.7195C67.2154 48.1317 61.6585 48.2329 55.77 50.0262C50.4926 51.6339 44.7485 54.6933 38.2093 59.3794C31.3908 64.2662 21.1124 65.3249 13.7703 61.8958C9.69609 59.9935 4.70605 55.844 3.95177 46.8856C5.08647 48.5444 6.4519 50.0171 8.04856 51.2708C12.0696 54.428 17.5216 56.1667 23.4002 56.1667C29.6237 56.1667 35.8573 54.2518 40.5028 50.9129C50.1617 43.9707 57.6619 40.8746 64.822 40.8746C67.1026 40.8746 69.3107 41.1903 71.5715 41.8395C74.1073 42.5675 76.4863 42.9367 78.6414 42.9369C82.8687 42.9369 86.3153 41.5338 88.7525 38.9306V41.8853ZM17.6354 9.7318C17.6684 9.71528 23.7436 6.00703 31.1273 4.88412L4.0493 35.1256C4.04563 35.0792 3.42217 23.5035 10.2579 15.785C13.854 11.7244 17.6016 9.74884 17.6354 9.7318ZM84.6348 19.8443C87.8333 23.164 89.1933 26.5959 88.6236 30.0624C87.9542 34.1375 85.679 38.9951 78.6411 38.9951C76.8541 38.9951 74.8416 38.6771 72.6592 38.0505C71.4621 37.7067 70.2532 37.4451 69.0404 37.2597L84.6348 19.8443ZM64.0325 36.9438C56.9464 37.136 49.6759 39.9253 40.8657 45.8581L71.7655 11.297C75.7734 13.2067 79.0863 15.188 81.6931 17.2212L64.0325 36.9438ZM30.8072 51.1942C28.435 51.8641 25.921 52.2246 23.4002 52.2246C20.7396 52.2246 17.9927 51.8015 15.431 50.8581L56.2477 5.7189C59.5857 6.50595 62.8942 7.5447 66.1111 8.832C66.7521 9.08841 67.3748 9.34692 67.9896 9.60674L30.8072 51.1942ZM11.7636 49.0373C8.74517 47.0854 6.28043 44.1498 4.97505 40.0008L37.1181 4.10283C38.5166 3.99953 39.9347 3.94159 41.3738 3.94159C44.7915 3.94159 48.2727 4.24021 51.7503 4.81595L11.7636 49.0373Z" fill="#372A69"/>
<path d="M86.0152 21.4355C85.9224 21.3162 85.8319 21.1969 85.7344 21.0781C85.8319 21.1969 85.9226 21.3162 86.0152 21.4355Z" fill="#CE593F"/>
<path d="M70.6288 37.553C70.1005 37.4415 69.5714 37.3401 69.041 37.2588C69.5714 37.3401 70.1007 37.4421 70.6288 37.553Z" fill="#CE593F"/>
<path d="M88.5628 26.6752C88.7707 27.7252 88.8014 28.781 88.6525 29.8399C88.3012 27.3445 86.9538 24.8785 84.6349 22.4717L71.0514 37.6413C71.026 37.6355 71.0003 37.6311 70.9746 37.6253C71.538 37.7506 72.1001 37.8896 72.6594 38.0501C74.8417 38.6767 76.854 38.9947 78.6412 38.9947C85.6791 38.9947 87.9543 34.137 88.6237 30.062C88.8103 28.9283 88.7862 27.7986 88.5628 26.6752Z" fill="#CE593F"/>
<path d="M88.4111 26.024C88.3571 25.8235 88.2976 25.6232 88.2305 25.4229C88.2973 25.6229 88.3574 25.8235 88.4111 26.024Z" fill="#CE593F"/>
<path d="M87.3423 23.426C87.251 23.2616 87.1585 23.0975 87.0586 22.9336C87.1587 23.0975 87.2513 23.2618 87.3423 23.426Z" fill="#CE593F"/>
<path d="M88.2142 25.3796C88.1484 25.1858 88.0779 24.9921 88 24.7988C88.0779 24.9921 88.1487 25.1855 88.2142 25.3796Z" fill="#CE593F"/>
<path d="M87.9715 24.7316C87.8955 24.546 87.8158 24.3609 87.7285 24.1758C87.8153 24.3609 87.8955 24.5462 87.9715 24.7316Z" fill="#CE593F"/>
<path d="M31.1274 4.88379L27.3085 9.14864C23.1409 10.6064 20.2856 12.348 20.263 12.3593C20.2292 12.3763 16.4819 14.3518 12.8856 18.4124C9.23527 22.5342 7.71228 27.7552 7.08594 31.734L31.1274 4.88379Z" fill="#CE593F"/>
<path d="M22.5117 63.874C22.7039 63.8806 22.8953 63.8903 23.088 63.8926C22.8953 63.8903 22.7039 63.8803 22.5117 63.874Z" fill="#CE593F"/>
<path d="M15.4402 62.5725C15.3377 62.5358 15.2323 62.5041 15.1309 62.4658C15.2326 62.5041 15.3377 62.5358 15.4402 62.5725Z" fill="#CE593F"/>
<path d="M5.65825 49.0347C5.44982 48.8053 5.24794 48.5702 5.05078 48.3311C5.2482 48.5699 5.44955 48.8053 5.65825 49.0347Z" fill="#CE593F"/>
<path d="M6.04102 49.4434C6.22926 49.6387 6.42248 49.8293 6.61912 50.0173C6.42248 49.8296 6.22874 49.6389 6.04102 49.4434Z" fill="#CE593F"/>
<path d="M4.07227 46.8878C4.33444 47.2698 4.61104 47.6392 4.89708 48.0008C4.61078 47.6385 4.33444 47.2683 4.07227 46.8857C4.07227 46.8863 4.07227 46.8871 4.07227 46.8878Z" fill="#CE593F"/>
<path d="M18.4996 63.4151C18.3202 63.3792 18.1406 63.3436 17.9629 63.3037C18.1406 63.3438 18.32 63.3792 18.4996 63.4151Z" fill="#CE593F"/>
<path d="M78.6734 42.7071H78.6574C76.5023 42.7071 74.1154 42.4525 71.5797 41.7244C69.3189 41.0753 67.1069 40.817 64.826 40.817C57.6659 40.817 50.1639 43.9417 40.505 50.8839C35.8597 54.2227 29.6251 56.1521 23.4015 56.1521C17.523 56.1521 12.0704 54.4204 8.04942 51.2633C7.70413 50.9922 7.37457 50.7098 7.05078 50.4185C7.09299 50.4565 7.13206 50.4993 7.17479 50.537C8.78693 57.0152 12.9244 60.2746 16.3985 61.8967C18.9039 63.0668 21.7511 63.7136 24.6862 63.8649C29.5305 63.6347 34.4078 62.1038 38.2096 59.3793C44.7489 54.6931 50.4932 51.634 55.7703 50.026C61.6588 48.2327 67.2157 48.1318 72.7595 49.7193C77.7154 51.1382 81.7679 50.9678 84.5423 49.2117C87.3754 47.4184 87.97 44.2699 89.0187 41.8854V38.9307C86.1342 41.5338 82.9008 42.7071 78.6734 42.7071Z" fill="#CE593F"/>
<path d="M16.9878 63.0576C16.8331 63.0153 16.6765 62.976 16.5234 62.9307C16.6768 62.9763 16.8331 63.0153 16.9878 63.0576Z" fill="#CE593F"/>
<path d="M21.548 63.8266C21.35 63.8124 21.1537 63.793 20.957 63.7744C21.1539 63.7933 21.3503 63.8124 21.548 63.8266Z" fill="#CE593F"/>
<path d="M37.1177 4.10254L4.97461 40.0005L4.97487 40.0008L37.1177 4.10254Z" fill="#CE593F"/>
<path d="M41.3738 6.56934C39.9347 6.56934 38.5166 6.62702 37.1182 6.73058L5.67773 41.8441C7.07226 45.0312 9.21635 47.3897 11.7639 49.0372L49.6547 7.13354C46.8767 6.76309 44.1047 6.56934 41.3738 6.56934Z" fill="#CE593F"/>
<path d="M5.60439 41.6864C5.54619 41.5504 5.49087 41.4114 5.43555 41.2725C5.49087 41.4117 5.54619 41.5504 5.60439 41.6864Z" fill="#CE593F"/>
<path d="M66.2737 11.5259C66.2189 11.5038 66.1662 11.4818 66.1112 11.4598C62.8942 10.1725 59.5858 9.13374 56.2478 8.34668L17.281 51.4404C16.9693 51.3573 16.6594 51.2679 16.3516 51.1711C18.6446 51.8948 21.0558 52.2246 23.4005 52.2246C25.9213 52.2246 28.4354 51.8641 30.8075 51.1942L67.9897 9.60671L66.2737 11.5259Z" fill="#CE593F"/>
<path d="M42.3636 44.8721C41.8686 45.1911 41.3702 45.5183 40.8652 45.8584C41.3702 45.5183 41.8686 45.1914 42.3636 44.8721Z" fill="#CE593F"/>
<path d="M71.7655 13.9248L46.1507 42.5751C46.0833 42.6131 46.0146 42.6546 45.9473 42.6931C52.5581 38.924 58.3556 37.098 64.0328 36.9441L80.2787 18.8011C77.9204 17.1339 75.0816 15.505 71.7655 13.9248Z" fill="#CE593F"/>
<path d="M45.2488 43.0986C44.9945 43.2476 44.7391 43.3991 44.4824 43.5535C44.7394 43.3988 44.9945 43.2476 45.2488 43.0986Z" fill="#CE593F"/>
<path d="M43.8186 43.9551C43.5166 44.141 43.2117 44.3331 42.9062 44.5269C43.2119 44.3329 43.5166 44.1412 43.8186 43.9551Z" fill="#CE593F"/>
<path d="M129.509 47.6951C116.888 47.6951 106.656 43.2272 106.656 37.7159C106.656 32.2044 116.888 27.7361 129.509 27.7361C133.543 27.7361 137.332 28.1943 140.622 28.9957C133.83 21.3795 118.415 16.0615 100.484 16.0615C76.271 16.0615 56.6426 25.7564 56.6426 37.7159C56.6426 49.6752 76.271 59.37 100.484 59.37C118.415 59.37 133.83 54.052 140.622 46.4353C137.332 47.2367 133.544 47.6951 129.509 47.6951Z" fill="#E95353"/>
<path d="M90.319 40.9957C94.7085 40.9957 98.2668 39.1395 98.2668 36.8499C98.2668 34.5602 94.7085 32.7041 90.319 32.7041C85.9295 32.7041 82.3711 34.5602 82.3711 36.8499C82.3711 39.1395 85.9295 40.9957 90.319 40.9957Z" fill="#C13636"/>
<path d="M68.6886 64.5604C76.6767 68.7154 87.9679 71.3056 100.484 71.3056C118.415 71.3056 133.83 65.9874 140.622 58.3709V46.4353C133.83 54.052 118.415 59.37 100.484 59.37C76.271 59.37 56.6426 49.675 56.6426 37.7158V49.6513C56.6426 54.3803 59.7119 58.7551 64.9198 62.3166" fill="#494F63"/>
<path d="M138.029 28.4543C135.396 27.9915 132.521 27.7354 129.508 27.7354C116.887 27.7354 106.656 32.2038 106.656 37.7151C106.656 39.623 107.884 41.4052 110.011 42.921C114.028 40.0579 121.257 38.1474 129.508 38.1474C133.543 38.1474 137.331 38.6056 140.622 39.4072V28.9951L138.029 28.4543Z" fill="#C13636"/>
<g opacity="0.15">
<path d="M111.196 37.7153C111.196 32.5389 120.221 28.2828 131.775 27.7845C131.03 27.7523 130.274 27.7354 129.508 27.7354C116.887 27.7354 106.656 32.2038 106.656 37.7151C106.656 39.623 107.884 41.4052 110.011 42.921C110.805 42.3547 111.727 41.8262 112.757 41.3419C111.751 40.2178 111.196 38.9951 111.196 37.7153Z" fill="#372A69"/>
</g>
<g opacity="0.15">
<path d="M73.0136 64.5606L69.2448 62.3168C64.0369 58.7554 60.9676 54.3805 60.9676 49.6514V47.0981C58.1995 44.2591 56.6426 41.0778 56.6426 37.7158V49.6513C56.6426 54.3803 59.7119 58.7551 64.9198 62.3166L68.6886 64.5604C76.6767 68.7154 87.9679 71.3056 100.484 71.3056C101.207 71.3056 101.926 71.2958 102.64 71.2787C90.9923 70.9985 80.5375 68.4738 73.0136 64.5606Z" fill="#372A69"/>
</g>
<path d="M90.3192 31.3291C85.0054 31.3291 80.998 33.702 80.998 36.8485C80.998 39.9952 85.0053 42.3681 90.3192 42.3681C95.6331 42.3681 99.6402 39.9952 99.6402 36.8485C99.64 33.7018 95.6328 31.3291 90.3192 31.3291ZM90.3192 39.6202C86.3066 39.6202 83.7456 37.9784 83.7456 36.8482C83.7456 35.718 86.3064 34.0764 90.3192 34.0764C94.332 34.0764 96.8928 35.718 96.8928 36.8482C96.8928 37.9784 94.3319 39.6202 90.3192 39.6202Z" fill="#372A69"/>
<path d="M140.297 40.7419C140.706 40.8414 141.14 40.7479 141.471 40.4873C141.803 40.2268 141.996 39.8287 141.996 39.4071V29.0665C141.998 29.0425 142 29.0189 142 28.9947C142 28.6114 141.843 28.2648 141.59 28.0154C134.305 19.9163 118.186 14.6865 100.484 14.6865C88.5671 14.6865 77.3416 16.9893 68.8757 21.1708C60.1015 25.5051 55.2695 31.3803 55.2695 37.715V49.6505C55.2695 54.7072 58.3386 59.479 64.145 63.4498C64.7711 63.8782 65.6262 63.7177 66.0544 63.0913C66.4828 62.4651 66.3223 61.6101 65.696 61.1819C62.1931 58.7861 58.0173 54.8411 58.0173 49.6505V45.7411C58.0525 45.7903 58.0908 45.8384 58.1264 45.8873C58.2224 46.0186 58.3192 46.1499 58.4198 46.28C58.4735 46.3496 58.5297 46.4187 58.5848 46.4878C58.6791 46.6066 58.7743 46.725 58.8726 46.8429C58.9334 46.9156 58.9957 46.9879 59.0579 47.0606C59.1553 47.1741 59.2542 47.2876 59.3555 47.4002C59.4212 47.4735 59.488 47.5466 59.5554 47.6194C59.6586 47.7312 59.7639 47.8425 59.8707 47.9534C59.9393 48.0249 60.0084 48.0962 60.0787 48.1674C60.1903 48.2802 60.3046 48.3925 60.4202 48.5047C60.4896 48.5721 60.5584 48.6397 60.6294 48.7067C60.7552 48.8258 60.8845 48.9441 61.0146 49.0621C61.079 49.1204 61.1416 49.1792 61.2068 49.2373C61.3683 49.3808 61.5339 49.5232 61.7018 49.6648C61.7391 49.6964 61.7747 49.7282 61.8123 49.7595C62.0208 49.9337 62.2341 50.1068 62.4521 50.2782C62.497 50.3136 62.5441 50.3482 62.5893 50.3834C62.7617 50.5172 62.9357 50.6509 63.1137 50.783C63.192 50.8411 63.2728 50.8984 63.3521 50.9562C63.501 51.0646 63.6504 51.1726 63.8032 51.2799C63.895 51.3444 63.9887 51.4079 64.082 51.472C64.227 51.5714 64.373 51.6707 64.5216 51.7691C64.6212 51.8351 64.7221 51.9007 64.8234 51.9664C64.9705 52.0616 65.119 52.1565 65.2695 52.2507C65.3743 52.3162 65.4793 52.3818 65.5856 52.4468C65.7382 52.5405 65.8928 52.6333 66.0488 52.7258C66.1557 52.7892 66.2626 52.8527 66.371 52.9157C66.5338 53.0102 66.6995 53.1036 66.8657 53.1971C66.9707 53.256 67.0749 53.3155 67.1811 53.3738C67.3657 53.4752 67.5541 53.5757 67.7426 53.6756C67.8341 53.7239 67.9236 53.773 68.0157 53.8211C68.2983 53.9683 68.5849 54.1142 68.8762 54.2582C77.3421 58.4397 88.5676 60.7425 100.485 60.7425C100.949 60.7425 101.411 60.7381 101.872 60.731C101.926 60.7301 101.981 60.7296 102.035 60.7288C102.473 60.7213 102.91 60.71 103.346 60.6959C103.419 60.6935 103.492 60.6913 103.565 60.6888C103.994 60.6739 104.422 60.6563 104.849 60.6353C104.921 60.6317 104.994 60.628 105.066 60.6242C105.498 60.602 105.929 60.5771 106.358 60.5489C106.413 60.5451 106.467 60.5412 106.521 60.5375C106.971 60.5068 107.42 60.4738 107.867 60.4364C107.871 60.436 107.875 60.4357 107.879 60.4352C108.326 60.3978 108.771 60.3564 109.214 60.3122C109.263 60.3075 109.312 60.3029 109.36 60.298C109.785 60.2551 110.207 60.2085 110.628 60.1598C110.696 60.1518 110.763 60.1442 110.831 60.1362C111.244 60.0871 111.655 60.0351 112.065 59.9804C112.133 59.9712 112.201 59.9619 112.269 59.9528C112.683 59.8963 113.095 59.8374 113.505 59.7751C113.557 59.7674 113.607 59.7591 113.658 59.7512C114.088 59.6851 114.515 59.6167 114.94 59.5443C114.944 59.5438 114.948 59.5428 114.951 59.5423C115.379 59.4695 115.804 59.3927 116.227 59.3133C116.267 59.3058 116.306 59.2987 116.346 59.2911C116.751 59.2145 117.152 59.1347 117.552 59.0526C117.612 59.04 117.673 59.0279 117.733 59.0152C118.124 58.9337 118.513 58.8493 118.899 58.7626C118.96 58.7489 119.022 58.7348 119.083 58.7207C119.473 58.632 119.86 58.5408 120.244 58.4467C120.29 58.4353 120.336 58.4238 120.382 58.4123C120.783 58.313 121.182 58.2115 121.577 58.1065C121.582 58.105 121.587 58.1036 121.593 58.1021C121.991 57.9961 122.386 57.8865 122.778 57.7743C122.81 57.7652 122.843 57.7562 122.875 57.7469C123.251 57.6386 123.624 57.5275 123.994 57.4139C124.047 57.3976 124.1 57.3815 124.153 57.3651C124.513 57.2533 124.87 57.1393 125.224 57.0225C125.28 57.0041 125.336 56.9856 125.392 56.967C125.747 56.8486 126.099 56.7283 126.448 56.605C126.492 56.5894 126.535 56.5737 126.579 56.5581C126.941 56.4292 127.3 56.298 127.654 56.1637C127.664 56.16 127.673 56.1564 127.682 56.1529C128.04 56.0174 128.392 55.8788 128.742 55.7379C128.769 55.7267 128.797 55.7158 128.825 55.7046C129.162 55.5676 129.496 55.4279 129.825 55.2861C129.873 55.2656 129.921 55.2453 129.969 55.2248C130.289 55.0858 130.605 54.9446 130.918 54.8011C130.969 54.7779 131.019 54.7545 131.07 54.7311C131.383 54.5863 131.692 54.4393 131.997 54.29C132.038 54.2699 132.079 54.2495 132.119 54.2292C132.434 54.0737 132.746 53.9162 133.052 53.7559C133.066 53.7488 133.079 53.7415 133.093 53.7342C133.4 53.5733 133.702 53.4097 133.999 53.2438C134.023 53.2305 134.048 53.2172 134.072 53.2037C134.362 53.0411 134.647 52.8757 134.929 52.7089C134.971 52.6838 135.014 52.6587 135.056 52.6337C135.328 52.4711 135.595 52.3061 135.858 52.139C135.904 52.1099 135.95 52.0806 135.996 52.0513C136.257 51.8836 136.515 51.714 136.768 51.5423C136.806 51.5162 136.844 51.4901 136.882 51.4638C137.142 51.2856 137.398 51.1059 137.648 50.9236C137.665 50.9109 137.682 50.8981 137.699 50.8853C137.947 50.7038 138.19 50.52 138.427 50.3343C138.449 50.3174 138.471 50.3008 138.493 50.2838C138.728 50.0992 138.957 49.9122 139.181 49.7236C139.204 49.705 139.227 49.687 139.249 49.6682V57.8348C132.323 65.1961 117.201 69.9296 100.485 69.9296C88.7338 69.9296 77.376 67.5278 69.3239 63.3395C68.6506 62.9892 67.8214 63.2514 67.4713 63.9242C67.1211 64.5974 67.383 65.4268 68.056 65.7769C76.6108 70.2268 88.1277 72.6772 100.485 72.6772C118.235 72.6772 134.393 67.4197 141.649 59.283C141.873 59.0312 141.997 58.706 141.997 58.3687V46.4331C141.997 46.4184 141.994 46.4045 141.994 46.3899C141.993 46.3554 141.99 46.321 141.986 46.2866C141.982 46.2498 141.977 46.2132 141.97 46.1772C141.964 46.1448 141.957 46.1128 141.948 46.0808C141.938 46.0433 141.927 46.0068 141.914 45.9707C141.903 45.9409 141.891 45.9117 141.879 45.8824C141.862 45.845 141.844 45.8087 141.825 45.7733C141.816 45.7577 141.81 45.7413 141.801 45.7261C141.794 45.7147 141.785 45.7052 141.778 45.694C141.756 45.6593 141.732 45.6263 141.706 45.5936C141.688 45.5694 141.669 45.545 141.649 45.5225C141.622 45.4925 141.593 45.4645 141.564 45.4367C141.542 45.4159 141.521 45.3946 141.497 45.3754C141.466 45.3497 141.432 45.3266 141.399 45.3036C141.374 45.2868 141.35 45.2692 141.325 45.254C141.29 45.2333 141.253 45.216 141.216 45.1982C141.189 45.185 141.162 45.171 141.134 45.1596C141.127 45.1566 141.12 45.1522 141.112 45.1491C141.082 45.1374 141.05 45.1308 141.019 45.1215C140.989 45.1127 140.961 45.1025 140.931 45.0957C140.89 45.0863 140.849 45.0813 140.807 45.0756C140.778 45.0717 140.75 45.0661 140.721 45.0639C140.676 45.0607 140.63 45.0622 140.585 45.0636C140.56 45.0642 140.534 45.0627 140.509 45.0649C140.441 45.0707 140.373 45.0813 140.306 45.0971C140.304 45.0978 140.301 45.0978 140.298 45.0984C137.019 45.8972 133.288 46.3193 129.51 46.3193C123.591 46.3193 118.047 45.3221 113.901 43.5112C113.465 43.321 113.052 43.1236 112.66 42.9209C116.76 40.7967 122.965 39.5199 129.51 39.5199C133.289 39.5211 137.019 39.9432 140.297 40.7419ZM139.249 37.6974C136.2 37.091 132.869 36.7735 129.51 36.7735C121.734 36.7735 114.577 38.4273 110.073 41.2308C109.483 40.7302 108.911 40.1274 108.523 39.4449C108.52 39.4381 108.516 39.4315 108.513 39.4247C108.478 39.3636 108.446 39.3014 108.414 39.2391C108.398 39.2067 108.383 39.174 108.368 39.1415C108.35 39.1041 108.333 39.0668 108.317 39.029C108.301 38.9916 108.286 38.9543 108.271 38.9169C108.257 38.8818 108.244 38.8467 108.231 38.8115C108.218 38.7736 108.204 38.7356 108.191 38.6977C108.177 38.6543 108.165 38.6103 108.153 38.5664C108.139 38.5188 108.127 38.471 108.116 38.4233C108.104 38.3716 108.092 38.3196 108.083 38.2672C108.077 38.2378 108.073 38.2085 108.069 38.1792C108.061 38.128 108.054 38.0768 108.049 38.0252C108.046 37.9994 108.043 37.9735 108.041 37.9478C108.035 37.8707 108.031 37.7931 108.031 37.715C108.031 37.5234 108.05 37.3315 108.087 37.1392C108.088 37.1314 108.09 37.1235 108.092 37.1153C108.462 35.2537 110.532 33.388 113.9 31.9171C117.788 30.2194 122.903 29.2368 128.404 29.1204C128.771 29.1128 129.14 29.1089 129.51 29.1089C129.819 29.1089 130.127 29.1129 130.435 29.1184C130.532 29.1202 130.628 29.1222 130.725 29.1244C130.963 29.1302 131.2 29.1377 131.437 29.1465C131.595 29.1526 131.754 29.1595 131.912 29.167C132.091 29.1754 132.269 29.1844 132.447 29.1947C132.61 29.2042 132.772 29.2144 132.934 29.2254C133.049 29.233 133.164 29.242 133.279 29.2506C133.589 29.2739 133.898 29.2999 134.205 29.3289C134.295 29.3374 134.386 29.3455 134.476 29.3545C134.658 29.3726 134.839 29.3919 135.019 29.4121C135.125 29.4238 135.229 29.4366 135.335 29.449C135.598 29.4802 135.859 29.5136 136.119 29.5488C136.27 29.5693 136.42 29.5898 136.569 29.6118C136.7 29.6311 136.831 29.6508 136.962 29.6711C137.192 29.707 137.421 29.7439 137.649 29.7832C137.697 29.7915 137.745 29.7993 137.793 29.8078L139.249 30.1117V37.6974ZM129.509 49.0681C131.75 49.0681 133.979 48.9266 136.119 48.6527C136.097 48.6693 136.074 48.6859 136.052 48.7023C135.832 48.8645 135.608 49.0252 135.379 49.1839C135.373 49.1878 135.368 49.1917 135.362 49.1956C135.135 49.3523 134.904 49.5068 134.669 49.6599C134.631 49.6847 134.593 49.7097 134.555 49.7343C134.325 49.8832 134.091 50.0301 133.853 50.1756C133.806 50.2039 133.76 50.232 133.713 50.2599C133.472 50.4063 133.226 50.5513 132.977 50.6941C132.947 50.7114 132.916 50.7283 132.886 50.7454C132.642 50.884 132.395 51.0207 132.144 51.1559C132.115 51.1716 132.086 51.1877 132.057 51.2035C131.798 51.3422 131.534 51.4786 131.268 51.6137C131.217 51.6398 131.166 51.6656 131.115 51.6913C130.85 51.824 130.583 51.9547 130.312 52.0837C130.267 52.1055 130.22 52.1268 130.174 52.1485C129.893 52.2813 129.609 52.4124 129.32 52.5412C129.316 52.5429 129.313 52.5447 129.309 52.5463C129.018 52.6757 128.723 52.8026 128.426 52.9281C128.376 52.9491 128.326 52.9706 128.275 52.9916C127.989 53.1112 127.699 53.2288 127.406 53.3446C127.35 53.367 127.293 53.3892 127.237 53.4114C126.937 53.5286 126.635 53.6441 126.33 53.7574C126.299 53.7686 126.269 53.7796 126.238 53.7906C125.941 53.9002 125.641 54.0075 125.338 54.113C125.297 54.1272 125.257 54.1418 125.216 54.1559C124.906 54.2633 124.592 54.3681 124.276 54.4713C124.215 54.4914 124.153 54.5116 124.091 54.5316C123.776 54.6332 123.458 54.7333 123.138 54.8309C123.087 54.8463 123.036 54.8616 122.985 54.8768C122.662 54.9744 122.337 55.0703 122.008 55.1636C121.991 55.1685 121.973 55.1736 121.956 55.1787C121.62 55.2739 121.28 55.3662 120.938 55.4572C120.877 55.4733 120.817 55.4895 120.756 55.5054C120.424 55.5927 120.09 55.6774 119.754 55.7604C119.69 55.776 119.626 55.7914 119.563 55.807C119.216 55.8912 118.868 55.9738 118.517 56.0533C118.492 56.059 118.466 56.0644 118.441 56.07C118.098 56.1473 117.753 56.222 117.406 56.295C117.355 56.3058 117.303 56.317 117.251 56.3279C116.901 56.4005 116.548 56.471 116.194 56.5391C116.125 56.5525 116.056 56.5657 115.987 56.5787C115.631 56.6461 115.273 56.7117 114.914 56.7746C114.862 56.7835 114.81 56.7922 114.759 56.8011C114.403 56.8625 114.045 56.9219 113.686 56.9787C113.656 56.9834 113.626 56.9885 113.596 56.9932C113.226 57.0513 112.853 57.1064 112.479 57.1596C112.409 57.1694 112.34 57.1794 112.271 57.1891C111.905 57.2402 111.537 57.289 111.168 57.3354C111.1 57.3439 111.033 57.352 110.965 57.3603C110.582 57.4076 110.198 57.4528 109.811 57.495C109.796 57.4967 109.78 57.498 109.765 57.4997C109.385 57.5407 109.003 57.5788 108.62 57.6149C108.558 57.6207 108.497 57.6266 108.436 57.6324C108.058 57.6671 107.678 57.6993 107.297 57.7291C107.222 57.735 107.147 57.7406 107.071 57.7464C106.687 57.7755 106.301 57.8026 105.913 57.8267C105.864 57.8297 105.814 57.8324 105.764 57.8355C105.386 57.8583 105.008 57.8787 104.628 57.8966C104.585 57.8987 104.542 57.901 104.499 57.9029C104.107 57.9209 103.713 57.9358 103.318 57.9483C103.242 57.9507 103.167 57.9532 103.091 57.9554C102.702 57.9669 102.312 57.9761 101.92 57.9823C101.852 57.9835 101.785 57.9842 101.717 57.9851C101.307 57.9908 100.897 57.9945 100.485 57.9945C88.9813 57.9945 78.1879 55.7926 70.093 51.7942C69.1197 51.3134 68.2009 50.8145 67.3385 50.2994C61.454 46.7856 58.1884 42.5157 58.0266 38.0618C58.2182 38.1632 58.4364 38.2212 58.6681 38.2212H77.7914C78.5502 38.2212 79.1651 37.6063 79.1651 36.8474C79.1651 36.0885 78.5502 35.4736 77.7914 35.4736H58.6681C58.5299 35.4736 58.3966 35.4944 58.2709 35.5323C59.2903 31.103 63.3965 26.9414 70.0932 23.6337C78.1881 19.6354 88.9815 17.4333 100.485 17.4333C115.01 17.4333 128.332 21.0074 136.119 26.7739C135.88 26.7433 135.639 26.7163 135.399 26.689C135.367 26.6853 135.335 26.6814 135.303 26.6777C135.078 26.6528 134.853 26.6301 134.627 26.6079C134.546 26.5999 134.465 26.5922 134.383 26.5847C134.162 26.5642 133.94 26.5444 133.716 26.5266C133.643 26.5207 133.569 26.5158 133.495 26.5103C133.131 26.4831 132.765 26.4593 132.398 26.4399C132.245 26.4316 132.092 26.4228 131.939 26.4158C131.785 26.4089 131.632 26.4033 131.478 26.3977C131.276 26.3902 131.075 26.3841 130.874 26.3789C130.751 26.3758 130.628 26.3724 130.505 26.3702C130.174 26.364 129.842 26.3599 129.51 26.3599C123.221 26.3599 117.287 27.4388 112.801 29.3979C109.097 31.0154 106.666 33.1217 105.725 35.4731H102.704C101.945 35.4731 101.33 36.088 101.33 36.8469C101.33 37.6057 101.945 38.2207 102.704 38.2207H105.307C105.317 38.3282 105.328 38.4354 105.344 38.5423C105.346 38.5554 105.347 38.5684 105.349 38.5813C105.369 38.7161 105.394 38.85 105.424 38.9836C105.426 38.9951 105.429 39.0065 105.432 39.018C105.461 39.1486 105.495 39.2787 105.534 39.4081C105.535 39.4122 105.536 39.4162 105.537 39.4203C105.915 40.6784 106.711 41.8728 107.894 42.9691C107.896 42.9705 107.897 42.9717 107.898 42.973C108.157 43.2124 108.434 43.447 108.729 43.6765C108.741 43.6859 108.753 43.6952 108.765 43.7045C109.867 44.5557 111.217 45.3371 112.801 46.0288C117.286 47.9894 123.22 49.0681 129.509 49.0681Z" fill="#372A69"/>
</svg>
