<svg width="73" height="92" viewBox="0 0 73 92" fill="none" xmlns="http://www.w3.org/2000/svg">
<path d="M22.9648 53.023C23.5472 57.1992 27.5644 59.3845 31.2315 59.3845C31.3263 59.3845 31.4214 59.3831 31.5165 59.3804C35.5819 59.2639 39.8905 57.1299 43.6488 53.3716C47.4071 49.6131 49.5411 45.3046 49.6574 41.2394C49.766 37.4454 47.6173 33.2898 43.3 32.6877C42.9596 32.6401 42.6135 32.6162 42.2711 32.6162C38.5479 32.6162 35.4438 35.3089 35.0509 38.8796C34.8546 40.6637 34.312 41.8837 33.2361 42.9594C32.1605 44.0352 30.9403 44.5778 29.1562 44.7741C27.301 44.9781 25.6328 45.9214 24.4586 47.43C23.2334 49.0049 22.6888 51.0436 22.9648 53.023Z" fill="#E63A2A"/>
<path d="M66.8781 68.8013V23.1992H5.67578V68.8013H66.8781ZM28.8349 41.8554C30.1059 41.7157 30.6499 41.3931 31.1598 40.8832C31.6695 40.3735 31.9921 39.8295 32.132 38.5585C32.6889 33.497 37.0476 29.6801 42.2708 29.6801C42.7483 29.6801 43.231 29.7136 43.7051 29.7798C46.3682 30.1511 48.7298 31.589 50.3551 33.8284C51.876 35.924 52.6704 38.5859 52.5919 41.3236C52.4539 46.1413 50.0149 51.1574 45.7244 55.448C41.4338 59.7385 36.4177 62.1775 31.6 62.3155C31.4767 62.319 31.3538 62.3208 31.231 62.3208C25.4744 62.3208 20.7747 58.5811 20.0562 53.4285C19.6713 50.6677 20.4312 47.8241 22.1414 45.6269C23.807 43.4864 26.1843 42.1471 28.8349 41.8554Z" fill="white"/>
<path d="M10.08 85.2456H5.67578V89.0638H66.8781V85.2456H15.9524C15.1416 85.2456 14.4843 84.5883 14.4843 83.7776C14.4843 82.9668 15.1416 82.3095 15.9524 82.3095H66.8781V78.4915H56.6015C55.7907 78.4915 55.1334 77.8342 55.1334 77.0234C55.1334 76.2126 55.7907 75.5553 56.6015 75.5553H66.8781V71.7373H5.67578V75.5553H50.7292C51.5399 75.5553 52.1972 76.2126 52.1972 77.0234C52.1972 77.8342 51.5399 78.4915 50.7292 78.4915H5.67578V82.3095H10.08C10.8908 82.3095 11.5481 82.9668 11.5481 83.7776C11.5481 84.5883 10.8908 85.2456 10.08 85.2456Z" fill="#B9A550"/>
<path d="M66.8781 2.93652H5.67578V6.75452H66.8781V2.93652Z" fill="#B9A550"/>
<path d="M10.08 16.4448H5.67578V20.2628H66.8781V16.4448H15.9524C15.1416 16.4448 14.4843 15.7875 14.4843 14.9767C14.4843 14.1659 15.1416 13.5086 15.9524 13.5086H66.8781V9.69043H5.67578V13.5084H10.08C10.8908 13.5084 11.5481 14.1657 11.5481 14.9765C11.5481 15.7873 10.8908 16.4448 10.08 16.4448Z" fill="#B9A550"/>
<path d="M20.057 53.428C20.7753 58.5804 25.4752 62.3203 31.2318 62.3203C31.3546 62.3203 31.4775 62.3185 31.6008 62.315C36.4185 62.177 41.4346 59.738 45.7252 55.4475C50.0157 51.157 52.4547 46.1408 52.5927 41.3232C52.671 38.5855 51.8766 35.9237 50.3559 33.8279C48.7306 31.5886 46.369 30.1506 43.7059 29.7793C43.2318 29.7132 42.7491 29.6797 42.2716 29.6797C37.0484 29.6797 32.6897 33.4965 32.1328 38.5581C31.9931 39.829 31.6705 40.373 31.1606 40.8827C30.6507 41.3927 30.1067 41.7152 28.8357 41.855C26.1849 42.1467 23.8078 43.486 22.1422 45.6262C20.432 47.8235 19.6721 50.6672 20.057 53.428ZM29.1569 44.7736C30.941 44.5772 32.1612 44.0346 33.2368 42.9588C34.3125 41.8832 34.8553 40.6631 35.0516 38.8791C35.4444 35.3083 38.5484 32.6157 42.2718 32.6157C42.6142 32.6157 42.9603 32.6397 43.3007 32.6871C47.6178 33.289 49.7667 37.4447 49.6581 41.2388C49.5416 45.304 47.4076 49.6128 43.6495 53.3711C39.8912 57.1294 35.5824 59.2634 31.5172 59.3798C31.4221 59.3826 31.3272 59.3839 31.2322 59.3839C27.5649 59.3839 23.5477 57.1987 22.9655 53.0224C22.6895 51.0429 23.2341 49.0044 24.4598 47.4294C25.6335 45.921 27.3019 44.9777 29.1569 44.7736Z" fill="#372A69"/>
<path d="M71.0874 89.0638H69.8151V85.0755C70.2806 84.8293 70.5981 84.3407 70.5981 83.7775C70.5981 83.2144 70.2806 82.7258 69.8151 82.4796V78.3214C70.2806 78.0751 70.5981 77.5865 70.5981 77.0234C70.5981 76.4602 70.2806 75.9716 69.8151 75.7254V16.2746C70.2806 16.0284 70.5981 15.5398 70.5981 14.9766C70.5981 14.4135 70.2806 13.9249 69.8151 13.6786V9.52024C70.2806 9.27399 70.5981 8.78541 70.5981 8.22226C70.5981 7.6591 70.2806 7.17052 69.8151 6.92427V2.93617H71.0874C71.8982 2.93617 72.5555 2.27886 72.5555 1.46809C72.5555 0.657311 71.8982 0 71.0874 0H1.46809C0.657311 0 0 0.657311 0 1.46809C0 2.27886 0.657311 2.93617 1.46809 2.93617H2.74043V6.92447C2.27494 7.17071 1.95745 7.65929 1.95745 8.22245C1.95745 8.78561 2.27494 9.27419 2.74043 9.52043V13.6786C2.27494 13.9249 1.95745 14.4135 1.95745 14.9766C1.95745 15.5398 2.27494 16.0284 2.74043 16.2746V75.7254C2.27494 75.9716 1.95745 76.4602 1.95745 77.0234C1.95745 77.5865 2.27494 78.0751 2.74043 78.3214V82.4798C2.27494 82.726 1.95745 83.2146 1.95745 83.7777C1.95745 84.3409 2.27494 84.8295 2.74043 85.0757V89.0638H1.46809C0.657311 89.0638 0 89.7211 0 90.5319C0 91.3427 0.657311 92 1.46809 92H71.0874C71.8982 92 72.5555 91.3427 72.5555 90.5319C72.5555 89.7211 71.8982 89.0638 71.0874 89.0638ZM66.8789 2.93617V6.75417H5.6766V2.93617H66.8789ZM10.0809 13.5085H5.6766V9.69034H66.8789V13.5083H15.9532C15.1424 13.5083 14.4851 14.1657 14.4851 14.9764C14.4851 15.7872 15.1424 16.4445 15.9532 16.4445H66.8789V20.2625H5.6766V16.4447H10.0809C10.8916 16.4447 11.5489 15.7874 11.5489 14.9766C11.5489 14.1658 10.8916 13.5085 10.0809 13.5085ZM66.8789 23.1989V68.8009H5.6766V23.1989H66.8789ZM10.0809 82.3095H5.6766V78.4915H50.73C51.5407 78.4915 52.1981 77.8342 52.1981 77.0234C52.1981 76.2126 51.5407 75.5553 50.73 75.5553H5.6766V71.7373H66.8789V75.5553H56.6023C55.7915 75.5553 55.1342 76.2126 55.1342 77.0234C55.1342 77.8342 55.7915 78.4915 56.6023 78.4915H66.8789V82.3095H15.9532C15.1424 82.3095 14.4851 82.9668 14.4851 83.7775C14.4851 84.5883 15.1424 85.2456 15.9532 85.2456H66.8789V89.0638H5.6766V85.2456H10.0809C10.8916 85.2456 11.5489 84.5883 11.5489 83.7775C11.5489 82.9668 10.8916 82.3095 10.0809 82.3095Z" fill="#372A69"/>
</svg>
