<svg width="67" height="97" viewBox="0 0 67 97" fill="none" xmlns="http://www.w3.org/2000/svg">
<path d="M64.5752 28.8989H24.127V95.0677H64.5752V28.8989Z" fill="#FFE6B8"/>
<path d="M1.93164 28.8983L12.9252 10.6445L24.1265 28.8983V95.0681H1.93164V28.8983Z" fill="#FFE6B8"/>
<path d="M24.1251 28.8983L12.9238 10.6445H53.3724L64.5737 28.8983H24.1251Z" fill="#FFE6B8"/>
<path d="M49.2259 1.93262H17.0744C14.7832 1.93262 12.9258 3.78983 12.9258 6.08126V10.6446H53.3744V6.08126C53.3744 3.7902 51.5172 1.93262 49.2259 1.93262Z" fill="#77E5F4"/>
<path d="M57.5204 45.0781H31.1777V65.1988H57.5204V45.0781Z" fill="#77E5F4"/>
<path d="M64.5759 97C65.6429 97 66.5081 96.1348 66.5081 95.0678V28.898C66.5081 28.5273 66.4018 28.1821 66.2207 27.8879C66.2209 27.8879 66.2228 27.8873 66.2228 27.8873L55.3071 10.0984V6.08088C55.3072 2.72775 52.5793 0 49.2264 0H17.0748C13.7217 0 10.9938 2.72775 10.9938 6.08088V10.1073L0.277169 27.901C0.0958628 28.202 0 28.5466 0 28.8979V95.0678C0 96.1348 0.865232 97 1.93223 97H64.5759ZM16.379 12.5767H52.2934L61.1231 26.9658H25.2088L16.379 12.5767ZM14.8584 6.08088C14.8584 4.8589 15.8529 3.86465 17.075 3.86465H49.2266C50.4485 3.86465 51.4428 4.85909 51.4428 6.08088V8.712H14.8584V6.08088ZM3.86466 29.435L12.9414 14.364L22.195 29.4439V93.1355H3.86466V29.435ZM62.6436 93.1355H26.0597V30.8303H62.6436V93.1355Z" fill="#372A69"/>
<path d="M31.1803 67.1304H57.5237C58.5907 67.1304 59.456 66.2651 59.456 65.1981V45.0773C59.456 44.0103 58.5907 43.145 57.5237 43.145H31.1803C30.1133 43.145 29.248 44.0103 29.248 45.0773V65.1979C29.248 66.2649 30.1131 67.1304 31.1803 67.1304ZM33.1125 47.0095H55.5913V63.2657H33.1125V47.0095Z" fill="#372A69"/>
<path d="M57.5242 70.7329H56.2799C55.2129 70.7329 54.3477 71.5981 54.3477 72.6651C54.3477 73.7321 55.2129 74.5974 56.2799 74.5974H57.5242C58.5912 74.5974 59.4564 73.7321 59.4564 72.6651C59.4564 71.5981 58.5912 70.7329 57.5242 70.7329Z" fill="#372A69"/>
<path d="M31.1803 74.5979H48.1896C49.2566 74.5979 50.1218 73.7326 50.1218 72.6656C50.1218 71.5986 49.2566 70.7334 48.1896 70.7334H31.1803C30.1133 70.7334 29.248 71.5986 29.248 72.6656C29.248 73.7324 30.1131 74.5979 31.1803 74.5979Z" fill="#372A69"/>
</svg>
