<svg width="71" height="71" viewBox="0 0 71 71" fill="none" xmlns="http://www.w3.org/2000/svg">
<g clip-path="url(#clip0_65_6527)">
<path d="M31.5331 28.0341C31.5331 28.0341 28.1841 18.2416 22.5537 16.998" stroke="#E8711A" stroke-width="1.6" stroke-linecap="round" stroke-linejoin="round"/>
<path d="M46.2578 56.7259C54.4591 51.8325 57.1407 41.2172 52.2473 33.0159C47.3539 24.8146 36.7385 22.133 28.5372 27.0264C20.336 31.9198 17.6544 42.5352 22.5478 50.7365C27.4412 58.9378 38.0565 61.6193 46.2578 56.7259Z" fill="#E8711A" stroke="#E8711A" stroke-width="1.6" stroke-miterlimit="10"/>
<path d="M29.6378 42.8311C28.904 43.269 28.0568 43.4794 27.2034 43.4357C26.35 43.3921 25.5287 43.0964 24.8434 42.586C24.158 42.0756 23.6394 41.3734 23.3532 40.5683C23.0669 39.7631 23.0258 38.8912 23.2351 38.0627C23.4444 37.2342 23.8947 36.4864 24.529 35.9138C25.1633 35.3412 25.9531 34.9696 26.7986 34.8459C27.6441 34.7222 28.5073 34.852 29.2791 35.2189C30.0508 35.5858 30.6964 36.1733 31.1343 36.9071C31.7205 37.8914 31.8921 39.068 31.6116 40.1787C31.331 41.2894 30.6211 42.2434 29.6378 42.8311Z" fill="white"/>
<path d="M29.0854 21.4265C25.2026 16.4007 31.2239 7.32898 38.9515 7.39644C36.5091 14.7452 38.9494 20.8616 29.0854 21.4265Z" fill="#49AF20" stroke="#E8711A" stroke-width="1.6" stroke-miterlimit="10"/>
</g>
<defs>
<clipPath id="clip0_65_6527">
<rect width="51.0697" height="51.0697" fill="white" transform="translate(0 26.8868) rotate(-30.8229)"/>
</clipPath>
</defs>
</svg>
