<svg width="94" height="94" viewBox="0 0 94 94" fill="none" xmlns="http://www.w3.org/2000/svg">
<g clip-path="url(#clip0_65_5717)">
<path d="M41.987 36.3698C41.987 36.3698 37.5277 23.3309 30.0308 21.6752" stroke="#E8711A" stroke-width="1.6" stroke-linecap="round" stroke-linejoin="round"/>
<path d="M61.5934 74.5735C72.5136 68.0579 76.0841 53.9234 69.5685 43.0033C63.0529 32.0831 48.9184 28.5126 37.9982 35.0282C27.0781 41.5438 23.5075 55.6783 30.0232 66.5985C36.5388 77.5186 50.6733 81.0892 61.5934 74.5735Z" fill="#E8711A" stroke="#E8711A" stroke-width="1.6" stroke-miterlimit="10"/>
<path d="M39.463 56.0722C38.4859 56.6552 37.3579 56.9354 36.2216 56.8773C35.0853 56.8192 33.9917 56.4254 33.0792 55.7458C32.1666 55.0662 31.4761 54.1313 31.095 53.0592C30.7138 51.9872 30.6591 50.8262 30.9378 49.723C31.2164 48.6199 31.816 47.6241 32.6605 46.8617C33.5051 46.0993 34.5568 45.6045 35.6826 45.4398C36.8084 45.2751 37.9578 45.4479 38.9854 45.9365C40.013 46.425 40.8726 47.2072 41.4556 48.1843C42.2361 49.4949 42.4647 51.0616 42.0911 52.5405C41.7175 54.0194 40.7723 55.2896 39.463 56.0722Z" fill="white"/>
<path d="M38.7277 27.5718C33.5577 20.8799 41.575 8.80076 51.8645 8.89058C48.6124 18.6755 51.8617 26.8196 38.7277 27.5718Z" fill="#49AF20" stroke="#E8711A" stroke-width="1.6" stroke-miterlimit="10"/>
</g>
<defs>
<clipPath id="clip0_65_5717">
<rect width="68" height="68" fill="white" transform="translate(0 34.8423) rotate(-30.8229)"/>
</clipPath>
</defs>
</svg>
