<svg width="95" height="96" viewBox="0 0 95 96" fill="none" xmlns="http://www.w3.org/2000/svg">
<g clip-path="url(#clip0_65_1273)">
<path d="M42.7222 37.1904C42.7222 37.1904 38.1848 23.9232 30.5566 22.2384" stroke="#E8711A" stroke-width="1.6" stroke-linecap="round" stroke-linejoin="round"/>
<path d="M62.6715 76.0629C73.7828 69.4332 77.4159 55.0513 70.7862 43.94C64.1565 32.8286 49.7746 29.1956 38.6633 35.8253C27.5519 42.455 23.9189 56.8369 30.5486 67.9482C37.1783 79.0595 51.5602 82.6926 62.6715 76.0629Z" fill="#E8711A" stroke="#E8711A" stroke-width="1.6" stroke-miterlimit="10"/>
<path d="M40.1542 57.2378C39.16 57.831 38.0122 58.116 36.856 58.0569C35.6998 57.9978 34.5871 57.5971 33.6586 56.9056C32.7301 56.2141 32.0275 55.2628 31.6396 54.172C31.2518 53.0812 31.1961 51.8999 31.4797 50.7774C31.7632 49.6549 32.3732 48.6418 33.2326 47.866C34.092 47.0903 35.1621 46.5868 36.3076 46.4192C37.4531 46.2516 38.6226 46.4275 39.6682 46.9245C40.7138 47.4216 41.5884 48.2176 42.1816 49.2118C42.9759 50.5453 43.2084 52.1394 42.8283 53.6442C42.4482 55.149 41.4864 56.4415 40.1542 57.2378Z" fill="white"/>
<path d="M39.4055 28.2383C34.145 21.4293 42.3027 9.13865 52.7724 9.23005C49.4633 19.1863 52.7694 27.473 39.4055 28.2383Z" fill="#49AF20" stroke="#E8711A" stroke-width="1.6" stroke-miterlimit="10"/>
</g>
<defs>
<clipPath id="clip0_65_1273">
<rect width="69.1905" height="69.1905" fill="white" transform="translate(0 35.6361) rotate(-30.8229)"/>
</clipPath>
</defs>
</svg>
