<svg width="95" height="96" viewBox="0 0 95 96" fill="none" xmlns="http://www.w3.org/2000/svg">
<g clip-path="url(#clip0_48_7)">
<path d="M42.722 37.1905C42.722 37.1905 38.1845 23.9233 30.5564 22.2386" stroke="#E8711A" stroke-width="1.6" stroke-linecap="round" stroke-linejoin="round"/>
<path d="M62.6715 76.063C73.7828 69.4333 77.4159 55.0514 70.7862 43.9401C64.1565 32.8288 49.7746 29.1957 38.6633 35.8254C27.5519 42.4551 23.9189 56.837 30.5486 67.9483C37.1783 79.0597 51.5602 82.6927 62.6715 76.063Z" fill="#E8711A" stroke="#E8711A" stroke-width="1.6" stroke-miterlimit="10"/>
<path d="M40.1539 57.2379C39.1597 57.8311 38.012 58.1162 36.8558 58.057C35.6995 57.9979 34.5868 57.5973 33.6583 56.9058C32.7298 56.2143 32.0272 55.2629 31.6394 54.1721C31.2515 53.0813 31.1959 51.9 31.4794 50.7775C31.763 49.6551 32.373 48.6419 33.2324 47.8661C34.0917 47.0904 35.1618 46.5869 36.3074 46.4193C37.4529 46.2517 38.6224 46.4276 39.6679 46.9247C40.7135 47.4217 41.5882 48.2177 42.1814 49.2119C42.9756 50.5454 43.2082 52.1395 42.828 53.6443C42.4479 55.1491 41.4861 56.4416 40.1539 57.2379Z" fill="white"/>
<path d="M39.4058 28.2385C34.1453 21.4294 42.303 9.13877 52.7726 9.23017C49.4636 19.1864 52.7697 27.4731 39.4058 28.2385Z" fill="#49AF20" stroke="#E8711A" stroke-width="1.6" stroke-miterlimit="10"/>
</g>
<defs>
<clipPath id="clip0_48_7">
<rect width="69.1905" height="69.1905" fill="white" transform="translate(0 35.6362) rotate(-30.8229)"/>
</clipPath>
</defs>
</svg>
