<svg width="544" height="646" viewBox="0 0 544 646" fill="none" xmlns="http://www.w3.org/2000/svg">
<path d="M529.328 59.4127C529.328 37.0965 529.426 15.718 529.426 5.88567C497.359 5.88567 30.1467 3.99023 11.3939 3.99023C11.3939 11.8693 11.2383 39.4608 11.2383 59.4127C12.0364 235.355 13.842 597.9 13.842 640.024C59.6337 640.024 488.229 642.073 529.612 642.007C529.612 601.224 529.412 235.758 529.328 59.4127Z" fill="white"/>
<path d="M276.582 187.947C276.582 190.928 276.602 212.963 276.602 216.311C273.929 216.311 223.961 216.183 221.002 216.183C221.002 212.684 220.803 190.112 220.803 187.825C222.022 187.819 274.511 187.947 276.582 187.947Z" fill="white"/>
<path d="M215.879 350.628C215.879 353.608 215.901 375.643 215.901 378.991C213.228 378.991 163.26 378.864 160.301 378.864C160.301 375.364 160.102 352.792 160.102 350.506C161.319 350.506 213.81 350.628 215.879 350.628Z" fill="white"/>
<path d="M451.381 508.873C451.381 511.853 451.401 533.888 451.401 537.236C448.728 537.236 398.76 537.109 395.803 537.109C395.803 533.609 395.604 511.037 395.604 508.751C396.821 508.751 449.31 508.873 451.381 508.873Z" fill="white"/>
<path d="M315.371 360.148C311.239 360.591 308.515 358.771 305.754 355.665C303.23 352.727 301.957 348.918 302.209 345.052C302.234 344.807 302.264 344.564 302.308 344.326H301.847C298.344 345.292 292.889 342.417 290.736 338.289C288.583 334.161 287.598 326.695 291.582 322.469C293.487 320.247 295.948 318.572 298.714 317.613C301.479 316.655 304.449 316.448 307.32 317.014C313.332 318.389 318.874 325.488 316.099 331.647C322.669 329.981 330.762 336.635 331.093 344.169L331.538 360.13L315.371 360.148Z" fill="#DBA25C"/>
<path d="M133.789 349.744C140.985 345.408 146.328 338.824 150.672 329.72C154.381 321.939 155.205 316.25 155.927 307.667C156.371 300.548 154.672 293.46 151.049 287.316L150.77 286.823L150.628 286.289C149.986 283.86 151.508 276.099 151.865 274.673C154.746 274.461 157.837 274.415 157.95 274.273C158.02 274.186 160.63 264.03 158.725 264.098C156.644 264.17 135.483 264.786 135.08 265.133C134.14 268.028 133.496 271.01 133.158 274.034C135.562 274.501 137.994 274.811 140.439 274.962C140.249 277.342 139.97 281.291 138.274 283.364C137.903 283.818 137.145 284.551 136.903 284.83C126.003 293.589 129.17 308.633 121.301 320.191C115.185 329.169 109.729 332.928 98.9406 334.199C94.9964 334.758 91.1292 335.767 87.4143 337.206C84.0225 338.513 81.7201 340.199 81.3609 343.812C80.8302 349.123 86.1494 353.153 91.2112 354.851C98.9406 357.445 109.094 356.659 117.149 355.422C123.016 354.645 128.671 352.716 133.789 349.744Z" fill="#FFDA71"/>
<path d="M304.174 201.714C302.193 200.969 300.462 199.678 299.184 197.991C297.905 196.303 297.131 194.288 296.95 192.179C296.95 189.631 296.652 152.062 296.652 148.189C296.903 143.721 298.52 139.439 301.285 135.92C300.595 133.401 300.713 130.933 302.8 130.933C305.274 130.933 329.391 130.915 333.4 130.915C334.443 130.915 335.579 131.334 335.579 133.546V136.808L335.876 137.06C338.559 139.344 339.84 146.296 339.84 148.432C339.84 151.349 339.904 188.274 339.904 190.375C339.904 196.064 337.558 201.213 334.453 201.213L304.174 201.714Z" fill="#CFCFCF"/>
<path d="M372.01 201.714C370.028 200.969 368.298 199.678 367.02 197.991C365.741 196.303 364.967 194.288 364.786 192.179C364.786 189.631 364.488 152.062 364.488 148.189C364.739 143.721 366.356 139.439 369.121 135.92C368.431 133.401 368.548 130.933 370.635 130.933C373.11 130.933 397.227 130.915 401.236 130.915C402.279 130.915 403.415 131.334 403.415 133.546V136.808L403.712 137.06C406.395 139.344 407.676 146.296 407.676 148.432C407.676 151.349 407.74 188.274 407.74 190.375C407.74 196.064 405.394 201.213 402.289 201.213L372.01 201.714Z" fill="#CFCFCF"/>
<path d="M437.852 201.714C435.87 200.969 434.14 199.678 432.862 197.991C431.583 196.303 430.808 194.288 430.627 192.179C430.627 189.631 430.33 152.062 430.33 148.189C430.581 143.721 432.198 139.439 434.963 135.92C434.273 133.401 434.39 130.933 436.477 130.933C438.951 130.933 463.069 130.915 467.078 130.915C468.121 130.915 469.256 131.334 469.256 133.546V136.808L469.554 137.06C472.237 139.344 473.518 146.296 473.518 148.432C473.518 151.349 473.582 188.274 473.582 190.375C473.582 196.064 471.236 201.213 468.131 201.213L437.852 201.714Z" fill="#CFCFCF"/>
<path d="M329.944 478.034C325.658 474.642 320.83 472.162 307.997 474.329C301.35 475.274 295.037 477.835 289.611 481.789C285.324 485.633 282.554 490.884 281.804 496.593C281.315 504 283.566 511.328 288.129 517.184C292.853 522.371 319.308 520.45 329.21 520.45" fill="#F2635F"/>
<path d="M146.04 476.51C142.648 474.635 139.12 472.163 126.287 474.329C119.641 475.274 113.327 477.836 107.902 481.789C103.614 485.633 100.845 490.885 100.094 496.594C99.5392 504.008 101.797 511.36 106.419 517.184C112.205 523.204 135.717 520.293 145.541 519.636" fill="#DBA25C"/>
<path d="M239.529 518.751C239.529 516.63 239.457 494.435 239.415 478.073C237.42 474.356 229.004 471.752 229.004 471.752C224.421 469.763 219.479 468.737 214.483 468.737C209.487 468.737 204.545 469.763 199.962 471.752C195.098 473.831 181.452 480.399 176.353 496.361C176.01 498.151 175.825 499.969 175.798 501.792C175.696 511.263 175.65 515.471 175.648 518.972L239.529 518.751Z" fill="#FFDA71"/>
<path d="M82.6928 200.327C84.3355 200.655 86.006 200.822 87.6808 200.826H107.02C110.343 200.993 113.645 200.207 116.535 198.56C119.219 196.546 119.081 193.091 119.081 188.123C119.081 167.355 118.7 150.992 118.509 130.346C118.491 128.281 116.156 123.858 115.502 121.928C103.874 121.94 88.9897 122.142 78.9219 122.15C78.2037 124.285 76.2065 128.734 76.1865 131.02C75.987 151.351 75.6199 167.58 75.6199 188.123C75.3784 191.333 75.9015 194.555 77.1462 197.524C78.57 199.132 80.5541 200.134 82.6928 200.327Z" fill="#C5DBEF"/>
<path d="M76.0538 140.023C75.9002 149.6 75.6947 152.439 75.6328 163.087C89.5154 162.64 105.194 162.924 119.06 163.287C119 152.453 118.797 149.452 118.633 140.005L76.0538 140.023Z" fill="#3F88C9"/>
<path d="M147.868 200.328C149.511 200.655 151.181 200.822 152.856 200.826H172.195C175.521 200.995 178.825 200.209 181.718 198.56C184.402 196.547 184.264 193.091 184.264 188.123C184.264 167.355 183.883 150.992 183.692 130.346C183.298 127.397 182.584 124.5 181.561 121.707C169.933 121.719 153.941 121.921 143.874 121.928C142.695 124.855 141.851 127.905 141.358 131.021C141.17 151.352 140.793 167.581 140.793 188.123C140.553 191.334 141.077 194.555 142.321 197.524C143.745 199.132 145.729 200.135 147.868 200.328Z" fill="#C5DBEF"/>
<path d="M141.23 140.023C141.076 149.6 140.872 152.439 140.811 163.087C154.693 162.64 170.369 162.924 184.236 163.287C184.176 152.453 183.973 149.452 183.811 140.005L141.23 140.023Z" fill="#3F88C9"/>
<path d="M429.206 362.036C426.594 362.02 423.725 362.002 420.563 361.986C418.49 358.732 416.772 356.03 416.772 356.03C414.547 355.539 412.484 354.487 410.781 352.973C409.078 351.459 407.791 349.534 407.043 347.381C404.912 339.001 406.245 332.846 408.566 329.207C410.495 326.182 413.224 320.562 422.783 320.113C426.864 319.913 445.948 321.31 450.495 326.984C450.736 327.22 450.951 327.482 451.133 327.766C451.343 338.65 451.516 352.108 451.644 362.203C447.005 362.162 440.523 362.104 429.206 362.036Z" fill="#DBA25C"/>
<path d="M92.8848 476.866C94.5049 473.424 100.119 469.152 106.759 468.64C109.637 468.5 112.511 468.985 115.185 470.059C117.858 471.134 120.267 472.774 122.248 474.867C119.413 479.152 114.433 484.314 107.005 484.725C104.158 484.83 101.336 484.153 98.847 482.768C96.3577 481.382 94.2956 479.341 92.8848 476.866Z" fill="#6DBF6B"/>
<path d="M279.284 489.291C278.486 485.574 280.343 478.769 285.307 474.327C287.509 472.469 290.086 471.108 292.862 470.338C295.638 469.567 298.548 469.407 301.393 469.866C301.744 474.992 300.924 482.117 295.273 486.955C293.076 488.769 290.424 489.945 287.605 490.357C284.786 490.769 281.908 490.4 279.284 489.291Z" fill="#6DBF6B"/>
<path d="M237.666 471.78C228.463 466.368 217.663 464.331 207.121 466.02C198.075 467.279 189.236 470.609 183.879 478.39C180.958 482.632 187.869 486.626 190.771 482.418C194.725 476.674 202.343 474.585 208.927 473.771C217.483 472.543 226.203 474.274 233.641 478.677C238.031 481.367 242.047 474.467 237.668 471.786L237.666 471.78Z" fill="#372A69"/>
<path d="M222.401 487.767C221.084 491.399 219.754 495.024 218.439 498.653C218.299 499.167 218.262 499.703 218.33 500.23C218.399 500.758 218.571 501.267 218.838 501.728C219.102 502.18 219.453 502.576 219.87 502.893C220.288 503.21 220.764 503.442 221.271 503.575C221.777 503.708 222.306 503.74 222.825 503.668C223.344 503.597 223.844 503.425 224.297 503.16C225.164 502.6 225.812 501.758 226.13 500.776C227.447 497.145 228.768 493.516 230.093 489.888C230.304 489.123 230.282 488.313 230.03 487.56C229.778 486.807 229.307 486.147 228.678 485.663C228.048 485.18 227.289 484.895 226.497 484.845C225.705 484.795 224.916 484.982 224.231 485.383C223.362 485.942 222.714 486.784 222.397 487.767H222.401Z" fill="#372A69"/>
<path d="M203.865 488.272L206.155 496.006C206.449 497.001 207.102 497.851 207.989 498.39C208.921 498.922 210.026 499.066 211.064 498.789C212.069 498.51 212.927 497.852 213.458 496.953C213.989 496.02 214.132 494.916 213.857 493.879L211.566 486.147C211.274 485.151 210.62 484.301 209.733 483.763C209.047 483.36 208.257 483.17 207.463 483.22C206.669 483.269 205.908 483.554 205.278 484.038C204.647 484.523 204.176 485.185 203.924 485.939C203.672 486.694 203.652 487.506 203.865 488.272Z" fill="#372A69"/>
<path d="M205.262 503.238C200.928 501.015 196.652 498.679 192.317 496.454C191.404 495.927 190.318 495.782 189.299 496.052C188.279 496.322 187.408 496.985 186.876 497.895C186.343 498.806 186.193 499.89 186.458 500.911C186.723 501.932 187.381 502.807 188.288 503.344C192.624 505.568 196.9 507.905 201.233 510.127C202.147 510.661 203.236 510.811 204.26 510.542C204.767 510.409 205.243 510.178 205.66 509.861C206.078 509.544 206.429 509.148 206.693 508.696C206.958 508.243 207.13 507.743 207.202 507.224C207.273 506.705 207.241 506.176 207.108 505.669C206.975 505.162 206.744 504.686 206.427 504.269C206.11 503.851 205.714 503.5 205.262 503.236V503.238Z" fill="#372A69"/>
<path d="M525.336 59.4128C525.355 99.8488 525.375 140.281 525.396 180.709C525.42 227.92 525.445 275.132 525.47 322.344C525.492 368.417 525.516 414.49 525.54 460.563C525.557 498.353 525.576 536.143 525.596 573.933C525.604 595.466 525.612 616.998 525.62 638.532V642.008L529.61 638.017C522.096 638.029 514.582 638.001 507.064 637.979C493.655 637.941 480.245 637.896 466.835 637.846C448.842 637.78 430.85 637.714 412.857 637.646C391.874 637.56 370.891 637.472 349.907 637.385C327.176 637.292 304.444 637.195 281.711 637.095L213.18 636.804C191.448 636.711 169.717 636.619 147.987 636.529L91.0184 636.295C76.0278 636.238 61.0379 636.182 46.0487 636.128C36.6274 636.096 27.2054 636.069 17.7828 636.048H13.8343L17.8247 640.038C17.8247 620.757 17.7149 601.473 17.6371 582.19C17.4921 546.163 17.3352 510.137 17.1662 474.11C16.9587 428.796 16.7479 383.484 16.5338 338.171L15.8694 196.872C15.6738 155.297 15.4796 113.723 15.2868 72.1501L15.2269 59.4128C15.205 54.2792 7.22419 54.2692 7.24614 59.4128C7.43103 99.7783 7.61991 140.143 7.81277 180.507L8.47717 320.917C8.69399 366.845 8.9088 412.772 9.12162 458.697C9.29321 496.244 9.45881 533.792 9.61843 571.34C9.70754 593.067 9.78336 614.794 9.84588 636.521C9.84588 637.69 9.84588 638.858 9.84588 640.024C9.86033 641.078 10.2854 642.085 11.0306 642.83C11.7758 643.575 12.7824 644 13.8363 644.015C21.7399 644.015 29.6422 644.033 37.5432 644.071C51.2568 644.114 64.9698 644.164 78.6821 644.218L133.322 644.438L196.68 644.705L265.035 644.996L333.47 645.288L398.314 645.557C417.105 645.635 435.896 645.71 454.686 645.78C469.391 645.836 484.096 645.888 498.8 645.936C507.857 645.964 516.913 645.985 525.967 646H529.606C530.659 645.984 531.665 645.559 532.41 644.814C533.155 644.069 533.581 643.063 533.596 642.01C533.596 622.902 533.59 603.794 533.576 584.684C533.56 548.431 533.543 512.177 533.524 475.922C533.501 430.466 533.477 385.009 533.455 339.552C533.431 292.044 533.406 244.536 533.381 197.027C533.361 155.479 533.34 113.931 533.319 72.3816V59.4128C533.319 54.2772 525.338 54.2692 525.338 59.4128H525.336Z" fill="#372A69"/>
<path d="M14.8519 57.4177C14.8519 39.6066 15.3686 21.7995 15.3846 3.99039L11.3942 7.98078C17.2262 7.98078 23.0581 8.0107 28.8881 8.03066C41.6254 8.07455 54.362 8.12044 67.098 8.16832L121.088 8.36784L185.932 8.61525L256.681 8.88859L328.411 9.16393L396.185 9.41931C415.811 9.4938 435.44 9.56629 455.07 9.63679C470.089 9.68999 485.11 9.74187 500.131 9.79241C508.899 9.82035 517.668 9.84495 526.438 9.86624H529.43L525.44 5.87585C525.44 23.0531 525.453 40.2304 525.478 57.4077C525.478 62.5434 533.459 62.5513 533.459 57.4077C533.459 40.2318 533.446 23.0545 533.421 5.87585C533.406 4.82219 532.981 3.81588 532.235 3.07076C531.49 2.32563 530.484 1.90041 529.43 1.88546C522.425 1.88546 515.42 1.85553 508.415 1.83358C494.757 1.799 481.099 1.75644 467.442 1.70589L411.455 1.50637L345.384 1.25298L274.155 0.981636L202.721 0.706299L135.998 0.448919C116.977 0.377092 97.9564 0.305265 78.9355 0.233438C64.767 0.178902 50.6011 0.127027 36.4379 0.0778126C28.7803 0.0498799 21.1234 0.0239423 13.4672 0H11.3942C10.3405 0.0149551 9.33423 0.440171 8.58911 1.1853C7.84398 1.93042 7.41877 2.93673 7.40381 3.99039C7.38785 21.7995 6.87708 39.6066 6.87109 57.4177C6.87109 62.5533 14.8519 62.5613 14.8519 57.4177Z" fill="#372A69"/>
<path d="M496.479 60.52C496.479 67.1706 496.479 73.8213 496.479 80.4719C496.479 92.745 496.486 105.017 496.5 117.289L496.536 166.662L496.578 224.964C496.594 245.955 496.61 266.947 496.624 287.94L496.672 351.258C496.687 371.305 496.701 391.354 496.716 411.403L496.752 463.839C496.763 477.539 496.771 491.245 496.778 504.956C496.778 513.454 496.782 521.951 496.792 530.448V533.82C496.792 538.954 504.773 538.964 504.773 533.82C504.773 526.789 504.773 519.758 504.773 512.729L504.749 475.02L504.713 425.008L504.671 366.309C504.655 345.267 504.64 324.224 504.625 303.181C504.609 282.107 504.594 261.032 504.579 239.956C504.563 220.02 504.548 200.084 504.535 180.148C504.52 162.864 504.508 145.579 504.497 128.293C504.489 114.858 504.481 101.424 504.471 87.9898C504.471 79.8521 504.467 71.7124 504.459 63.5707C504.459 62.5451 504.459 61.5203 504.459 60.4961C504.459 55.3624 496.479 55.3524 496.479 60.4961V60.52Z" fill="#372A69"/>
<path d="M35.5898 60.5201C35.5898 67.1708 35.5932 73.8214 35.5998 80.472C35.5998 92.7452 35.6071 105.018 35.6218 117.289L35.6577 166.662L35.6996 224.964C35.7155 245.955 35.7308 266.947 35.7455 287.94L35.7934 351.258C35.808 371.306 35.8226 391.354 35.8372 411.403L35.8732 463.839C35.8838 477.539 35.8924 491.245 35.8991 504.956C35.8991 513.454 35.9038 521.951 35.9131 530.448V533.82C35.9131 538.954 43.8938 538.964 43.8938 533.82C43.8938 526.789 43.8938 519.759 43.8938 512.729L43.8699 475.02L43.834 425.008L43.7921 366.31C43.7761 345.267 43.7608 324.224 43.7462 303.182C43.7302 282.107 43.7149 261.032 43.7003 239.956C43.679 220.029 43.6631 200.099 43.6524 180.166C43.6378 162.882 43.6252 145.597 43.6145 128.311C43.6065 114.877 43.5979 101.442 43.5886 88.0079C43.5886 79.8702 43.5846 71.7304 43.5766 63.5887C43.5766 62.5632 43.5766 61.5383 43.5766 60.5141C43.5766 55.3805 35.5958 55.3705 35.5958 60.5141L35.5898 60.5201Z" fill="#372A69"/>
<path d="M39.6819 539.95C44.8176 539.95 44.8255 531.969 39.6819 531.969C34.5383 531.969 34.5383 539.95 39.6819 539.95Z" fill="#372A69"/>
<path d="M88.8945 515.933C73.4757 515.909 58.0562 515.888 42.636 515.869C37.5003 515.869 37.4924 523.85 42.636 523.85C58.0575 523.85 73.477 523.871 88.8945 523.914C94.0302 523.914 94.0382 515.933 88.8945 515.933Z" fill="#372A69"/>
<path d="M303.489 516.29C284.162 516.29 264.834 516.261 245.504 516.204L152.881 516.041L110.398 515.967C105.262 515.967 105.254 523.948 110.398 523.948C138.134 523.993 165.867 524.041 193.597 524.093C222.105 524.142 250.613 524.191 279.121 524.239C287.235 524.252 295.355 524.263 303.481 524.271C308.616 524.271 308.624 516.29 303.481 516.29H303.489Z" fill="#372A69"/>
<path d="M395.416 516.476C364.774 516.429 334.132 516.379 303.489 516.326C298.354 516.326 298.346 524.307 303.489 524.307C334.132 524.361 364.774 524.411 395.416 524.457C400.552 524.457 400.56 516.476 395.416 516.476Z" fill="#372A69"/>
<path d="M497.688 516.608C482.417 516.608 467.145 516.59 451.874 516.556C446.739 516.556 446.731 524.536 451.874 524.536C467.145 524.559 482.417 524.576 497.688 524.588C502.824 524.588 502.832 516.608 497.688 516.608Z" fill="#372A69"/>
<path d="M160.279 372.786C125.462 372.635 90.643 372.502 55.8229 372.387C51.1089 372.375 46.3942 372.367 41.6789 372.361C36.5433 372.361 36.5353 380.342 41.6789 380.342C69.1986 380.342 96.7204 380.508 124.24 380.621L160.279 380.775C165.417 380.799 165.423 372.818 160.279 372.794V372.786Z" fill="#372A69"/>
<path d="M492.519 374.208C470.013 374.244 447.508 374.069 425.002 373.973C382.261 373.791 339.519 373.6 296.777 373.4L216.37 373.035C211.235 373.013 211.227 380.992 216.37 381.016C263.489 381.227 310.607 381.442 357.724 381.658C393.56 381.821 429.395 381.974 465.229 382.117C474.327 382.149 483.423 382.203 492.521 382.189C497.655 382.189 497.665 374.208 492.521 374.208H492.519Z" fill="#372A69"/>
<path d="M159.838 356.82C125.892 356.673 91.9459 356.54 57.9997 356.421C53.7433 356.409 49.4869 356.401 45.2305 356.396C40.0948 356.396 40.0849 364.376 45.2305 364.376C71.5032 364.376 97.7779 364.542 124.053 364.652L159.844 364.805C164.98 364.827 164.986 356.846 159.844 356.824L159.838 356.82Z" fill="#372A69"/>
<path d="M254.277 357.244C242.158 357.188 230.039 357.13 217.92 357.07C212.785 357.046 212.779 365.027 217.92 365.051C230.039 365.104 242.158 365.162 254.277 365.225C259.412 365.249 259.42 357.268 254.277 357.244Z" fill="#372A69"/>
<path d="M372.877 357.808C342.061 357.675 311.246 357.517 280.432 357.333C275.296 357.309 275.29 365.29 280.432 365.314C311.247 365.447 342.062 365.605 372.877 365.789C378.013 365.813 378.019 357.832 372.877 357.808Z" fill="#372A69"/>
<path d="M496.062 358.247C475.288 358.279 454.512 358.117 433.738 358.025L402.363 357.888C397.226 357.866 397.22 365.847 402.363 365.869C430.233 365.99 458.105 366.105 485.978 366.216C489.34 366.224 492.702 366.228 496.062 366.228C501.197 366.228 501.207 358.247 496.062 358.247Z" fill="#372A69"/>
<path d="M495.927 214.593C489.177 214.593 482.43 214.577 475.68 214.557C463.852 214.523 452.024 214.481 440.195 214.432C424.591 214.369 408.987 214.303 393.382 214.232L338.47 213.989L279.323 213.717L219.89 213.444L163.276 213.187C146.663 213.112 130.05 213.04 113.436 212.969C100.356 212.913 87.2753 212.861 74.1948 212.814C65.7471 212.782 57.3008 212.756 48.8558 212.738H45.2266C40.0909 212.738 40.081 220.719 45.2266 220.719C52.3401 220.719 59.4563 220.736 66.5751 220.77C78.69 220.813 90.8048 220.86 102.92 220.91C118.73 220.975 134.539 221.042 150.349 221.11C168.784 221.192 187.217 221.276 205.648 221.361L264.941 221.632L324.286 221.906C343.041 221.99 361.803 222.073 380.573 222.157C396.997 222.229 413.424 222.299 429.854 222.367C442.67 222.418 455.484 222.467 468.298 222.512C476.399 222.539 484.501 222.558 492.603 222.57H495.945C501.079 222.57 501.089 214.589 495.945 214.589L495.927 214.593Z" fill="#372A69"/>
<path d="M82.022 196.876C69.7556 196.83 57.4891 196.797 45.2227 196.776C40.087 196.776 40.077 204.757 45.2227 204.757C57.4891 204.757 69.7556 204.79 82.022 204.856C87.1576 204.876 87.1656 196.896 82.022 196.876Z" fill="#372A69"/>
<path d="M220.58 197.465C191.261 197.313 161.942 197.149 132.622 196.972C125.511 196.941 118.4 196.909 111.289 196.876C106.151 196.858 106.145 204.839 111.289 204.857C137.97 204.958 164.651 205.101 191.332 205.286C201.083 205.342 210.833 205.395 220.582 205.445C225.719 205.471 225.723 197.491 220.58 197.465Z" fill="#372A69"/>
<path d="M304.525 197.875C295.46 197.835 286.396 197.793 277.332 197.748C276.274 197.748 275.259 198.168 274.511 198.916C273.762 199.665 273.342 200.68 273.342 201.738C273.342 202.796 273.762 203.811 274.511 204.56C275.259 205.308 276.274 205.728 277.332 205.728C286.397 205.772 295.461 205.815 304.525 205.856C305.583 205.856 306.598 205.436 307.346 204.687C308.095 203.939 308.515 202.924 308.515 201.866C308.515 200.807 308.095 199.792 307.346 199.044C306.598 198.296 305.583 197.875 304.525 197.875Z" fill="#372A69"/>
<path d="M372.01 198.099C359.711 198.041 347.413 197.988 335.116 197.937C329.981 197.915 329.973 205.896 335.116 205.918C347.413 205.976 359.711 206.03 372.01 206.079C377.145 206.105 377.151 198.125 372.01 198.099Z" fill="#372A69"/>
<path d="M402.586 205.918C429.776 206.034 456.969 205.966 484.161 206.032C489.556 206.044 494.953 206.06 500.35 206.08C505.486 206.106 505.492 198.125 500.35 198.099C477.889 197.995 455.427 197.937 432.967 197.923C422.839 197.923 412.712 197.981 402.586 197.937C397.448 197.917 397.442 205.898 402.586 205.918Z" fill="#372A69"/>
<path d="M539.808 54.9775C532.107 54.9775 524.403 54.9616 516.7 54.9416C502.848 54.907 488.994 54.8651 475.138 54.8159C456.415 54.7547 437.693 54.6882 418.971 54.6164L353.315 54.373L282.476 54.1076L210.958 53.8323L143.269 53.5769C123.412 53.5064 103.554 53.4332 83.6947 53.3574C68.212 53.3016 52.73 53.249 37.2486 53.1998C27.556 53.1692 17.8626 53.1446 8.16865 53.126H4.21018C-0.925445 53.126 -0.933426 61.1068 4.21018 61.1068C12.3027 61.1068 20.3952 61.124 28.4877 61.1586C42.6443 61.2012 56.8008 61.2477 70.9574 61.2983C89.9025 61.3648 108.845 61.4313 127.787 61.4978L193.851 61.7472L264.848 62.0186L336.276 62.2919L403.62 62.5433C423.277 62.6151 442.933 62.6849 462.59 62.7528C477.789 62.8047 492.988 62.8532 508.186 62.8984C517.512 62.925 526.837 62.9443 536.163 62.9563C537.377 62.9563 538.594 62.9563 539.812 62.9563C544.948 62.9563 544.958 54.9755 539.812 54.9755L539.808 54.9775Z" fill="#372A69"/>
<path d="M539.808 533.824C532.107 533.824 524.403 533.808 516.7 533.788C502.848 533.754 488.994 533.712 475.138 533.663C456.415 533.601 437.693 533.535 418.971 533.463L353.315 533.22L282.474 532.95L210.956 532.675L143.267 532.42C123.408 532.344 103.551 532.271 83.6947 532.2C68.212 532.144 52.73 532.092 37.2486 532.043C27.556 532.013 17.8626 531.989 8.16865 531.969H4.21018C-0.925445 531.969 -0.933426 539.95 4.21018 539.95C12.3027 539.95 20.3952 539.967 28.4877 540.001C42.6443 540.043 56.8008 540.089 70.9574 540.141C89.9025 540.208 108.845 540.274 127.787 540.341L193.851 540.59L264.848 540.861L336.276 541.135L403.62 541.386C423.277 541.458 442.933 541.524 462.59 541.586C477.789 541.637 492.988 541.686 508.186 541.731C517.512 541.757 526.837 541.776 536.163 541.789H539.812C544.948 541.789 544.958 533.808 539.812 533.808L539.808 533.824Z" fill="#372A69"/>
<path d="M212.03 351.689C212.076 351.958 211.971 350.622 212.002 351.597C212.014 351.996 212.056 352.385 212.076 352.778C212.132 353.854 212.16 354.933 212.184 356.011C212.25 358.948 212.264 361.888 212.27 364.827C212.28 369.482 212.234 374.139 212.23 378.794L216.22 374.803C200.147 374.803 184.072 374.544 167.998 374.416C165.341 374.394 162.681 374.362 160.018 374.36L164.008 378.351C164.008 369.299 164.114 360.246 164.12 351.194L161.191 355.041C161.933 354.804 160.006 355.071 160.792 355.083C161.215 355.083 161.658 355.015 162.081 354.989C163.431 354.909 164.784 354.863 166.135 354.817C170.311 354.68 174.489 354.6 178.665 354.53C188.208 354.375 197.755 354.275 207.298 354.351C209.093 354.365 210.889 354.383 212.685 354.434C213.331 354.452 213.978 354.468 214.624 354.508C215.111 354.536 216.669 354.758 214.824 354.474C215.844 354.721 216.919 354.57 217.832 354.051C218.744 353.532 219.423 352.684 219.732 351.681C220.005 350.66 219.865 349.572 219.342 348.654C218.819 347.735 217.956 347.06 216.939 346.773C210.143 345.723 202.882 346.324 196.039 346.358C186.426 346.406 176.807 346.505 167.2 346.799C164.479 346.627 161.747 346.809 159.072 347.339C158.238 347.587 157.505 348.094 156.979 348.785C156.452 349.477 156.159 350.319 156.143 351.188C156.143 360.24 156.035 369.293 156.031 378.345C156.047 379.398 156.472 380.404 157.217 381.149C157.962 381.894 158.968 382.32 160.022 382.335C176.145 382.349 192.27 382.597 208.391 382.724C211.001 382.744 213.611 382.778 216.22 382.778C217.274 382.763 218.28 382.337 219.025 381.592C219.77 380.847 220.195 379.841 220.211 378.788C220.211 373.941 220.265 369.095 220.251 364.249C220.484 359.346 220.309 354.432 219.726 349.558C219.439 348.541 218.763 347.677 217.845 347.155C216.926 346.632 215.839 346.492 214.818 346.765C213.806 347.066 212.951 347.747 212.431 348.665C211.911 349.583 211.768 350.667 212.03 351.689Z" fill="#372A69"/>
<path d="M176.165 369.133C182.328 369.133 182.338 359.556 176.165 359.556C169.992 359.556 169.992 369.133 176.165 369.133Z" fill="#372A69"/>
<path d="M190.466 368.556C193.636 368.556 196.833 368.451 199.999 368.668C200.788 368.668 201.56 368.434 202.216 367.995C202.872 367.557 203.383 366.934 203.685 366.205C203.987 365.476 204.066 364.673 203.912 363.899C203.758 363.125 203.378 362.414 202.82 361.856C202.05 361.142 201.049 360.728 199.999 360.687C196.833 360.47 193.636 360.576 190.466 360.576C189.41 360.588 188.4 361.007 187.645 361.745C187.087 362.303 186.707 363.014 186.553 363.788C186.399 364.562 186.478 365.364 186.78 366.093C187.082 366.822 187.594 367.445 188.25 367.883C188.906 368.322 189.677 368.556 190.466 368.556Z" fill="#372A69"/>
<path d="M272.734 189.003C272.782 189.272 272.676 187.935 272.706 188.911C272.72 189.31 272.76 189.699 272.782 190.092C272.837 191.167 272.863 192.247 272.887 193.324C272.953 196.261 272.969 199.202 272.975 202.141C272.975 206.796 272.937 211.453 272.933 216.107L276.924 212.117C260.85 212.117 244.775 211.858 228.704 211.73C226.044 211.708 223.385 211.676 220.723 211.674L224.713 215.664C224.713 206.02 224.925 196.377 224.937 186.734L222.006 190.581C222.487 190.431 220.697 190.609 221.607 190.637C222.03 190.651 222.471 190.595 222.894 190.583C224.242 190.543 225.591 190.541 226.94 190.541C231.108 190.541 235.276 190.601 239.444 190.673C248.969 190.836 258.498 191.072 268.017 191.435C269.813 191.505 271.608 191.578 273.386 191.678C274.033 191.714 274.677 191.758 275.323 191.8C275.541 191.816 275.758 191.85 275.976 191.856C276.794 191.882 275.357 191.762 275.519 191.788C276.539 192.036 277.615 191.885 278.528 191.366C279.44 190.847 280.12 189.998 280.427 188.995C280.7 187.973 280.56 186.886 280.038 185.967C279.515 185.048 278.651 184.372 277.634 184.085C270.707 183.314 263.739 182.981 256.77 183.087C247.181 182.818 237.586 182.588 227.991 182.564C225.286 182.287 222.554 182.396 219.879 182.887C219.045 183.135 218.312 183.641 217.785 184.333C217.259 185.025 216.966 185.867 216.95 186.736C216.938 196.379 216.735 206.022 216.727 215.666C216.743 216.72 217.168 217.726 217.913 218.47C218.658 219.215 219.664 219.641 220.717 219.657C236.84 219.671 252.965 219.918 269.086 220.046C271.696 220.066 274.306 220.1 276.916 220.1C277.969 220.084 278.975 219.659 279.72 218.914C280.465 218.169 280.891 217.163 280.906 216.109C280.906 211.263 280.96 206.417 280.946 201.57C281.18 196.667 281.004 191.754 280.421 186.88C280.134 185.863 279.458 185 278.539 184.478C277.621 183.955 276.534 183.815 275.513 184.086C274.506 184.391 273.655 185.071 273.137 185.987C272.62 186.903 272.475 187.983 272.734 189.003Z" fill="#372A69"/>
<path d="M235.653 205.417C241.816 205.417 241.826 195.84 235.653 195.84C229.48 195.84 229.48 205.417 235.653 205.417Z" fill="#372A69"/>
<path d="M249.102 205.491C255.263 205.491 255.273 195.914 249.102 195.914C242.931 195.914 242.929 205.491 249.102 205.491Z" fill="#372A69"/>
<path d="M262.477 205.86C268.64 205.86 268.65 196.283 262.477 196.283C256.304 196.283 256.306 205.86 262.477 205.86Z" fill="#372A69"/>
<path d="M447.728 510.501C447.529 509.346 447.728 510.86 447.766 511.608C447.816 512.688 447.836 513.767 447.852 514.848C447.894 517.682 447.886 520.519 447.87 523.354C447.842 527.915 447.74 532.478 447.732 537.041L451.722 533.05C435.651 533.05 419.574 532.791 403.503 532.663C400.843 532.641 398.183 532.61 395.522 532.606L399.512 536.596C399.512 527.175 399.686 517.753 399.696 508.332L395.705 512.322C401.811 512.011 408.02 512.386 414.125 512.464C423.712 512.59 433.299 512.727 442.88 513.007C444.721 513.061 446.563 513.117 448.404 513.206C449.013 513.234 449.623 513.262 450.232 513.304C451.108 513.368 451.557 513.454 450.511 513.29C451.531 513.538 452.608 513.387 453.52 512.868C454.432 512.349 455.112 511.501 455.419 510.497C455.693 509.476 455.553 508.388 455.03 507.469C454.508 506.551 453.644 505.875 452.626 505.589C445.745 504.853 438.822 504.578 431.904 504.765C422.303 504.577 412.702 504.444 403.102 504.366C400.645 504.344 398.155 504.22 395.699 504.346C394.647 504.365 393.643 504.792 392.899 505.536C392.155 506.28 391.728 507.284 391.709 508.336C391.709 517.757 391.531 527.179 391.525 536.6C391.54 537.654 391.966 538.66 392.711 539.405C393.456 540.15 394.462 540.575 395.516 540.59C411.637 540.606 427.762 540.854 443.883 540.979C446.493 541.001 449.103 541.035 451.712 541.035C452.766 541.02 453.772 540.595 454.518 539.85C455.263 539.105 455.688 538.099 455.703 537.045C455.703 532.294 455.819 527.544 455.842 522.791C456.117 517.985 455.974 513.165 455.413 508.384C455.126 507.367 454.45 506.504 453.532 505.982C452.613 505.459 451.526 505.319 450.505 505.591C449.499 505.894 448.649 506.574 448.131 507.488C447.614 508.403 447.47 509.482 447.728 510.501Z" fill="#372A69"/>
<path d="M416.328 527.529C422.489 527.529 422.499 517.952 416.328 517.952C410.157 517.952 410.155 527.529 416.328 527.529Z" fill="#372A69"/>
<path d="M430.297 527.751C436.458 527.751 436.468 518.174 430.297 518.174C424.126 518.174 424.124 527.751 430.297 527.751Z" fill="#372A69"/>
<path d="M83.0844 196.818C82.4172 196.776 81.7592 196.642 81.1291 196.419C81.2428 196.481 81.0014 196.207 80.8398 195.932C80.2842 194.917 79.9375 193.801 79.8202 192.65C79.4683 188.562 79.4017 184.454 79.6207 180.357C79.6606 171.622 79.7684 162.889 79.8861 154.154C79.9446 149.935 80.0005 145.714 80.0537 141.491C79.7877 136.991 79.9212 132.476 80.4527 127.999C81.3718 124.482 83.0581 121.211 85.3908 118.423C87.4738 115.504 89.5807 112.591 91.4462 109.53C94.1318 105.141 87.2324 101.122 84.5548 105.502C81.2747 110.871 76.5741 115.699 74.1499 121.519C71.2549 128.456 72.1348 136.445 72.041 143.801C71.8415 159.13 71.1272 174.573 71.6419 189.89C71.8574 196.275 73.5932 203.502 80.9495 204.505C81.9697 204.75 83.0449 204.598 83.9569 204.079C84.8688 203.561 85.5491 202.714 85.8597 201.712C86.1333 200.691 85.9935 199.603 85.4706 198.684C84.9478 197.766 84.084 197.09 83.0664 196.804L83.0844 196.818Z" fill="#372A69"/>
<path d="M103.331 110.135C105.064 112.601 106.878 115.007 108.62 117.465C110.707 120.416 113.071 123.09 114.007 126.657C115.11 130.823 114.558 135.613 114.605 139.899C114.66 144.421 114.719 148.94 114.783 153.454C114.905 162.433 115.018 171.429 115.056 180.415C115.374 184.775 115.334 189.153 114.939 193.506C114.795 194.435 114.325 195.282 113.612 195.894C112.9 196.506 111.992 196.844 111.052 196.846C105.92 196.934 105.904 204.914 111.052 204.827C114.037 204.787 116.9 203.639 119.086 201.607C121.272 199.574 122.624 196.801 122.88 193.827C123.15 190.151 123.21 186.463 123.059 182.78C123.046 178.618 123.019 174.456 122.979 170.296C122.905 162.447 122.79 154.596 122.686 146.753C122.631 142.741 122.582 138.728 122.538 134.714C122.759 130.767 122.32 126.81 121.24 123.008C119.045 116.783 113.991 111.466 110.222 106.102C107.293 101.931 100.37 105.915 103.331 110.131V110.135Z" fill="#372A69"/>
<path d="M89.6005 102.291C89.3842 102.309 89.1666 102.301 88.9521 102.267C89.0299 102.339 89.7502 102.467 89.2174 102.297C88.2198 101.99 89.7142 102.631 89.2534 102.343C90.1253 102.886 89.9377 102.918 89.7162 102.684C90.4046 103.407 90.2849 103.483 90.1153 103.177C90.6021 104.045 90.4844 104.139 90.3826 103.752C90.2709 103.325 90.5004 104.967 90.4864 104.448C90.4684 103.76 90.3986 104.885 90.3767 105.065C90.4265 104.648 90.5183 104.233 90.5482 103.816C90.6061 103.044 90.5482 102.25 90.5482 101.475C90.5482 98.4547 90.5542 95.434 90.5662 92.4132C90.5662 92.2496 90.5662 92.086 90.5662 91.9204C90.5662 91.4176 90.8375 91.276 90.4864 92.2975C90.5643 92.0876 90.6172 91.8693 90.644 91.6471C90.632 91.6191 90.227 92.6786 90.4445 92.104C90.4984 91.9663 90.8435 91.4236 90.4445 92.0421C89.9776 92.7963 90.7877 91.7827 90.1572 92.3534C89.4668 92.9779 90.6061 92.1199 89.8399 92.5529L89.5746 92.6686C89.9018 92.5928 89.8918 92.5848 89.5486 92.6387C89.5646 92.6946 88.8144 92.6387 89.6085 92.6626C89.8798 92.6626 90.1532 92.6626 90.4265 92.6626H103.381C103.603 92.6626 103.828 92.6626 104.05 92.6626C104.329 92.6527 104.768 92.8003 103.816 92.6048C104.128 92.6686 104.343 92.8821 103.525 92.4352C103.79 92.5788 103.998 92.8023 103.234 92.1539C103.359 92.2596 103.78 92.7185 103.3 92.1738C102.857 91.669 103.178 92.0601 103.27 92.2317C103.242 92.1818 102.988 91.248 103.048 91.7528C103.066 91.8567 103.092 91.9589 103.128 92.0581C103.238 92.3574 102.962 92.8282 103.052 91.4117C103.016 92.0102 103.078 92.6227 103.078 93.2073C103.078 96.4874 103.081 99.7675 103.088 103.048C103.088 103.373 103.058 103.716 103.088 104.045C103.114 104.414 103.385 102.79 103.112 103.622C102.976 104.033 103.579 102.671 103.347 103.054C103.116 103.437 104.082 102.271 103.647 102.684C103.212 103.097 104.032 102.387 104.028 102.389C103.519 102.73 104.341 102.19 104.397 102.244C104.377 102.226 103.936 102.403 103.904 102.359C103.872 102.315 104.772 102.321 104.056 102.287C103.796 102.275 103.531 102.287 103.272 102.287H89.6005C88.5422 102.287 87.5272 102.708 86.7789 103.456C86.0306 104.205 85.6101 105.22 85.6101 106.278C85.6101 107.336 86.0306 108.351 86.7789 109.099C87.5272 109.848 88.5422 110.268 89.6005 110.268H103.401C105.081 110.365 106.755 109.987 108.23 109.177C109.106 108.605 109.826 107.825 110.326 106.905C110.825 105.985 111.087 104.956 111.089 103.91C111.214 100.518 111.089 97.088 111.079 93.6902C111.225 91.8734 110.941 90.0477 110.251 88.361C109.692 87.2752 108.85 86.3608 107.814 85.7145C106.778 85.0682 105.586 84.7142 104.365 84.6898C102.21 84.5681 100.019 84.6898 97.8626 84.6898H90.3846C88.7625 84.5843 87.1454 84.962 85.7378 85.7752C84.7936 86.4324 84.018 87.3034 83.4743 88.3172C82.9307 89.3311 82.6343 90.459 82.6094 91.6092C82.3719 95.1447 82.5675 98.7599 82.5754 102.301C82.5375 102.792 82.5375 103.284 82.5754 103.774C82.5036 103.335 82.753 102.469 82.6952 102.878C82.6373 103.287 82.5635 103.676 82.5296 104.087C82.4843 104.784 82.5668 105.483 82.773 106.15C83.6508 109.143 86.7634 110.228 89.5985 110.278C90.6568 110.278 91.6718 109.858 92.4202 109.109C93.1685 108.361 93.5889 107.346 93.5889 106.288C93.5889 105.229 93.1685 104.215 92.4202 103.466C91.6718 102.718 90.6568 102.297 89.5985 102.297L89.6005 102.291Z" fill="#372A69"/>
<path d="M77.2922 144.017C90.7797 144.017 104.267 143.973 117.755 143.973C122.89 143.973 122.898 135.993 117.755 135.993C104.267 135.993 90.7797 136.037 77.2922 136.037C72.1566 136.037 72.1486 144.017 77.2922 144.017Z" fill="#372A69"/>
<path d="M76.2861 167.058C90.3003 166.645 104.327 166.9 118.341 167.257C123.478 167.389 123.474 159.408 118.341 159.276C104.327 158.917 90.3003 158.662 76.2861 159.077C71.1604 159.228 71.1385 167.209 76.2861 167.058Z" fill="#372A69"/>
<path d="M168.508 110.135C170.174 112.505 171.913 114.821 173.593 117.182C175.576 119.53 177.265 122.111 178.623 124.869C180.098 128.622 179.711 132.734 179.754 136.683C179.802 140.963 179.855 145.241 179.912 149.518C180.022 158.113 180.136 166.71 180.201 175.308C180.235 179.645 180.255 183.983 180.261 188.32C180.261 190.305 180.319 192.311 180.223 194.286C180.273 195.258 180.102 196.229 179.723 197.125C178.42 199.148 173.936 198.979 171.883 198.994C169.617 199.01 167.35 198.994 165.084 198.994C160.11 199.247 155.125 199.197 150.158 198.845C148.854 198.73 147.576 198.417 146.367 197.915C145.547 197.528 145.581 197.364 145.319 196.385C144.649 192.583 144.472 188.71 144.795 184.863C144.823 176.137 144.898 167.413 145.022 158.692C145.082 153.815 145.144 148.94 145.208 144.065C145.267 139.332 145.04 134.504 145.407 129.785C145.903 125.823 147.544 122.092 150.13 119.049C152.402 115.958 154.637 112.804 156.638 109.53C159.324 105.141 152.422 101.122 149.747 105.502C145.688 112.142 139.549 118.045 137.949 125.887C137.291 130.48 137.068 135.126 137.283 139.761C137.227 144.664 137.166 149.565 137.099 154.464C136.975 164.109 136.86 173.753 136.824 183.394C136.798 190.116 135.166 201.221 142.524 204.884C147.961 207.592 154.495 206.969 160.391 206.969C166.431 206.969 173.059 207.656 178.968 206.197C180.788 205.868 182.498 205.095 183.947 203.946C185.396 202.798 186.539 201.309 187.274 199.613C188.689 195.966 188.256 191.632 188.25 187.807C188.236 178.155 188.138 168.504 188.021 158.853C187.955 153.533 187.889 148.208 187.821 142.88C188.033 137.537 187.881 132.186 187.368 126.864C186.151 118.822 179.938 112.527 175.411 106.082C172.48 101.91 165.559 105.895 168.52 110.111L168.508 110.135Z" fill="#372A69"/>
<path d="M154.782 102.291C154.567 102.309 154.35 102.3 154.136 102.267C154.214 102.339 154.934 102.467 154.401 102.297C153.404 101.99 154.896 102.631 154.437 102.343C155.307 102.886 155.121 102.918 154.9 102.684C155.586 103.407 155.469 103.483 155.299 103.177C155.786 104.045 155.67 104.139 155.568 103.752C155.455 103.325 155.684 104.967 155.67 104.448C155.652 103.76 155.584 104.885 155.562 105.065C155.612 104.648 155.702 104.233 155.734 103.816C155.79 103.044 155.734 102.25 155.734 101.475C155.734 98.4547 155.739 95.434 155.75 92.4132C155.75 92.2496 155.75 92.086 155.75 91.9204C155.75 91.4176 156.023 91.276 155.67 92.2975C155.749 92.0877 155.802 91.8694 155.83 91.6471C155.816 91.6191 155.411 92.6786 155.63 92.104C155.684 91.9663 156.017 91.4236 155.63 92.0421C155.163 92.7963 155.973 91.7827 155.343 92.3534C154.653 92.9779 155.79 92.1199 155.024 92.5529L154.76 92.6686C155.086 92.5928 155.078 92.5848 154.734 92.6387C154.748 92.6946 153.998 92.6387 154.794 92.6626C155.066 92.6626 155.339 92.6626 155.61 92.6626H168.567C168.789 92.6626 169.012 92.6626 169.235 92.6626C169.515 92.6527 169.952 92.8003 169.002 92.6048C169.311 92.6686 169.527 92.8821 168.711 92.4352C168.976 92.5788 169.182 92.8023 168.417 92.1539C168.543 92.2596 168.966 92.7185 168.485 92.1738C168.04 91.669 168.364 92.0601 168.453 92.2317C168.427 92.1818 168.174 91.248 168.234 91.7528C168.251 91.8567 168.277 91.9588 168.312 92.0581C168.423 92.3574 168.148 92.8282 168.238 91.4116C168.2 92.0102 168.264 92.6227 168.264 93.2073C168.264 96.4874 168.264 99.7675 168.264 103.048C168.264 103.373 168.232 103.716 168.264 104.045C168.292 104.414 168.563 102.79 168.29 103.622C168.154 104.033 168.757 102.671 168.525 103.054C168.294 103.437 169.259 102.271 168.822 102.684C168.386 103.097 169.206 102.389 169.206 102.389C168.697 102.73 169.519 102.19 169.573 102.244C169.555 102.226 169.114 102.403 169.082 102.359C169.05 102.315 169.948 102.321 169.233 102.287C168.972 102.275 168.709 102.287 168.449 102.287H154.782C153.724 102.287 152.709 102.708 151.961 103.456C151.212 104.205 150.792 105.22 150.792 106.278C150.792 107.336 151.212 108.351 151.961 109.099C152.709 109.848 153.724 110.268 154.782 110.268H168.585C170.264 110.365 171.937 109.987 173.411 109.177C174.288 108.606 175.009 107.825 175.509 106.906C176.008 105.986 176.27 104.956 176.271 103.91C176.398 100.518 176.271 97.088 176.271 93.6902C176.416 91.8732 176.132 90.0476 175.441 88.361C174.882 87.2751 174.041 86.3605 173.005 85.7142C171.969 85.0679 170.777 84.7139 169.557 84.6898C167.402 84.5681 165.211 84.6898 163.054 84.6898H155.558C153.936 84.5846 152.319 84.9623 150.912 85.7752C149.968 86.4327 149.193 87.3038 148.649 88.3176C148.106 89.3314 147.81 90.4592 147.785 91.6092C147.548 95.1447 147.743 98.7599 147.751 102.301C147.713 102.791 147.713 103.284 147.751 103.774C147.677 103.335 147.927 102.469 147.869 102.878C147.811 103.287 147.739 103.676 147.705 104.087C147.659 104.784 147.741 105.483 147.947 106.15C148.825 109.143 151.937 110.228 154.772 110.278C155.831 110.278 156.846 109.858 157.594 109.109C158.342 108.361 158.763 107.346 158.763 106.288C158.763 105.229 158.342 104.215 157.594 103.466C156.846 102.718 155.831 102.297 154.772 102.297L154.782 102.291Z" fill="#372A69"/>
<path d="M142.469 144.017C155.956 144.017 169.444 143.973 182.931 143.973C188.067 143.973 188.075 135.993 182.931 135.993C169.444 135.993 155.956 136.037 142.469 136.037C137.333 136.037 137.323 144.017 142.469 144.017Z" fill="#372A69"/>
<path d="M155.127 125.839C159.744 125.839 164.361 125.795 168.978 125.795C170.036 125.795 171.051 125.375 171.799 124.626C172.548 123.878 172.968 122.863 172.968 121.805C172.968 120.747 172.548 119.732 171.799 118.983C171.051 118.235 170.036 117.814 168.978 117.814C164.361 117.814 159.744 117.858 155.127 117.858C154.069 117.858 153.054 118.279 152.305 119.027C151.557 119.775 151.137 120.79 151.137 121.849C151.137 122.907 151.557 123.922 152.305 124.67C153.054 125.419 154.069 125.839 155.127 125.839Z" fill="#372A69"/>
<path d="M141.46 167.058C155.477 166.645 169.503 166.9 183.517 167.257C188.655 167.389 188.651 159.408 183.517 159.276C169.503 158.917 155.477 158.662 141.46 159.077C136.337 159.228 136.315 167.209 141.46 167.058Z" fill="#372A69"/>
<path d="M356.473 273.564C356.473 298.146 356.468 322.729 356.457 347.312C356.457 351.382 356.457 355.453 356.457 359.525C356.457 364.66 364.438 364.668 364.438 359.525C364.438 335.981 364.443 312.431 364.454 288.873C364.454 283.772 364.454 278.669 364.454 273.564C364.454 268.428 356.473 268.42 356.473 273.564Z" fill="#372A69"/>
<path d="M437.831 285.756C416.702 285.357 395.561 285.46 374.43 285.46C369.294 285.46 369.284 293.441 374.43 293.441C395.561 293.441 416.702 293.347 437.831 293.736C442.969 293.832 442.969 285.851 437.831 285.756Z" fill="#372A69"/>
<path d="M395.269 304.365C387.288 304.365 379.307 304.088 371.326 304.082C370.268 304.082 369.253 304.502 368.505 305.251C367.756 305.999 367.336 307.014 367.336 308.072C367.336 309.131 367.756 310.146 368.505 310.894C369.253 311.642 370.268 312.063 371.326 312.063C379.307 312.063 387.288 312.34 395.269 312.346C396.327 312.346 397.342 311.926 398.09 311.177C398.839 310.429 399.259 309.414 399.259 308.356C399.259 307.297 398.839 306.282 398.09 305.534C397.342 304.786 396.327 304.365 395.269 304.365Z" fill="#372A69"/>
<path d="M388.47 308.61C383.296 308.61 378.125 308.333 372.951 308.329C371.893 308.329 370.878 308.75 370.13 309.498C369.381 310.246 368.961 311.261 368.961 312.319C368.961 313.378 369.381 314.393 370.13 315.141C370.878 315.889 371.893 316.31 372.951 316.31C378.125 316.31 383.296 316.585 388.47 316.591C389.528 316.591 390.543 316.171 391.292 315.422C392.04 314.674 392.46 313.659 392.46 312.601C392.46 311.543 392.04 310.528 391.292 309.779C390.543 309.031 389.528 308.61 388.47 308.61Z" fill="#372A69"/>
<path d="M280.28 306.139C272.3 306.139 264.319 305.861 256.338 305.855C255.28 305.855 254.265 306.276 253.516 307.024C252.768 307.773 252.348 308.788 252.348 309.846C252.348 310.904 252.768 311.919 253.516 312.667C254.265 313.416 255.28 313.836 256.338 313.836C264.319 313.836 272.3 314.114 280.28 314.12C281.339 314.12 282.354 313.699 283.102 312.951C283.85 312.202 284.271 311.187 284.271 310.129C284.271 309.071 283.85 308.056 283.102 307.308C282.354 306.559 281.339 306.139 280.28 306.139Z" fill="#372A69"/>
<path d="M273.931 310.827C268.757 310.827 263.586 310.55 258.412 310.546C257.354 310.546 256.339 310.966 255.591 311.715C254.842 312.463 254.422 313.478 254.422 314.536C254.422 315.595 254.842 316.61 255.591 317.358C256.339 318.106 257.354 318.527 258.412 318.527C263.586 318.527 268.757 318.802 273.931 318.808C274.989 318.808 276.004 318.388 276.753 317.639C277.501 316.891 277.921 315.876 277.921 314.818C277.921 313.759 277.501 312.744 276.753 311.996C276.004 311.248 274.989 310.827 273.931 310.827Z" fill="#372A69"/>
<path d="M361.286 277.553C386.697 277.553 412.108 277.771 437.519 277.878C441.764 277.896 446.01 277.922 450.258 277.922L446.267 273.932C446.295 295.121 446.926 316.318 447.397 337.499C447.564 344.981 447.74 352.463 447.744 359.947C447.744 365.082 455.725 365.092 455.725 359.947C455.709 336.892 454.831 313.824 454.476 290.771C454.39 285.159 454.254 279.544 454.248 273.932C454.232 272.878 453.807 271.873 453.062 271.128C452.317 270.383 451.311 269.957 450.258 269.941C425.049 269.941 399.839 269.722 374.64 269.618C370.193 269.6 365.743 269.574 361.296 269.572C356.16 269.572 356.153 277.553 361.296 277.553H361.286Z" fill="#372A69"/>
<path d="M236.762 273.341C236.762 297.948 236.919 322.556 237.003 347.163C237.017 351.283 237.037 355.403 237.039 359.523C237.039 364.659 245.02 364.667 245.02 359.523C245.02 335.954 244.848 312.383 244.776 288.814C244.76 283.657 244.749 278.499 244.742 273.341C244.742 268.205 236.762 268.197 236.762 273.341Z" fill="#372A69"/>
<path d="M317.234 285.755C296.105 285.394 274.962 285.157 253.831 285.46C248.699 285.536 248.685 293.517 253.831 293.441C274.962 293.13 296.105 293.375 317.234 293.736C322.371 293.824 322.371 285.843 317.234 285.755Z" fill="#372A69"/>
<path d="M242.771 276.787C242.201 277.111 240.036 277.26 241.574 277.27C242.242 277.27 242.913 277.242 243.581 277.234C245.71 277.214 247.841 277.216 249.966 277.22C256.712 277.234 263.457 277.286 270.203 277.342C285.798 277.468 301.392 277.621 316.986 277.799C321.599 277.847 326.214 277.921 330.827 277.923L326.837 273.932C326.865 295.121 327.497 316.318 327.968 337.499C328.134 344.981 328.309 352.463 328.313 359.947C328.313 365.083 336.294 365.093 336.294 359.947C336.278 336.893 335.4 313.824 335.045 290.772C334.959 285.159 334.825 279.545 334.817 273.932C334.802 272.879 334.377 271.873 333.632 271.128C332.887 270.383 331.881 269.957 330.827 269.942C304.091 269.926 277.366 269.305 250.634 269.242C248.218 269.242 245.8 269.23 243.384 269.256C241.804 269.086 240.208 269.306 238.733 269.896C234.266 272.428 238.282 279.325 242.761 276.787H242.771Z" fill="#372A69"/>
<path d="M335.118 205.21C346.664 204.254 344.555 187.155 344.541 178.905C344.525 169.264 344.51 159.621 344.497 149.975C344.497 144.674 343.378 138.044 339.36 134.243C335.631 130.715 329.982 136.348 333.717 139.885C336.173 142.209 336.51 146.697 336.51 149.662C336.51 153.101 336.516 156.542 336.526 159.983L336.568 186.798C336.568 187.927 336.582 189.059 336.568 190.19C336.583 191.657 336.398 193.118 336.02 194.535C335.799 195.313 335.486 196.062 335.086 196.764C334.687 197.492 334.164 197.309 335.11 197.231C330.028 197.652 329.982 205.637 335.11 205.212L335.118 205.21Z" fill="#372A69"/>
<path d="M297.341 135.516C292.013 144.161 293.35 154.301 293.426 163.989C293.49 173.008 293.572 182.026 293.625 191.044C293.626 194.037 294.497 196.965 296.131 199.471C297.765 201.978 300.093 203.956 302.831 205.164C307.448 207.359 311.504 200.473 306.86 198.275C305.689 197.832 304.628 197.142 303.748 196.252C302.868 195.362 302.191 194.293 301.762 193.117C301.477 192.197 301.626 192.696 301.612 191.92C301.612 191.521 301.612 191.136 301.612 190.745C301.592 187.286 301.568 183.823 301.54 180.356C301.473 171.134 301.406 161.912 301.341 152.69C301.341 151.322 301.309 149.951 301.319 148.582C301.441 145.36 302.446 142.234 304.224 139.544C306.925 135.155 300.034 131.146 297.333 135.516H297.341Z" fill="#372A69"/>
<path d="M305.558 133.461C305.517 134.458 302.42 134.777 303.839 134.935C304.194 134.954 304.551 134.954 304.906 134.935H308.348H318.579H328.816H332.512C332.922 134.959 333.333 134.959 333.743 134.935C334.257 134.871 333.932 135.175 333.573 134.843C334.415 135.617 332.278 134.103 332.252 133.576C332.274 134.628 332.701 135.631 333.445 136.374C334.188 137.118 335.191 137.545 336.243 137.567C337.298 137.556 338.307 137.133 339.053 136.387C339.799 135.64 340.223 134.631 340.233 133.576C340.311 132.175 339.921 130.787 339.125 129.632C338.329 128.476 337.171 127.618 335.834 127.192C334.74 126.979 333.624 126.903 332.512 126.964H324.345L305.84 126.976C305.064 126.976 304.278 126.938 303.501 126.976C302.682 127.003 301.876 127.194 301.131 127.538C300.386 127.882 299.718 128.372 299.166 128.978C298.613 129.585 298.188 130.296 297.916 131.07C297.643 131.843 297.528 132.664 297.578 133.483C297.578 134.541 297.998 135.556 298.746 136.304C299.495 137.053 300.51 137.473 301.568 137.473C302.626 137.473 303.641 137.053 304.39 136.304C305.138 135.556 305.558 134.541 305.558 133.483V133.461Z" fill="#372A69"/>
<path d="M300.471 157.666C312.959 157.666 325.447 157.455 337.934 157.449C343.07 157.449 343.078 149.468 337.934 149.468C325.447 149.468 312.959 149.677 300.471 149.685C295.335 149.685 295.325 157.666 300.471 157.666Z" fill="#372A69"/>
<path d="M309.944 189.156C316.117 189.156 322.288 189.053 328.459 189.051C329.517 189.051 330.532 188.63 331.281 187.882C332.029 187.134 332.449 186.119 332.449 185.06C332.449 184.002 332.029 182.987 331.281 182.239C330.532 181.49 329.517 181.07 328.459 181.07C322.288 181.07 316.117 181.172 309.944 181.176C308.885 181.176 307.87 181.596 307.122 182.344C306.374 183.093 305.953 184.108 305.953 185.166C305.953 186.224 306.374 187.239 307.122 187.988C307.87 188.736 308.885 189.156 309.944 189.156Z" fill="#372A69"/>
<path d="M402.289 205.21C413.837 204.254 411.726 187.155 411.712 178.905C411.698 169.264 411.683 159.621 411.668 149.975C411.668 144.674 410.551 138.044 406.533 134.243C402.802 130.715 397.155 136.348 400.89 139.885C403.344 142.209 403.684 146.697 403.684 149.662C403.684 153.101 403.688 156.542 403.697 159.983C403.712 168.921 403.727 177.86 403.741 186.798C403.741 187.927 403.753 189.059 403.741 190.19C403.755 191.657 403.57 193.118 403.191 194.535C402.972 195.313 402.659 196.062 402.259 196.764C401.86 197.492 401.337 197.309 402.281 197.231C397.199 197.652 397.155 205.637 402.281 205.212L402.289 205.21Z" fill="#372A69"/>
<path d="M364.512 135.516C359.187 144.161 360.522 154.3 360.597 163.989C360.663 173.007 360.743 182.026 360.797 191.044C360.797 194.036 361.668 196.964 363.302 199.471C364.936 201.978 367.263 203.956 370.001 205.164C374.62 207.359 378.674 200.473 374.029 198.274C372.859 197.832 371.798 197.142 370.918 196.252C370.039 195.362 369.362 194.292 368.933 193.117C368.646 192.197 368.798 192.696 368.782 191.92C368.782 191.521 368.782 191.136 368.782 190.745C368.762 187.286 368.738 183.823 368.71 180.356C368.643 171.134 368.577 161.912 368.51 152.69C368.51 151.322 368.478 149.951 368.488 148.582C368.618 145.362 369.63 142.239 371.413 139.554C374.115 135.164 367.223 131.156 364.522 135.526L364.512 135.516Z" fill="#372A69"/>
<path d="M372.73 133.461C372.69 134.458 369.592 134.778 371.01 134.935C371.366 134.954 371.722 134.954 372.078 134.935H375.519H385.751H395.99H399.683C400.093 134.959 400.504 134.959 400.914 134.935C401.429 134.871 401.114 135.175 400.747 134.843C401.587 135.618 399.45 134.103 399.424 133.576C399.446 134.628 399.873 135.63 400.617 136.374C401.361 137.117 402.363 137.545 403.414 137.567C404.47 137.557 405.479 137.133 406.225 136.387C406.971 135.641 407.395 134.632 407.405 133.576C407.483 132.176 407.095 130.79 406.301 129.634C405.506 128.479 404.351 127.62 403.015 127.192C401.921 126.979 400.804 126.903 399.691 126.964H391.527L373.021 126.976C372.245 126.976 371.457 126.938 370.683 126.976C369.863 127.003 369.057 127.194 368.312 127.538C367.567 127.882 366.898 128.371 366.346 128.978C365.793 129.584 365.368 130.296 365.095 131.069C364.823 131.843 364.708 132.664 364.757 133.483C364.757 134.541 365.178 135.556 365.926 136.304C366.674 137.053 367.689 137.473 368.748 137.473C369.806 137.473 370.821 137.053 371.569 136.304C372.318 135.556 372.738 134.541 372.738 133.483L372.73 133.461Z" fill="#372A69"/>
<path d="M367.644 157.666C380.132 157.666 392.62 157.455 405.11 157.449C410.243 157.449 410.253 149.468 405.11 149.468C392.62 149.468 380.132 149.677 367.644 149.685C362.508 149.685 362.5 157.666 367.644 157.666Z" fill="#372A69"/>
<path d="M377.119 189.156C383.29 189.156 389.462 189.053 395.635 189.051C396.693 189.051 397.708 188.63 398.456 187.882C399.205 187.134 399.625 186.119 399.625 185.06C399.625 184.002 399.205 182.987 398.456 182.239C397.708 181.49 396.693 181.07 395.635 181.07C389.462 181.07 383.29 181.172 377.119 181.176C376.061 181.176 375.046 181.596 374.298 182.344C373.549 183.093 373.129 184.108 373.129 185.166C373.129 186.224 373.549 187.239 374.298 187.988C375.046 188.736 376.061 189.156 377.119 189.156Z" fill="#372A69"/>
<path d="M466.731 139.893C468.926 141.964 469.493 146.328 469.525 148.859C469.555 151.142 469.525 153.426 469.525 155.709L469.561 179.196C469.561 182.461 469.565 185.725 469.575 188.989C469.728 191.366 469.578 193.752 469.13 196.092C468.759 197.103 468.33 198.092 467.843 199.053C467.542 199.851 467.278 199.236 468.118 199.15C468.088 199.15 468.054 199.15 468.024 199.15C467.344 199.2 466.648 199.164 465.967 199.17L456.408 199.264L437.839 199.446L439.852 199.99C438.644 199.542 437.552 198.825 436.66 197.894C435.769 196.963 435.099 195.842 434.703 194.615C434.503 193.841 434.619 194.394 434.605 193.582C434.605 193.159 434.605 192.734 434.605 192.311C434.585 188.668 434.56 185.023 434.531 181.377C434.464 171.855 434.398 162.331 434.331 152.806C434.331 151.437 434.304 150.071 434.312 148.702C434.421 145.438 435.433 142.268 437.234 139.544C439.936 135.154 433.045 131.146 430.343 135.516C427.827 139.463 426.44 144.023 426.331 148.702C426.319 150.697 426.351 152.672 426.363 154.656C426.407 161.439 426.453 168.223 426.502 175.006C426.542 180.774 426.581 186.541 426.62 192.309C426.545 194.357 426.863 196.401 427.556 198.33C429.122 202.271 433.342 207.151 437.883 207.424C442.46 207.7 447.167 207.333 451.748 207.289C457.033 207.237 462.34 207.323 467.621 207.133C475.558 206.848 477.549 197.871 477.559 191.371C477.569 185.962 477.545 180.551 477.537 175.142C477.525 167.777 477.514 160.414 477.503 153.053C477.503 146.669 477.338 138.947 472.364 134.243C468.633 130.715 462.986 136.348 466.721 139.885L466.731 139.893Z" fill="#372A69"/>
<path d="M438.572 133.461C438.532 134.458 435.434 134.778 436.852 134.935C437.208 134.954 437.564 134.954 437.92 134.935H441.361H451.593H461.832H465.525C465.935 134.959 466.346 134.959 466.756 134.935C467.271 134.871 466.956 135.175 466.588 134.843C467.428 135.618 465.292 134.103 465.266 133.576C465.288 134.628 465.715 135.63 466.459 136.374C467.202 137.117 468.205 137.545 469.256 137.567C470.311 137.557 471.321 137.133 472.067 136.387C472.813 135.641 473.237 134.632 473.246 133.576C473.325 132.176 472.937 130.79 472.143 129.634C471.348 128.479 470.192 127.62 468.857 127.192C467.763 126.979 466.646 126.903 465.533 126.964H457.369L438.863 126.976C438.087 126.976 437.299 126.938 436.525 126.976C435.705 127.003 434.899 127.194 434.154 127.538C433.409 127.882 432.74 128.371 432.188 128.978C431.635 129.584 431.21 130.296 430.937 131.069C430.664 131.843 430.549 132.664 430.599 133.483C430.599 134.541 431.02 135.556 431.768 136.304C432.516 137.053 433.531 137.473 434.59 137.473C435.648 137.473 436.663 137.053 437.411 136.304C438.16 135.556 438.58 134.541 438.58 133.483L438.572 133.461Z" fill="#372A69"/>
<path d="M433.484 157.666C445.972 157.666 458.459 157.455 470.949 157.449C476.083 157.449 476.093 149.468 470.949 149.468C458.459 149.468 445.972 149.677 433.484 149.685C428.348 149.685 428.34 157.666 433.484 157.666Z" fill="#372A69"/>
<path d="M442.969 189.156C449.134 189.156 455.299 189.053 461.464 189.051C462.523 189.051 463.538 188.63 464.286 187.882C465.034 187.134 465.455 186.119 465.455 185.06C465.455 184.002 465.034 182.987 464.286 182.239C463.538 181.49 462.523 181.07 461.464 181.07C455.299 181.07 449.134 181.172 442.969 181.176C441.911 181.176 440.896 181.596 440.147 182.344C439.399 183.093 438.979 184.108 438.979 185.166C438.979 186.224 439.399 187.239 440.147 187.988C440.896 188.736 441.911 189.156 442.969 189.156Z" fill="#372A69"/>
<path d="M453.318 324.163C449.708 319.898 443.004 318.485 437.781 317.543C432.879 316.539 427.883 316.062 422.879 316.119C419.618 316.148 416.414 316.981 413.551 318.542C410.688 320.103 408.253 322.346 406.462 325.071C402.864 330.36 401.359 336.797 402.237 343.134C402.444 346.669 403.587 350.085 405.549 353.034C407.966 356.501 411.59 358.942 415.712 359.879C420.724 360.931 422.865 353.239 417.833 352.184C415.66 351.729 413.708 350.544 412.302 348.826C411.973 348.387 411.673 347.925 411.407 347.445C411.315 347.286 410.808 346.218 411.008 346.737C411.207 347.256 410.926 346.482 410.886 346.32C410.622 345.287 410.389 344.241 410.227 343.188C409.352 338.439 410.371 333.535 413.067 329.529C413.288 329.185 413.513 328.846 413.749 328.513C414.094 328.028 413.629 328.595 414.176 327.978C414.786 327.254 415.484 326.609 416.255 326.059C418.298 324.781 420.657 324.1 423.066 324.094C426.946 324.052 430.82 324.376 434.639 325.063C437.392 325.488 440.107 326.131 442.759 326.985C443.777 327.28 444.756 327.696 445.676 328.224C446.13 328.465 446.567 328.739 446.981 329.044C446.434 328.625 447.514 329.62 447.671 329.808C448.424 330.548 449.437 330.963 450.492 330.963C451.548 330.963 452.561 330.548 453.314 329.808C454.042 329.049 454.449 328.038 454.449 326.986C454.449 325.934 454.042 324.922 453.314 324.163H453.318Z" fill="#372A69"/>
<path d="M426.009 339.418C426.069 339.287 426.143 339.164 426.231 339.049L425.608 339.857C425.709 339.743 425.819 339.638 425.937 339.542L425.139 340.166C425.343 340.019 425.562 339.893 425.792 339.791L424.838 340.19C425.309 339.998 425.802 339.868 426.306 339.803L425.247 339.945C425.726 339.887 426.21 339.887 426.69 339.945L425.628 339.803C426.855 340.003 427.954 340.651 429.166 340.911C431.083 341.276 433.063 341.134 434.91 340.5C435.908 340.207 436.761 339.553 437.304 338.666C437.705 337.981 437.893 337.192 437.843 336.399C437.793 335.607 437.507 334.847 437.024 334.218C436.54 333.589 435.879 333.118 435.126 332.866C434.373 332.614 433.562 332.593 432.797 332.804C432.137 333.019 431.461 333.182 430.776 333.291L431.837 333.147C431.433 333.192 431.024 333.192 430.62 333.147L431.68 333.289C430.651 333.049 429.642 332.733 428.661 332.341C427.675 332.016 426.636 331.881 425.6 331.942C424.273 332.015 422.973 332.344 421.771 332.91C420.639 333.422 419.71 334.299 419.134 335.4C418.625 336.34 418.483 337.436 418.735 338.475C419.018 339.477 419.674 340.334 420.568 340.869C421.029 341.135 421.539 341.308 422.067 341.376C422.595 341.445 423.131 341.408 423.645 341.268C424.144 341.135 424.612 340.905 425.021 340.59C425.43 340.276 425.773 339.883 426.029 339.434L426.009 339.418Z" fill="#372A69"/>
<path d="M78.567 428.728C78.2737 454.789 78.3016 480.858 78.2717 506.921C78.2717 510.456 78.2684 513.989 78.2617 517.522C78.2617 522.658 86.2425 522.665 86.2425 517.522C86.2425 494.461 86.297 471.4 86.4061 448.339C86.438 441.802 86.4739 435.264 86.5478 428.728C86.6056 423.59 78.6248 423.586 78.567 428.728Z" fill="#372A69"/>
<path d="M149.979 429.004C149.979 423.633 150.106 418.264 150.114 412.893C150.099 411.839 149.674 410.833 148.929 410.088C148.184 409.343 147.178 408.918 146.124 408.903C125.059 408.903 103.993 408.703 82.9261 408.703C81.8726 408.719 80.8666 409.144 80.1216 409.889C79.3765 410.634 78.9512 411.64 78.9357 412.694C78.9038 418.095 78.5726 423.492 78.5586 428.895C78.5446 434.03 86.5254 434.038 86.5394 428.895C86.5534 423.492 86.8846 418.095 86.9165 412.694L82.9261 416.684C103.993 416.684 125.059 416.883 146.124 416.883L142.133 412.893C142.133 418.264 142.002 423.633 141.998 429.004C141.998 434.14 149.979 434.148 149.979 429.004Z" fill="#372A69"/>
<path d="M150.114 518.751C150.114 494.061 150.075 469.37 149.995 444.677C149.987 439.454 149.981 434.23 149.979 429.005C149.979 423.869 141.998 423.861 141.998 429.005C141.998 455.288 142.038 481.571 142.118 507.853C142.118 511.484 142.123 515.117 142.134 518.751C142.134 523.887 150.114 523.895 150.114 518.751Z" fill="#372A69"/>
<path d="M82.9992 432.857C103.512 432.857 124.026 432.658 144.539 432.658C149.675 432.658 149.683 424.677 144.539 424.677C124.026 424.677 103.512 424.876 82.9992 424.876C77.8636 424.876 77.8556 432.857 82.9992 432.857Z" fill="#372A69"/>
<path d="M90.3576 125.839C94.9745 125.839 99.5913 125.795 104.208 125.795C105.267 125.795 106.281 125.375 107.03 124.626C107.778 123.878 108.199 122.863 108.199 121.805C108.199 120.747 107.778 119.732 107.03 118.983C106.281 118.235 105.267 117.814 104.208 117.814C99.5913 117.814 94.9745 117.858 90.3576 117.858C89.2993 117.858 88.2843 118.279 87.5359 119.027C86.7876 119.775 86.3672 120.79 86.3672 121.849C86.3672 122.907 86.7876 123.922 87.5359 124.67C88.2843 125.419 89.2993 125.839 90.3576 125.839Z" fill="#372A69"/>
<path d="M243.383 429.004C243.383 423.633 243.511 418.264 243.521 412.893C243.506 411.839 243.08 410.833 242.335 410.088C241.59 409.343 240.584 408.918 239.53 408.903C218.465 408.903 197.398 408.703 176.332 408.703C175.279 408.718 174.272 409.143 173.527 409.888C172.782 410.634 172.357 411.64 172.342 412.694C172.31 418.095 171.979 423.492 171.965 428.895C171.949 434.03 179.93 434.038 179.946 428.895C179.96 423.492 180.291 418.095 180.323 412.694L176.332 416.684C197.398 416.684 218.465 416.883 239.53 416.883L235.54 412.893C235.54 418.264 235.408 423.633 235.402 429.004C235.402 434.14 243.383 434.148 243.383 429.004Z" fill="#372A69"/>
<path d="M235.402 432.558C235.402 458.842 235.442 485.124 235.522 511.404C235.522 515.038 235.528 518.672 235.54 522.304L239.531 518.314L183.579 517.991L175.65 517.945L179.641 521.935C179.641 497.611 179.695 473.287 179.804 448.963C179.835 442.219 179.882 435.476 179.946 428.734C180.004 423.596 172.023 423.592 171.965 428.734C171.656 456.068 171.698 483.402 171.668 510.736C171.668 514.468 171.668 518.203 171.668 521.939C171.684 522.992 172.109 523.998 172.854 524.743C173.599 525.488 174.605 525.914 175.658 525.929L231.61 526.253L239.538 526.299C240.592 526.284 241.598 525.858 242.344 525.113C243.089 524.368 243.514 523.362 243.529 522.308C243.529 497.618 243.443 472.925 243.409 448.235C243.401 443.011 243.395 437.787 243.391 432.562C243.391 427.427 235.41 427.419 235.41 432.562L235.402 432.558Z" fill="#372A69"/>
<path d="M176.404 432.857C196.916 432.857 217.431 432.658 237.943 432.658C243.079 432.658 243.087 424.677 237.943 424.677C217.431 424.677 196.916 424.876 176.404 424.876C171.268 424.876 171.26 432.857 176.404 432.857Z" fill="#372A69"/>
<path d="M191.464 450.714C203.19 450.714 214.916 450.475 226.641 450.471C231.777 450.471 231.785 442.49 226.641 442.49C214.916 442.49 203.19 442.728 191.464 442.734C186.328 442.734 186.32 450.714 191.464 450.714Z" fill="#372A69"/>
<path d="M191.533 454.543C200.911 454.543 210.306 454.329 219.692 454.326C220.75 454.326 221.765 453.905 222.513 453.157C223.262 452.408 223.682 451.393 223.682 450.335C223.682 449.277 223.262 448.262 222.513 447.513C221.765 446.765 220.75 446.345 219.692 446.345C210.314 446.345 200.921 446.558 191.533 446.562C190.475 446.562 189.46 446.983 188.712 447.731C187.963 448.479 187.543 449.494 187.543 450.553C187.543 451.611 187.963 452.626 188.712 453.374C189.46 454.123 190.475 454.543 191.533 454.543Z" fill="#372A69"/>
<path d="M334.053 429.004C334.053 423.633 334.18 418.264 334.188 412.893C334.174 411.839 333.749 410.833 333.004 410.087C332.258 409.342 331.252 408.917 330.198 408.903C309.133 408.903 288.068 408.703 267 408.703C265.947 408.719 264.941 409.144 264.196 409.889C263.451 410.634 263.025 411.64 263.01 412.694C262.978 418.095 262.649 423.492 262.633 428.895C262.619 434.03 270.6 434.038 270.614 428.895C270.63 423.492 270.959 418.095 270.991 412.694L267 416.684C288.068 416.684 309.133 416.883 330.198 416.883L326.208 412.893C326.208 418.264 326.078 423.633 326.072 429.004C326.072 434.14 334.053 434.148 334.053 429.004Z" fill="#372A69"/>
<path d="M326.072 429.005C326.072 456.177 326.112 483.35 326.192 510.525C326.192 514.325 326.197 518.126 326.208 521.929L330.198 517.939L274.249 517.68L266.318 517.642L270.309 521.632C270.309 497.344 270.363 473.056 270.472 448.767C270.504 442.088 270.538 435.4 270.614 428.728C270.672 423.59 262.691 423.586 262.633 428.728C262.326 456.008 262.368 483.296 262.338 510.579C262.338 514.263 262.338 517.948 262.338 521.632C262.353 522.685 262.779 523.691 263.524 524.437C264.269 525.182 265.275 525.607 266.328 525.622L322.28 525.882L330.208 525.92C331.262 525.905 332.269 525.48 333.014 524.735C333.759 523.99 334.184 522.983 334.199 521.929C334.199 496.352 334.159 470.776 334.079 445.202C334.079 439.803 334.074 434.404 334.063 429.005C334.063 423.869 326.082 423.861 326.082 429.005H326.072Z" fill="#372A69"/>
<path d="M350.948 508.11C350.948 486.522 350.914 464.934 350.844 443.348C350.836 438.7 350.831 434.054 350.828 429.409C350.828 424.274 342.848 424.266 342.848 429.409C342.848 452.402 342.883 475.395 342.953 498.389C342.953 501.629 342.958 504.87 342.967 508.11C342.967 513.243 350.948 513.253 350.948 508.11Z" fill="#372A69"/>
<path d="M267.073 432.857C287.588 432.857 308.101 432.658 328.615 432.658C333.749 432.658 333.759 424.677 328.615 424.677C308.101 424.677 287.588 424.876 267.073 424.876C261.938 424.876 261.93 432.857 267.073 432.857Z" fill="#372A69"/>
<path d="M282.132 450.714C293.858 450.714 305.584 450.475 317.309 450.471C322.445 450.471 322.453 442.49 317.309 442.49C305.584 442.49 293.858 442.728 282.132 442.734C276.996 442.734 276.988 450.714 282.132 450.714Z" fill="#372A69"/>
<path d="M282.205 454.543C291.517 454.543 300.828 454.329 310.138 454.326C311.196 454.326 312.211 453.905 312.96 453.157C313.708 452.408 314.128 451.393 314.128 450.335C314.128 449.277 313.708 448.262 312.96 447.513C312.211 446.765 311.196 446.345 310.138 446.345C300.826 446.345 291.515 446.558 282.205 446.562C281.147 446.562 280.132 446.983 279.384 447.731C278.635 448.479 278.215 449.494 278.215 450.553C278.215 451.611 278.635 452.626 279.384 453.374C280.132 454.123 281.147 454.543 282.205 454.543Z" fill="#372A69"/>
<path d="M97.9211 450.714C109.647 450.714 121.373 450.475 133.098 450.471C138.234 450.471 138.242 442.49 133.098 442.49C121.373 442.49 109.647 442.728 97.9211 442.734C92.7855 442.734 92.7775 450.714 97.9211 450.714Z" fill="#372A69"/>
<path d="M97.9806 454.543C107.516 454.543 117.049 454.329 126.582 454.326C127.64 454.326 128.655 453.905 129.403 453.157C130.152 452.408 130.572 451.393 130.572 450.335C130.572 449.277 130.152 448.262 129.403 447.513C128.655 446.765 127.64 446.345 126.582 446.345C117.049 446.345 107.516 446.558 97.9806 446.562C96.9223 446.562 95.9073 446.983 95.159 447.731C94.4106 448.479 93.9902 449.494 93.9902 450.553C93.9902 451.611 94.4106 452.626 95.159 453.374C95.9073 454.123 96.9223 454.543 97.9806 454.543Z" fill="#372A69"/>
<path d="M100.972 483.561C98.7109 486.913 97.1754 490.701 96.4648 494.682C95.7542 498.663 95.8842 502.748 96.8464 506.676C98.269 513.138 101.635 520.662 108.45 522.821C108.956 522.96 109.484 522.998 110.004 522.934C110.524 522.869 111.026 522.702 111.482 522.444C111.938 522.185 112.338 521.839 112.66 521.425C112.982 521.012 113.219 520.539 113.359 520.033C113.498 519.528 113.536 519 113.472 518.48C113.407 517.96 113.24 517.458 112.982 517.002C112.723 516.546 112.377 516.146 111.963 515.824C111.55 515.502 111.077 515.265 110.571 515.125C109.608 514.818 111.002 515.381 110.478 515.125C110.232 515.004 109.997 514.872 109.761 514.726C109.749 514.726 108.963 514.144 109.348 514.457C109.733 514.77 109.043 514.16 108.973 514.09C108.716 513.842 108.474 513.577 108.239 513.31C108.055 513.1 107.928 512.921 108.173 513.246C107.79 512.728 107.438 512.186 107.12 511.626C106.782 511.041 106.477 510.429 106.192 509.83C106.04 509.501 105.903 509.166 105.649 508.453C105.152 507.043 104.752 505.601 104.452 504.136C104.38 503.793 104.314 503.445 104.253 503.1C104.237 503.01 104.079 501.989 104.135 502.398C104.187 502.765 104.059 501.69 104.061 501.712C104.029 501.384 104.003 501.053 103.983 500.714C103.896 499.501 103.909 498.282 104.021 497.071C104.043 496.871 104.043 496.849 104.021 497.009C103.981 497.292 104.007 497.149 104.097 496.582C104.189 496.131 104.277 495.682 104.386 495.235C104.611 494.315 104.886 493.409 105.212 492.52C105.886 490.769 106.775 489.108 107.86 487.578C108.124 487.125 108.297 486.625 108.368 486.106C108.44 485.586 108.408 485.058 108.275 484.551C108.142 484.044 107.91 483.568 107.594 483.151C107.277 482.733 106.881 482.382 106.428 482.118C105.976 481.853 105.476 481.68 104.956 481.609C104.437 481.538 103.909 481.57 103.402 481.703C102.895 481.836 102.419 482.067 102.002 482.384C101.584 482.701 101.233 483.097 100.969 483.549L100.972 483.561Z" fill="#372A69"/>
<path d="M148.052 473.061C139.752 468.835 130.564 469.12 121.671 471.197C120.654 471.485 119.792 472.161 119.269 473.079C118.746 473.997 118.606 475.084 118.878 476.105C119.178 477.114 119.856 477.968 120.771 478.489C121.686 479.01 122.767 479.156 123.788 478.899C124.903 478.637 126.023 478.404 127.152 478.21C127.435 478.162 127.717 478.114 128 478.071C128.076 478.059 128.828 477.947 128.548 477.985C128.269 478.023 128.995 477.931 129.067 477.923C129.341 477.891 129.612 477.863 129.885 477.837C131.953 477.623 134.036 477.586 136.11 477.727C136.543 477.759 136.976 477.811 137.407 477.853C138.006 477.913 136.719 477.715 137.285 477.841C137.485 477.885 137.684 477.907 137.884 477.943C138.711 478.091 139.53 478.281 140.338 478.511C141.06 478.711 141.775 478.96 142.475 479.234C142.607 479.286 143.311 479.633 142.762 479.347C142.255 479.076 142.804 479.371 142.912 479.423C143.279 479.599 143.646 479.772 144.009 479.958C144.923 480.492 146.012 480.641 147.036 480.373C147.543 480.24 148.019 480.009 148.436 479.692C148.854 479.375 149.205 478.979 149.469 478.526C149.734 478.074 149.906 477.574 149.978 477.054C150.049 476.535 150.017 476.007 149.884 475.5C149.751 474.993 149.52 474.517 149.203 474.1C148.886 473.682 148.49 473.331 148.038 473.067L148.052 473.061Z" fill="#372A69"/>
<path d="M96.3255 478.88C96.525 478.481 96.7645 478.106 97.0019 477.723C97.2393 477.34 96.5789 478.16 97.0837 477.612C97.2433 477.44 97.395 477.258 97.5566 477.087C98.2079 476.367 98.9528 475.737 99.7712 475.215C101.782 473.835 104.093 472.956 106.513 472.651C108.906 472.449 111.314 472.797 113.551 473.67C115.789 474.543 117.797 475.917 119.42 477.687L118.803 472.861C118.488 473.334 118.162 473.8 117.826 474.258C118.319 473.589 117.604 474.527 117.56 474.579C117.403 474.768 117.243 474.956 117.08 475.141C116.193 476.165 115.216 477.105 114.161 477.953C113.949 478.124 113.961 478.118 114.175 477.939L113.845 478.172C113.56 478.356 113.283 478.551 112.993 478.731C112.406 479.096 111.799 479.43 111.176 479.728C110.928 479.84 110.922 479.846 111.162 479.748L110.763 479.902C110.364 480.046 109.945 480.185 109.528 480.301C109.244 480.381 108.959 480.455 108.672 480.519C108.698 480.519 107.475 480.74 107.942 480.676C107.158 480.775 106.366 480.805 105.577 480.766C105.034 480.778 104.493 480.71 103.969 480.566C103.278 480.414 102.6 480.206 101.942 479.944C102.457 480.143 101.675 479.802 101.587 479.756C101.288 479.607 100.994 479.446 100.705 479.274C100.366 479.074 100.041 478.853 99.7074 478.633C99.5079 478.503 99.2605 478.294 99.5917 478.559C99.0589 478.126 98.5544 477.66 98.0813 477.163C97.8725 476.947 97.669 476.726 97.4708 476.5C97.4089 476.426 96.8124 475.684 97.1256 476.101C97.4388 476.518 96.8982 475.77 96.8423 475.69C96.6627 475.427 96.4951 475.155 96.3275 474.882C96.063 474.43 95.712 474.034 95.2945 473.717C94.8769 473.4 94.4011 473.168 93.8941 473.036C93.3871 472.903 92.8589 472.871 92.3396 472.942C91.8203 473.013 91.3202 473.186 90.8677 473.451C90.4152 473.715 90.0192 474.066 89.7024 474.484C89.3855 474.901 89.1541 475.377 89.0211 475.884C88.8882 476.391 88.8564 476.919 88.9276 477.438C88.9988 477.958 89.1716 478.458 89.4361 478.91C91.2888 482.113 94.008 484.728 97.2811 486.454C100.554 488.18 104.248 488.947 107.938 488.667C115.573 487.857 121.523 483.138 125.695 476.909C126.129 476.144 126.304 475.259 126.191 474.387C126.078 473.514 125.685 472.702 125.07 472.073C122.653 469.499 119.686 467.504 116.39 466.237C113.094 464.969 109.555 464.462 106.036 464.752C99.7054 465.455 92.409 468.897 89.4401 474.882C88.9325 475.802 88.7981 476.882 89.0648 477.898C89.3315 478.914 89.9788 479.789 90.8727 480.341C91.7916 480.861 92.8779 480.999 93.8977 480.726C94.9175 480.452 95.7893 479.79 96.3255 478.88Z" fill="#372A69"/>
<path d="M279.513 489.671C277.231 495.921 277.113 502.757 279.178 509.082C280.874 514.758 284.124 520.934 290.151 522.821C290.657 522.96 291.184 522.999 291.704 522.934C292.225 522.869 292.727 522.703 293.183 522.444C293.638 522.185 294.039 521.839 294.361 521.425C294.683 521.012 294.92 520.539 295.059 520.034C295.199 519.528 295.237 519.001 295.172 518.481C295.108 517.96 294.941 517.458 294.682 517.002C294.424 516.547 294.077 516.146 293.664 515.824C293.25 515.502 292.777 515.265 292.272 515.126C291.887 515.004 291.522 514.677 292.22 515.146C292.037 515.022 291.821 514.946 291.622 514.826C291.422 514.707 291.241 514.553 291.039 514.451C291.781 514.82 291.239 514.607 290.959 514.361C290.588 514.028 290.267 513.655 289.924 513.294C289.247 512.586 290.341 513.954 289.78 513.122C289.633 512.901 289.475 512.685 289.329 512.46C288.692 511.466 288.138 510.422 287.673 509.338C288.024 510.136 287.577 509.07 287.548 508.988C287.444 508.711 287.348 508.432 287.248 508.152C287.034 507.533 286.841 506.905 286.668 506.271C286.343 505.069 286.08 503.852 285.88 502.624C285.814 502.243 285.784 501.903 285.852 502.486C285.814 502.149 285.774 501.814 285.744 501.474C285.696 500.932 285.662 500.387 285.646 499.842C285.63 499.298 285.628 498.713 285.646 498.15C285.646 497.909 285.814 496.431 285.7 497.177C286 495.332 286.501 493.526 287.194 491.79C287.467 490.769 287.327 489.681 286.805 488.763C286.282 487.844 285.418 487.168 284.401 486.882C283.381 486.624 282.3 486.771 281.386 487.292C280.471 487.812 279.793 488.666 279.493 489.675L279.513 489.671Z" fill="#372A69"/>
<path d="M329.762 473.061C320.995 468.601 311.117 469.122 301.817 471.594C300.797 471.875 299.93 472.55 299.407 473.471C298.885 474.391 298.749 475.482 299.03 476.502C299.311 477.523 299.987 478.39 300.907 478.912C301.827 479.435 302.918 479.571 303.938 479.289C308.229 478.024 312.701 477.48 317.17 477.679C317.643 477.705 318.116 477.739 318.589 477.787L319.273 477.865C318.924 477.823 318.775 477.787 319.208 477.865C320.05 478.021 320.886 478.182 321.712 478.406C322.538 478.629 323.352 478.908 324.156 479.204C324.253 479.24 324.874 479.497 324.355 479.282C323.836 479.066 324.455 479.329 324.555 479.373C324.954 479.559 325.341 479.746 325.73 479.944C326.182 480.227 326.687 480.416 327.214 480.5C327.741 480.584 328.279 480.562 328.798 480.435C329.316 480.307 329.803 480.077 330.231 479.758C330.658 479.439 331.018 479.037 331.287 478.577C331.557 478.116 331.732 477.607 331.801 477.077C331.87 476.548 331.833 476.011 331.69 475.496C331.548 474.982 331.304 474.501 330.973 474.083C330.642 473.665 330.23 473.317 329.762 473.061Z" fill="#372A69"/>
<path d="M134.083 282.014C128.137 286.965 125.63 294.125 123.872 301.422C122.114 308.718 120.38 315.45 115.52 321.358C111.688 326.148 106.147 329.265 100.063 330.053C95.8889 330.61 91.7739 331.545 87.7687 332.846C84.2811 334.071 80.6399 335.639 78.7464 339.031C74.3331 346.932 80.7835 354.717 87.8765 357.806C95.8572 361.278 105.185 360.94 113.642 359.903C121.048 359.267 128.254 357.175 134.849 353.748C140.642 350.377 145.589 345.728 149.31 340.154C154.4 332.848 157.731 324.464 159.043 315.657C159.936 310.7 160.154 305.645 159.693 300.63C158.946 295.241 157.182 290.043 154.496 285.312C152.014 280.815 145.119 284.838 147.605 289.341C149.626 292.9 151.018 296.782 151.719 300.815C152.18 304.76 152.09 308.749 151.451 312.669C150.617 319.531 148.396 326.152 144.923 332.13C142.235 337.141 138.478 341.5 133.92 344.899C128.893 348.289 123.171 350.511 117.174 351.401C109.838 352.956 102.271 353.071 94.8916 351.738C91.7148 351.207 88.7911 349.674 86.5477 347.363C85.1291 345.667 84.74 343.373 86.7073 341.976C89.7555 340.254 93.1015 339.123 96.5695 338.642C99.8516 337.934 103.206 337.744 106.446 336.814C112.135 335.158 117.194 331.826 120.961 327.251C125.857 321.261 129.245 314.184 130.841 306.613C132.535 299.588 133.908 292.505 139.732 287.659C143.682 284.369 138.01 278.75 134.087 282.016L134.083 282.014Z" fill="#372A69"/>
<path d="M140.439 270.977C139.12 270.867 137.801 270.742 136.484 270.59L135.618 270.484C136.616 270.602 135.618 270.484 135.449 270.452C135.033 270.393 134.623 270.306 134.22 270.191L135.981 271.217L135.967 271.203L136.995 272.964C137.29 274.162 137.131 274.146 137.156 273.509C137.117 274.507 137.061 274.176 137.18 273.481C137.328 272.611 137.5 271.747 137.681 270.887C137.853 270.065 138.034 269.245 138.232 268.429C138.324 268.058 138.415 267.685 138.519 267.318C138.589 267.067 139.002 266.063 138.599 266.919L138.433 267.306C138.9 266.388 138.147 266.945 136.175 268.976C136.211 268.964 136.249 268.96 136.285 268.95C136.839 268.788 134.948 269.084 135.64 269.038C136.095 269.008 136.55 268.962 137.005 268.932C138.495 268.834 139.998 268.769 141.484 268.705C145.207 268.543 148.932 268.415 152.657 268.294L156.995 268.156C157.428 268.142 157.865 268.144 158.298 268.114C158.423 268.117 158.548 268.113 158.673 268.102C158.074 268.085 157.489 267.918 156.972 267.616C156.454 267.314 156.021 266.887 155.712 266.374C155.987 266.823 155.313 265.269 155.476 265.852C155.64 266.434 155.45 264.708 155.417 265.397C155.407 265.574 155.43 265.764 155.428 265.943C155.428 266.37 155.393 266.797 155.351 267.222C155.339 267.458 155.312 267.693 155.269 267.925C155.554 266.761 155.319 267.557 155.269 267.835C155.183 268.324 155.101 268.814 155.007 269.301C154.843 270.159 154.658 271.012 154.455 271.861C154.317 272.436 153.667 274.172 154.503 272.272L155.935 270.842C157.009 270.211 156.829 270.472 156.187 270.602C155.788 270.662 155.83 270.656 156.338 270.584L155.776 270.648C154.616 270.778 153.455 270.875 152.294 270.965C151.236 270.965 150.221 271.386 149.472 272.134C148.724 272.882 148.304 273.897 148.304 274.956C148.304 276.014 148.724 277.029 149.472 277.777C150.221 278.526 151.236 278.946 152.294 278.946C154.453 278.867 156.602 278.627 158.725 278.226C159.512 278.023 160.227 277.605 160.791 277.019C161.354 276.433 161.744 275.702 161.917 274.908C162.538 272.618 162.982 270.283 163.244 267.925C163.621 264.914 163.329 261.34 159.91 260.277C158.318 260.018 156.697 260.003 155.101 260.235C150.167 260.391 145.233 260.548 140.303 260.776C138.693 260.85 137.071 260.892 135.469 261.075C134.696 261.073 133.935 261.265 133.256 261.634C132.577 262.003 132.002 262.537 131.584 263.186C131.096 264.135 130.751 265.151 130.558 266.201C129.812 268.713 129.336 271.299 129.138 273.912C129.078 276.769 131.52 277.903 133.906 278.242C136.073 278.557 138.252 278.782 140.433 278.964C141.49 278.96 142.502 278.538 143.25 277.791C143.997 277.043 144.419 276.031 144.423 274.974C144.398 273.923 143.97 272.923 143.227 272.179C142.484 271.436 141.483 271.008 140.433 270.983L140.439 270.977Z" fill="#372A69"/>
<path d="M137.116 296.378C134.866 302.364 134.445 308.81 132.212 314.806C130.587 319.975 127.719 324.667 123.858 328.469C123.132 329.222 122.729 330.23 122.738 331.276C122.748 332.322 123.167 333.323 123.907 334.063C124.647 334.803 125.648 335.222 126.694 335.231C127.74 335.241 128.748 334.838 129.501 334.111C134.371 329.824 137.282 323.768 139.569 317.817C141.989 311.538 142.448 304.786 144.812 298.499C145.084 297.478 144.943 296.391 144.421 295.473C143.898 294.555 143.035 293.879 142.019 293.591C140.998 293.333 139.917 293.48 139.002 294.001C138.087 294.521 137.409 295.375 137.109 296.384L137.116 296.378Z" fill="#372A69"/>
<path d="M139.728 287.657C140.532 286.832 141.284 285.958 141.978 285.039C142.659 283.977 143.164 282.812 143.475 281.589C144.008 279.418 144.329 277.2 144.43 274.967C144.429 273.909 144.009 272.894 143.263 272.144C142.893 271.773 142.453 271.479 141.968 271.279C141.484 271.078 140.965 270.975 140.441 270.975C139.917 270.975 139.398 271.078 138.914 271.279C138.429 271.479 137.989 271.773 137.619 272.144C136.909 272.918 136.495 273.918 136.45 274.967C136.374 275.941 136.292 276.912 136.162 277.88L136.306 276.821C136.151 278.173 135.823 279.501 135.328 280.769L135.727 279.815C135.511 280.328 135.235 280.813 134.903 281.26L135.528 280.452C135.085 281.009 134.552 281.481 134.081 282.014C133.353 282.776 132.936 283.782 132.912 284.835C132.92 285.892 133.339 286.904 134.081 287.657C134.452 288.027 134.892 288.321 135.376 288.522C135.86 288.723 136.379 288.826 136.903 288.826C137.428 288.826 137.947 288.723 138.431 288.522C138.915 288.321 139.357 288.027 139.728 287.657Z" fill="#372A69"/>
<path d="M148.45 273.723C148.023 275.469 147.83 277.296 147.576 279.074C147.235 281.468 146.894 283.884 146.639 286.298C146.639 287.357 147.059 288.371 147.808 289.12C148.556 289.868 149.571 290.288 150.629 290.288C151.687 290.288 152.702 289.868 153.45 289.12C154.152 288.341 154.565 287.345 154.619 286.298C154.757 284.99 154.931 283.685 155.104 282.382L154.963 283.441C155.224 280.89 155.619 278.354 156.146 275.844C156.427 274.823 156.291 273.733 155.769 272.812C155.246 271.892 154.379 271.217 153.358 270.935C152.338 270.654 151.248 270.79 150.327 271.313C149.407 271.835 148.732 272.702 148.45 273.723Z" fill="#372A69"/>
<path d="M283.133 488.224C282.945 487.286 283.133 488.677 283.133 488.366C283.133 488.146 283.099 487.921 283.093 487.699C283.081 487.173 283.121 486.654 283.161 486.131C283.22 485.333 282.977 487.015 283.161 486.155C283.218 485.888 283.262 485.619 283.322 485.357C283.447 484.798 283.6 484.246 283.781 483.701C283.889 483.37 284.022 483.047 284.134 482.718C284.242 482.451 284.204 482.533 284.02 482.963C284.082 482.821 284.146 482.68 284.22 482.54C284.507 481.916 284.827 481.307 285.178 480.716C285.513 480.154 285.882 479.617 286.261 479.084C285.752 479.799 286.339 479 286.461 478.849C286.716 478.55 286.983 478.25 287.259 477.977C287.498 477.732 287.744 477.495 287.997 477.265C288.137 477.135 289.056 476.383 288.316 476.949C288.844 476.549 289.396 476.18 289.968 475.846C290.553 475.501 291.165 475.204 291.764 474.908C292.596 474.509 291.271 475.056 292.077 474.785C292.458 474.655 292.833 474.511 293.216 474.386C293.931 474.162 294.657 473.975 295.391 473.827C295.73 473.759 296.069 473.705 296.411 473.647C295.467 473.805 296.582 473.647 296.712 473.633C297.388 473.577 298.067 473.558 298.745 473.576C299.08 473.576 299.413 473.619 299.743 473.629C300.207 473.681 300.184 473.669 299.669 473.599C299.884 473.631 300.1 473.667 300.315 473.707L297.386 469.86C297.47 471.102 297.476 472.347 297.402 473.59C297.384 473.873 297.362 474.156 297.334 474.439C297.316 474.639 297.296 474.823 297.275 475.012C297.356 474.433 297.362 474.37 297.296 474.813C297.181 475.499 297.051 476.183 296.877 476.858C296.714 477.5 296.519 478.134 296.293 478.759C295.936 479.737 296.516 478.374 296.165 479.106C296.028 479.392 295.898 479.679 295.75 479.958C295.399 480.635 294.986 481.255 294.577 481.893C294.311 482.255 294.32 482.251 294.603 481.882C294.498 482.015 294.39 482.148 294.28 482.281C294.02 482.585 293.75 482.88 293.47 483.166C293.222 483.418 292.967 483.659 292.706 483.895C292.522 484.058 292.336 484.218 292.145 484.374C292.464 484.134 292.438 484.149 292.067 484.417C291.437 484.849 290.777 485.237 290.094 485.579C289.942 485.654 289.787 485.726 289.631 485.794C290.068 485.611 290.076 485.595 289.653 485.766C289.34 485.862 289.032 485.978 288.717 486.067C288.306 486.184 287.89 486.284 287.468 486.367C287.205 486.419 286.401 486.726 287.287 486.413C286.585 486.554 285.866 486.584 285.156 486.5C284.811 486.5 284.467 486.459 284.122 486.443C283.057 486.391 284.699 486.578 283.897 486.425C282.679 486.209 281.485 485.879 280.329 485.439C279.308 485.162 278.218 485.3 277.299 485.824C276.379 486.347 275.703 487.213 275.419 488.232C275.169 489.252 275.319 490.33 275.839 491.242C276.358 492.155 277.208 492.834 278.212 493.14C281.687 494.5 285.477 494.838 289.137 494.116C292.797 493.393 296.174 491.64 298.871 489.062C301.268 486.517 303.09 483.485 304.212 480.173C305.334 476.862 305.73 473.347 305.373 469.868C305.36 468.998 305.068 468.155 304.541 467.462C304.013 466.769 303.278 466.264 302.442 466.02C298.718 465.332 294.883 465.547 291.259 466.647C287.635 467.746 284.327 469.698 281.612 472.339C277.149 476.91 274.132 483.911 275.427 490.355C275.713 491.373 276.389 492.238 277.308 492.761C278.227 493.284 279.316 493.423 280.337 493.148C281.349 492.847 282.204 492.166 282.725 491.249C283.246 490.331 283.392 489.247 283.133 488.224Z" fill="#372A69"/>
<path d="M296.98 462.739L300.942 474.818C301.223 475.839 301.898 476.706 302.819 477.228C303.739 477.751 304.83 477.887 305.85 477.606C306.871 477.324 307.738 476.649 308.26 475.729C308.783 474.808 308.919 473.718 308.638 472.697L304.675 460.617C304.394 459.596 303.718 458.729 302.798 458.207C301.877 457.684 300.786 457.549 299.766 457.83C298.745 458.112 297.879 458.787 297.356 459.708C296.834 460.628 296.698 461.719 296.98 462.739Z" fill="#372A69"/>
<path d="M167.478 301.438C170.207 306.43 171.089 312.223 169.967 317.801C168.846 323.378 165.793 328.381 161.347 331.929C160.604 332.68 160.188 333.694 160.188 334.75C160.188 335.806 160.604 336.82 161.347 337.571C162.107 338.296 163.118 338.7 164.168 338.7C165.218 338.7 166.229 338.296 166.989 337.571C178.743 328.278 181.798 310.267 174.371 297.41C171.802 292.963 164.9 296.977 167.478 301.438Z" fill="#372A69"/>
<path d="M111.398 290.885C105.359 295.674 103.631 303.393 99.7263 309.676C97.8568 312.61 95.1884 314.95 92.0348 316.42C88.5403 317.999 84.8979 319.228 81.161 320.089C76.205 321.42 78.3079 329.121 83.2819 327.785C91.7954 325.5 100.241 322.639 105.614 315.215C109.96 309.207 111.332 301.063 117.047 296.536C117.789 295.784 118.205 294.77 118.205 293.714C118.205 292.657 117.789 291.643 117.047 290.891C116.286 290.166 115.275 289.762 114.224 289.762C113.173 289.762 112.163 290.166 111.402 290.891L111.398 290.885Z" fill="#372A69"/>
<path d="M144.538 344.05C144.963 344.57 145.382 345.094 145.797 345.622C145.901 345.754 145.997 345.887 146.109 346.021C145.987 345.871 145.628 345.392 145.945 345.821L146.544 346.62C147.374 347.729 148.178 348.856 148.958 350.001C150.493 352.253 151.93 354.57 153.269 356.951C153.804 357.864 154.679 358.529 155.703 358.797C156.727 359.066 157.815 358.916 158.729 358.382C159.643 357.848 160.307 356.973 160.576 355.949C160.844 354.925 160.695 353.836 160.161 352.922C157.253 347.81 153.912 342.956 150.173 338.415C149.424 337.668 148.41 337.248 147.352 337.246C146.295 337.254 145.283 337.673 144.531 338.415C143.784 339.165 143.364 340.179 143.361 341.236C143.415 342.283 143.828 343.28 144.531 344.058L144.538 344.05Z" fill="#372A69"/>
<path d="M335.08 344.171C334.723 339.475 332.531 335.109 328.977 332.018C325.424 328.928 320.796 327.362 316.096 327.659L319.945 332.711C322.181 327.266 319.825 320.981 315.635 317.17C313.395 315.157 310.676 313.751 307.738 313.087C304.801 312.424 301.742 312.524 298.854 313.379C295.961 314.11 293.276 315.501 291.011 317.442C288.745 319.384 286.96 321.824 285.795 324.57C284.183 329.726 284.686 335.311 287.192 340.097C289.955 345.554 296.787 349.57 302.906 348.168C307.91 347.02 305.793 339.323 300.785 340.47C300.108 340.577 299.414 340.483 298.79 340.201C297.929 339.892 297.121 339.452 296.395 338.896C295.073 337.855 294.099 336.436 293.602 334.828C292.405 330.837 292.441 326.913 295.687 323.98C298.758 321.205 303.816 319.503 307.792 321.33C311.357 322.968 313.802 326.809 312.251 330.578C312.091 331.17 312.069 331.791 312.187 332.393C312.305 332.996 312.56 333.562 312.931 334.051C313.303 334.539 313.782 334.935 314.331 335.209C314.88 335.483 315.484 335.627 316.098 335.63C320.956 335.251 326.886 338.623 327.101 344.161C327.301 349.281 335.282 349.305 335.082 344.161L335.08 344.171Z" fill="#372A69"/>
<path d="M304.801 333.521C298.247 336.855 296.912 346.176 299.343 352.447C301.862 358.953 307.956 364.817 315.372 364.139C316.423 364.117 317.426 363.689 318.169 362.946C318.913 362.202 319.34 361.2 319.362 360.148C319.351 359.094 318.927 358.085 318.181 357.339C317.435 356.594 316.427 356.169 315.372 356.158C314.733 356.216 314.109 356.174 313.473 356.198C312.98 356.218 314.165 356.368 313.421 356.198C313.117 356.128 312.822 356.064 312.521 355.97C312.403 355.935 311.613 355.601 312.142 355.851C312.67 356.1 311.896 355.709 311.793 355.651C311.523 355.502 311.258 355.338 310.994 355.166C310.903 355.105 310.222 354.568 310.631 354.913C311.04 355.258 310.362 354.662 310.284 354.592C310.033 354.364 309.787 354.13 309.546 353.887C309.129 353.469 308.748 353.016 308.349 352.587C308.902 353.171 308.213 352.387 308.135 352.273C307.968 352.026 307.812 351.771 307.663 351.513C307.513 351.256 307.365 350.986 307.23 350.715C307.194 350.643 306.761 349.582 307.03 350.328C306.819 349.751 306.615 349.175 306.459 348.578C306.368 348.223 306.298 347.868 306.22 347.509C306.06 346.759 306.2 347.778 306.19 347.321C306.178 346.675 306.144 346.042 306.162 345.396C306.186 344.672 306.078 345.649 306.178 345.196C306.242 344.899 306.286 344.598 306.354 344.301C306.433 343.953 306.527 343.611 306.633 343.273C306.663 343.175 306.97 342.275 306.783 342.786C306.595 343.297 306.942 342.457 306.982 342.359C307.132 342.076 307.301 341.811 307.463 341.535C307.83 340.909 307.162 341.771 307.479 341.485C307.658 341.314 307.827 341.133 307.986 340.943C308.558 340.296 307.347 341.282 308.074 340.845C308.319 340.697 308.558 340.554 308.812 340.424C309.72 339.885 310.38 339.009 310.648 337.987C310.916 336.965 310.771 335.879 310.244 334.963C309.693 334.068 308.817 333.42 307.8 333.154C306.783 332.888 305.703 333.023 304.783 333.533L304.801 333.521Z" fill="#372A69"/>
<path d="M318.167 347.972C317.088 348.33 316.087 348.889 315.216 349.62C314.626 350.125 314.11 350.711 313.682 351.359C312.93 352.456 312.404 353.691 312.133 354.993C311.561 357.459 311.57 360.025 312.161 362.487C312.301 362.992 312.538 363.465 312.86 363.878C313.182 364.292 313.583 364.638 314.039 364.897C314.495 365.155 314.997 365.322 315.517 365.386C316.037 365.451 316.565 365.412 317.07 365.273C317.576 365.134 318.049 364.896 318.462 364.574C318.876 364.252 319.222 363.851 319.48 363.395C319.739 362.94 319.905 362.437 319.97 361.917C320.035 361.397 319.996 360.869 319.857 360.364C319.772 360.031 319.705 359.694 319.657 359.354L319.801 360.416C319.654 359.285 319.654 358.14 319.801 357.01L319.659 358.069C319.762 357.254 319.969 356.454 320.274 355.691L319.875 356.645C320.074 356.169 320.33 355.72 320.637 355.306L320.012 356.114C320.259 355.796 320.544 355.51 320.862 355.264L320.054 355.889C320.33 355.684 320.629 355.513 320.944 355.378L319.99 355.777C320.092 355.737 320.19 355.699 320.294 355.665C321.286 355.366 322.134 354.714 322.678 353.832C322.943 353.379 323.116 352.879 323.187 352.359C323.258 351.84 323.226 351.311 323.093 350.804C322.96 350.297 322.729 349.821 322.411 349.404C322.094 348.986 321.698 348.635 321.245 348.371C320.785 348.102 320.276 347.929 319.748 347.86C319.22 347.792 318.684 347.83 318.171 347.972H318.167Z" fill="#372A69"/>
<path d="M270.323 331.972C269.244 333.807 268.705 335.909 268.769 338.036C268.832 340.163 269.494 342.23 270.68 343.997C272.841 347.272 276.068 349.698 279.814 350.865C280.835 351.139 281.924 350.999 282.843 350.476C283.762 349.954 284.438 349.089 284.724 348.071C284.98 347.051 284.833 345.971 284.313 345.056C283.792 344.141 282.939 343.462 281.931 343.161C281.519 343.028 281.112 342.875 280.71 342.7L281.664 343.099C280.971 342.802 280.304 342.449 279.668 342.044C279.503 341.938 279.343 341.824 279.181 341.715C278.647 341.348 279.812 342.231 279.449 341.93C279.184 341.709 278.918 341.487 278.667 341.248C278.415 341.008 278.23 340.813 278.024 340.583C277.923 340.441 277.81 340.306 277.687 340.18L278.086 340.703C278.014 340.609 277.942 340.504 277.875 340.414C277.471 339.846 277.127 339.237 276.849 338.598L277.248 339.552C276.969 338.87 276.772 338.156 276.662 337.427L276.803 338.488C276.722 337.833 276.722 337.17 276.803 336.515L276.66 337.577C276.736 337.064 276.87 336.561 277.059 336.078L276.66 337.032C276.816 336.672 277.005 336.328 277.224 336.002C277.751 335.087 277.897 334.001 277.629 332.979C277.361 331.958 276.702 331.083 275.794 330.544C274.874 330.035 273.794 329.899 272.777 330.166C271.76 330.432 270.885 331.08 270.333 331.974L270.323 331.972Z" fill="#372A69"/>
</svg>
